<?xml version="1.0" encoding="utf-8" standalone="no"?>
<!DOCTYPE svg PUBLIC "-//W3C//DTD SVG 1.1//EN"
  "http://www.w3.org/Graphics/SVG/1.1/DTD/svg11.dtd">
<svg xmlns:xlink="http://www.w3.org/1999/xlink" width="1000.709062pt" height="352.025062pt" viewBox="0 0 1000.709062 352.025062" xmlns="http://www.w3.org/2000/svg" version="1.1">
 <metadata>
  <rdf:RDF xmlns:dc="http://purl.org/dc/elements/1.1/" xmlns:cc="http://creativecommons.org/ns#" xmlns:rdf="http://www.w3.org/1999/02/22-rdf-syntax-ns#">
   <cc:Work>
    <dc:type rdf:resource="http://purl.org/dc/dcmitype/StillImage"/>
    <dc:date>2026-04-15T17:29:07.027768</dc:date>
    <dc:format>image/svg+xml</dc:format>
    <dc:creator>
     <cc:Agent>
      <dc:title>Matplotlib v3.10.8, https://matplotlib.org/</dc:title>
     </cc:Agent>
    </dc:creator>
   </cc:Work>
  </rdf:RDF>
 </metadata>
 <defs>
  <style type="text/css">*{stroke-linejoin: round; stroke-linecap: butt}</style>
 </defs>
 <g id="figure_1">
  <g id="patch_1">
   <path d="M 0 352.025062 
L 1000.709062 352.025062 
L 1000.709062 0 
L 0 0 
z
" style="fill: #ffffff"/>
  </g>
  <g id="axes_1">
   <g id="patch_2">
    <path d="M 44.749063 330.179125 
L 993.509063 330.179125 
L 993.509063 37.635125 
L 44.749063 37.635125 
z
" style="fill: #ffffff"/>
   </g>
   <g id="patch_3">
    <path d="M 45.250168 330.179125 
L 50.929365 330.179125 
L 50.929365 51.565792 
L 45.250168 51.565792 
z
" clip-path="url(#p62b8daad21)" style="fill: #059669; opacity: 0.85"/>
   </g>
   <g id="patch_4">
    <path d="M 51.931577 330.179125 
L 57.610774 330.179125 
L 57.610774 51.565792 
L 51.931577 51.565792 
z
" clip-path="url(#p62b8daad21)" style="fill: #059669; opacity: 0.85"/>
   </g>
   <g id="patch_5">
    <path d="M 58.612985 330.179125 
L 64.292182 330.179125 
L 64.292182 51.565792 
L 58.612985 51.565792 
z
" clip-path="url(#p62b8daad21)" style="fill: #059669; opacity: 0.85"/>
   </g>
   <g id="patch_6">
    <path d="M 65.294393 330.179125 
L 70.973591 330.179125 
L 70.973591 51.565792 
L 65.294393 51.565792 
z
" clip-path="url(#p62b8daad21)" style="fill: #059669; opacity: 0.85"/>
   </g>
   <g id="patch_7">
    <path d="M 71.975802 330.179125 
L 77.654999 330.179125 
L 77.654999 51.565792 
L 71.975802 51.565792 
z
" clip-path="url(#p62b8daad21)" style="fill: #059669; opacity: 0.85"/>
   </g>
   <g id="patch_8">
    <path d="M 78.65721 330.179125 
L 84.336408 330.179125 
L 84.336408 51.565792 
L 78.65721 51.565792 
z
" clip-path="url(#p62b8daad21)" style="fill: #059669; opacity: 0.85"/>
   </g>
   <g id="patch_9">
    <path d="M 85.338619 330.179125 
L 91.017816 330.179125 
L 91.017816 51.565792 
L 85.338619 51.565792 
z
" clip-path="url(#p62b8daad21)" style="fill: #059669; opacity: 0.85"/>
   </g>
   <g id="patch_10">
    <path d="M 92.020027 330.179125 
L 97.699224 330.179125 
L 97.699224 51.565792 
L 92.020027 51.565792 
z
" clip-path="url(#p62b8daad21)" style="fill: #059669; opacity: 0.85"/>
   </g>
   <g id="patch_11">
    <path d="M 98.701436 330.179125 
L 104.380633 330.179125 
L 104.380633 51.565792 
L 98.701436 51.565792 
z
" clip-path="url(#p62b8daad21)" style="fill: #059669; opacity: 0.85"/>
   </g>
   <g id="patch_12">
    <path d="M 105.382844 330.179125 
L 111.062041 330.179125 
L 111.062041 51.565792 
L 105.382844 51.565792 
z
" clip-path="url(#p62b8daad21)" style="fill: #059669; opacity: 0.85"/>
   </g>
   <g id="patch_13">
    <path d="M 112.064253 330.179125 
L 117.74345 330.179125 
L 117.74345 51.565792 
L 112.064253 51.565792 
z
" clip-path="url(#p62b8daad21)" style="fill: #059669; opacity: 0.85"/>
   </g>
   <g id="patch_14">
    <path d="M 118.745661 330.179125 
L 124.424858 330.179125 
L 124.424858 51.565792 
L 118.745661 51.565792 
z
" clip-path="url(#p62b8daad21)" style="fill: #059669; opacity: 0.85"/>
   </g>
   <g id="patch_15">
    <path d="M 125.42707 330.179125 
L 131.106267 330.179125 
L 131.106267 51.565792 
L 125.42707 51.565792 
z
" clip-path="url(#p62b8daad21)" style="fill: #059669; opacity: 0.85"/>
   </g>
   <g id="patch_16">
    <path d="M 132.108478 330.179125 
L 137.787675 330.179125 
L 137.787675 51.565792 
L 132.108478 51.565792 
z
" clip-path="url(#p62b8daad21)" style="fill: #059669; opacity: 0.85"/>
   </g>
   <g id="patch_17">
    <path d="M 138.789886 330.179125 
L 144.469084 330.179125 
L 144.469084 51.565792 
L 138.789886 51.565792 
z
" clip-path="url(#p62b8daad21)" style="fill: #059669; opacity: 0.85"/>
   </g>
   <g id="patch_18">
    <path d="M 145.471295 330.179125 
L 151.150492 330.179125 
L 151.150492 51.565792 
L 145.471295 51.565792 
z
" clip-path="url(#p62b8daad21)" style="fill: #059669; opacity: 0.85"/>
   </g>
   <g id="patch_19">
    <path d="M 152.152703 330.179125 
L 157.831901 330.179125 
L 157.831901 51.565792 
L 152.152703 51.565792 
z
" clip-path="url(#p62b8daad21)" style="fill: #059669; opacity: 0.85"/>
   </g>
   <g id="patch_20">
    <path d="M 158.834112 330.179125 
L 164.513309 330.179125 
L 164.513309 51.565792 
L 158.834112 51.565792 
z
" clip-path="url(#p62b8daad21)" style="fill: #059669; opacity: 0.85"/>
   </g>
   <g id="patch_21">
    <path d="M 165.51552 330.179125 
L 171.194717 330.179125 
L 171.194717 51.565792 
L 165.51552 51.565792 
z
" clip-path="url(#p62b8daad21)" style="fill: #059669; opacity: 0.85"/>
   </g>
   <g id="patch_22">
    <path d="M 172.196929 330.179125 
L 177.876126 330.179125 
L 177.876126 51.565792 
L 172.196929 51.565792 
z
" clip-path="url(#p62b8daad21)" style="fill: #059669; opacity: 0.85"/>
   </g>
   <g id="patch_23">
    <path d="M 178.878337 330.179125 
L 184.557534 330.179125 
L 184.557534 51.565792 
L 178.878337 51.565792 
z
" clip-path="url(#p62b8daad21)" style="fill: #059669; opacity: 0.85"/>
   </g>
   <g id="patch_24">
    <path d="M 185.559746 330.179125 
L 191.238943 330.179125 
L 191.238943 51.565792 
L 185.559746 51.565792 
z
" clip-path="url(#p62b8daad21)" style="fill: #059669; opacity: 0.85"/>
   </g>
   <g id="patch_25">
    <path d="M 192.241154 330.179125 
L 197.920351 330.179125 
L 197.920351 51.565792 
L 192.241154 51.565792 
z
" clip-path="url(#p62b8daad21)" style="fill: #059669; opacity: 0.85"/>
   </g>
   <g id="patch_26">
    <path d="M 198.922562 330.179125 
L 204.60176 330.179125 
L 204.60176 51.565792 
L 198.922562 51.565792 
z
" clip-path="url(#p62b8daad21)" style="fill: #059669; opacity: 0.85"/>
   </g>
   <g id="patch_27">
    <path d="M 205.603971 330.179125 
L 211.283168 330.179125 
L 211.283168 51.565792 
L 205.603971 51.565792 
z
" clip-path="url(#p62b8daad21)" style="fill: #059669; opacity: 0.85"/>
   </g>
   <g id="patch_28">
    <path d="M 212.285379 330.179125 
L 217.964577 330.179125 
L 217.964577 51.565792 
L 212.285379 51.565792 
z
" clip-path="url(#p62b8daad21)" style="fill: #059669; opacity: 0.85"/>
   </g>
   <g id="patch_29">
    <path d="M 218.966788 330.179125 
L 224.645985 330.179125 
L 224.645985 51.565792 
L 218.966788 51.565792 
z
" clip-path="url(#p62b8daad21)" style="fill: #059669; opacity: 0.85"/>
   </g>
   <g id="patch_30">
    <path d="M 225.648196 330.179125 
L 231.327393 330.179125 
L 231.327393 51.565792 
L 225.648196 51.565792 
z
" clip-path="url(#p62b8daad21)" style="fill: #059669; opacity: 0.85"/>
   </g>
   <g id="patch_31">
    <path d="M 232.329605 330.179125 
L 238.008802 330.179125 
L 238.008802 190.872458 
L 232.329605 190.872458 
z
" clip-path="url(#p62b8daad21)" style="fill: #059669; opacity: 0.85"/>
   </g>
   <g id="patch_32">
    <path d="M 239.011013 330.179125 
L 244.69021 330.179125 
L 244.69021 190.872458 
L 239.011013 190.872458 
z
" clip-path="url(#p62b8daad21)" style="fill: #059669; opacity: 0.85"/>
   </g>
   <g id="patch_33">
    <path d="M 245.692422 330.179125 
L 251.371619 330.179125 
L 251.371619 190.872458 
L 245.692422 190.872458 
z
" clip-path="url(#p62b8daad21)" style="fill: #059669; opacity: 0.85"/>
   </g>
   <g id="patch_34">
    <path d="M 252.37383 330.179125 
L 258.053027 330.179125 
L 258.053027 190.872458 
L 252.37383 190.872458 
z
" clip-path="url(#p62b8daad21)" style="fill: #059669; opacity: 0.85"/>
   </g>
   <g id="patch_35">
    <path d="M 259.055239 330.179125 
L 264.734436 330.179125 
L 264.734436 190.872458 
L 259.055239 190.872458 
z
" clip-path="url(#p62b8daad21)" style="fill: #059669; opacity: 0.85"/>
   </g>
   <g id="patch_36">
    <path d="M 265.736647 330.179125 
L 271.415844 330.179125 
L 271.415844 190.872458 
L 265.736647 190.872458 
z
" clip-path="url(#p62b8daad21)" style="fill: #059669; opacity: 0.85"/>
   </g>
   <g id="patch_37">
    <path d="M 272.418055 330.179125 
L 278.097253 330.179125 
L 278.097253 190.872458 
L 272.418055 190.872458 
z
" clip-path="url(#p62b8daad21)" style="fill: #059669; opacity: 0.85"/>
   </g>
   <g id="patch_38">
    <path d="M 279.099464 330.179125 
L 284.778661 330.179125 
L 284.778661 190.872458 
L 279.099464 190.872458 
z
" clip-path="url(#p62b8daad21)" style="fill: #059669; opacity: 0.85"/>
   </g>
   <g id="patch_39">
    <path d="M 285.780872 330.179125 
L 291.46007 330.179125 
L 291.46007 190.872458 
L 285.780872 190.872458 
z
" clip-path="url(#p62b8daad21)" style="fill: #059669; opacity: 0.85"/>
   </g>
   <g id="patch_40">
    <path d="M 292.462281 330.179125 
L 298.141478 330.179125 
L 298.141478 237.308014 
L 292.462281 237.308014 
z
" clip-path="url(#p62b8daad21)" style="fill: #059669; opacity: 0.85"/>
   </g>
   <g id="patch_41">
    <path d="M 299.143689 330.179125 
L 304.822886 330.179125 
L 304.822886 237.308014 
L 299.143689 237.308014 
z
" clip-path="url(#p62b8daad21)" style="fill: #059669; opacity: 0.85"/>
   </g>
   <g id="patch_42">
    <path d="M 305.825098 330.179125 
L 311.504295 330.179125 
L 311.504295 237.308014 
L 305.825098 237.308014 
z
" clip-path="url(#p62b8daad21)" style="fill: #059669; opacity: 0.85"/>
   </g>
   <g id="patch_43">
    <path d="M 312.506506 330.179125 
L 318.185703 330.179125 
L 318.185703 237.308014 
L 312.506506 237.308014 
z
" clip-path="url(#p62b8daad21)" style="fill: #059669; opacity: 0.85"/>
   </g>
   <g id="patch_44">
    <path d="M 319.187915 330.179125 
L 324.867112 330.179125 
L 324.867112 237.308014 
L 319.187915 237.308014 
z
" clip-path="url(#p62b8daad21)" style="fill: #059669; opacity: 0.85"/>
   </g>
   <g id="patch_45">
    <path d="M 325.869323 330.179125 
L 331.54852 330.179125 
L 331.54852 237.308014 
L 325.869323 237.308014 
z
" clip-path="url(#p62b8daad21)" style="fill: #059669; opacity: 0.85"/>
   </g>
   <g id="patch_46">
    <path d="M 332.550732 330.179125 
L 338.229929 330.179125 
L 338.229929 237.308014 
L 332.550732 237.308014 
z
" clip-path="url(#p62b8daad21)" style="fill: #059669; opacity: 0.85"/>
   </g>
   <g id="patch_47">
    <path d="M 339.23214 330.179125 
L 344.911337 330.179125 
L 344.911337 260.525792 
L 339.23214 260.525792 
z
" clip-path="url(#p62b8daad21)" style="fill: #059669; opacity: 0.85"/>
   </g>
   <g id="patch_48">
    <path d="M 345.913548 330.179125 
L 351.592746 330.179125 
L 351.592746 260.525792 
L 345.913548 260.525792 
z
" clip-path="url(#p62b8daad21)" style="fill: #059669; opacity: 0.85"/>
   </g>
   <g id="patch_49">
    <path d="M 352.594957 330.179125 
L 358.274154 330.179125 
L 358.274154 260.525792 
L 352.594957 260.525792 
z
" clip-path="url(#p62b8daad21)" style="fill: #059669; opacity: 0.85"/>
   </g>
   <g id="patch_50">
    <path d="M 359.276365 330.179125 
L 364.955563 330.179125 
L 364.955563 260.525792 
L 359.276365 260.525792 
z
" clip-path="url(#p62b8daad21)" style="fill: #059669; opacity: 0.85"/>
   </g>
   <g id="patch_51">
    <path d="M 365.957774 330.179125 
L 371.636971 330.179125 
L 371.636971 260.525792 
L 365.957774 260.525792 
z
" clip-path="url(#p62b8daad21)" style="fill: #059669; opacity: 0.85"/>
   </g>
   <g id="patch_52">
    <path d="M 372.639182 330.179125 
L 378.318379 330.179125 
L 378.318379 260.525792 
L 372.639182 260.525792 
z
" clip-path="url(#p62b8daad21)" style="fill: #059669; opacity: 0.85"/>
   </g>
   <g id="patch_53">
    <path d="M 379.320591 330.179125 
L 384.999788 330.179125 
L 384.999788 260.525792 
L 379.320591 260.525792 
z
" clip-path="url(#p62b8daad21)" style="fill: #059669; opacity: 0.85"/>
   </g>
   <g id="patch_54">
    <path d="M 386.001999 330.179125 
L 391.681196 330.179125 
L 391.681196 274.456458 
L 386.001999 274.456458 
z
" clip-path="url(#p62b8daad21)" style="fill: #059669; opacity: 0.85"/>
   </g>
   <g id="patch_55">
    <path d="M 392.683408 330.179125 
L 398.362605 330.179125 
L 398.362605 274.456458 
L 392.683408 274.456458 
z
" clip-path="url(#p62b8daad21)" style="fill: #059669; opacity: 0.85"/>
   </g>
   <g id="patch_56">
    <path d="M 399.364816 330.179125 
L 405.044013 330.179125 
L 405.044013 274.456458 
L 399.364816 274.456458 
z
" clip-path="url(#p62b8daad21)" style="fill: #059669; opacity: 0.85"/>
   </g>
   <g id="patch_57">
    <path d="M 406.046224 330.179125 
L 411.725422 330.179125 
L 411.725422 274.456458 
L 406.046224 274.456458 
z
" clip-path="url(#p62b8daad21)" style="fill: #059669; opacity: 0.85"/>
   </g>
   <g id="patch_58">
    <path d="M 412.727633 330.179125 
L 418.40683 330.179125 
L 418.40683 274.456458 
L 412.727633 274.456458 
z
" clip-path="url(#p62b8daad21)" style="fill: #059669; opacity: 0.85"/>
   </g>
   <g id="patch_59">
    <path d="M 419.409041 330.179125 
L 425.088239 330.179125 
L 425.088239 274.456458 
L 419.409041 274.456458 
z
" clip-path="url(#p62b8daad21)" style="fill: #059669; opacity: 0.85"/>
   </g>
   <g id="patch_60">
    <path d="M 426.09045 330.179125 
L 431.769647 330.179125 
L 431.769647 274.456458 
L 426.09045 274.456458 
z
" clip-path="url(#p62b8daad21)" style="fill: #059669; opacity: 0.85"/>
   </g>
   <g id="patch_61">
    <path d="M 432.771858 330.179125 
L 438.451055 330.179125 
L 438.451055 274.456458 
L 432.771858 274.456458 
z
" clip-path="url(#p62b8daad21)" style="fill: #059669; opacity: 0.85"/>
   </g>
   <g id="patch_62">
    <path d="M 439.453267 330.179125 
L 445.132464 330.179125 
L 445.132464 283.743569 
L 439.453267 283.743569 
z
" clip-path="url(#p62b8daad21)" style="fill: #059669; opacity: 0.85"/>
   </g>
   <g id="patch_63">
    <path d="M 446.134675 330.179125 
L 451.813872 330.179125 
L 451.813872 283.743569 
L 446.134675 283.743569 
z
" clip-path="url(#p62b8daad21)" style="fill: #059669; opacity: 0.85"/>
   </g>
   <g id="patch_64">
    <path d="M 452.816084 330.179125 
L 458.495281 330.179125 
L 458.495281 283.743569 
L 452.816084 283.743569 
z
" clip-path="url(#p62b8daad21)" style="fill: #059669; opacity: 0.85"/>
   </g>
   <g id="patch_65">
    <path d="M 459.497492 330.179125 
L 465.176689 330.179125 
L 465.176689 283.743569 
L 459.497492 283.743569 
z
" clip-path="url(#p62b8daad21)" style="fill: #059669; opacity: 0.85"/>
   </g>
   <g id="patch_66">
    <path d="M 466.178901 330.179125 
L 471.858098 330.179125 
L 471.858098 283.743569 
L 466.178901 283.743569 
z
" clip-path="url(#p62b8daad21)" style="fill: #059669; opacity: 0.85"/>
   </g>
   <g id="patch_67">
    <path d="M 472.860309 330.179125 
L 478.539506 330.179125 
L 478.539506 290.37722 
L 472.860309 290.37722 
z
" clip-path="url(#p62b8daad21)" style="fill: #059669; opacity: 0.85"/>
   </g>
   <g id="patch_68">
    <path d="M 479.541717 330.179125 
L 485.220915 330.179125 
L 485.220915 290.37722 
L 479.541717 290.37722 
z
" clip-path="url(#p62b8daad21)" style="fill: #059669; opacity: 0.85"/>
   </g>
   <g id="patch_69">
    <path d="M 486.223126 330.179125 
L 491.902323 330.179125 
L 491.902323 290.37722 
L 486.223126 290.37722 
z
" clip-path="url(#p62b8daad21)" style="fill: #059669; opacity: 0.85"/>
   </g>
   <g id="patch_70">
    <path d="M 492.904534 330.179125 
L 498.583732 330.179125 
L 498.583732 290.37722 
L 492.904534 290.37722 
z
" clip-path="url(#p62b8daad21)" style="fill: #059669; opacity: 0.85"/>
   </g>
   <g id="patch_71">
    <path d="M 499.585943 330.179125 
L 505.26514 330.179125 
L 505.26514 290.37722 
L 499.585943 290.37722 
z
" clip-path="url(#p62b8daad21)" style="fill: #059669; opacity: 0.85"/>
   </g>
   <g id="patch_72">
    <path d="M 506.267351 330.179125 
L 511.946548 330.179125 
L 511.946548 290.37722 
L 506.267351 290.37722 
z
" clip-path="url(#p62b8daad21)" style="fill: #059669; opacity: 0.85"/>
   </g>
   <g id="patch_73">
    <path d="M 512.94876 330.179125 
L 518.627957 330.179125 
L 518.627957 295.352458 
L 512.94876 295.352458 
z
" clip-path="url(#p62b8daad21)" style="fill: #059669; opacity: 0.85"/>
   </g>
   <g id="patch_74">
    <path d="M 519.630168 330.179125 
L 525.309365 330.179125 
L 525.309365 295.352458 
L 519.630168 295.352458 
z
" clip-path="url(#p62b8daad21)" style="fill: #059669; opacity: 0.85"/>
   </g>
   <g id="patch_75">
    <path d="M 526.311577 330.179125 
L 531.990774 330.179125 
L 531.990774 295.352458 
L 526.311577 295.352458 
z
" clip-path="url(#p62b8daad21)" style="fill: #059669; opacity: 0.85"/>
   </g>
   <g id="patch_76">
    <path d="M 532.992985 330.179125 
L 538.672182 330.179125 
L 538.672182 295.352458 
L 532.992985 295.352458 
z
" clip-path="url(#p62b8daad21)" style="fill: #059669; opacity: 0.85"/>
   </g>
   <g id="patch_77">
    <path d="M 539.674393 330.179125 
L 545.353591 330.179125 
L 545.353591 299.222088 
L 539.674393 299.222088 
z
" clip-path="url(#p62b8daad21)" style="fill: #059669; opacity: 0.85"/>
   </g>
   <g id="patch_78">
    <path d="M 546.355802 330.179125 
L 552.034999 330.179125 
L 552.034999 299.222088 
L 546.355802 299.222088 
z
" clip-path="url(#p62b8daad21)" style="fill: #059669; opacity: 0.85"/>
   </g>
   <g id="patch_79">
    <path d="M 553.03721 330.179125 
L 558.716408 330.179125 
L 558.716408 302.317792 
L 553.03721 302.317792 
z
" clip-path="url(#p62b8daad21)" style="fill: #059669; opacity: 0.85"/>
   </g>
   <g id="patch_80">
    <path d="M 559.718619 330.179125 
L 565.397816 330.179125 
L 565.397816 302.317792 
L 559.718619 302.317792 
z
" clip-path="url(#p62b8daad21)" style="fill: #059669; opacity: 0.85"/>
   </g>
   <g id="patch_81">
    <path d="M 566.400027 330.179125 
L 572.079224 330.179125 
L 572.079224 302.317792 
L 566.400027 302.317792 
z
" clip-path="url(#p62b8daad21)" style="fill: #059669; opacity: 0.85"/>
   </g>
   <g id="patch_82">
    <path d="M 573.081436 330.179125 
L 578.760633 330.179125 
L 578.760633 302.317792 
L 573.081436 302.317792 
z
" clip-path="url(#p62b8daad21)" style="fill: #059669; opacity: 0.85"/>
   </g>
   <g id="patch_83">
    <path d="M 579.762844 330.179125 
L 585.442041 330.179125 
L 585.442041 302.317792 
L 579.762844 302.317792 
z
" clip-path="url(#p62b8daad21)" style="fill: #059669; opacity: 0.85"/>
   </g>
   <g id="patch_84">
    <path d="M 586.444253 330.179125 
L 592.12345 330.179125 
L 592.12345 302.317792 
L 586.444253 302.317792 
z
" clip-path="url(#p62b8daad21)" style="fill: #059669; opacity: 0.85"/>
   </g>
   <g id="patch_85">
    <path d="M 593.125661 330.179125 
L 598.804858 330.179125 
L 598.804858 302.317792 
L 593.125661 302.317792 
z
" clip-path="url(#p62b8daad21)" style="fill: #059669; opacity: 0.85"/>
   </g>
   <g id="patch_86">
    <path d="M 599.80707 330.179125 
L 605.486267 330.179125 
L 605.486267 302.317792 
L 599.80707 302.317792 
z
" clip-path="url(#p62b8daad21)" style="fill: #059669; opacity: 0.85"/>
   </g>
   <g id="patch_87">
    <path d="M 606.488478 330.179125 
L 612.167675 330.179125 
L 612.167675 302.317792 
L 606.488478 302.317792 
z
" clip-path="url(#p62b8daad21)" style="fill: #059669; opacity: 0.85"/>
   </g>
   <g id="patch_88">
    <path d="M 613.169886 330.179125 
L 618.849084 330.179125 
L 618.849084 302.317792 
L 613.169886 302.317792 
z
" clip-path="url(#p62b8daad21)" style="fill: #059669; opacity: 0.85"/>
   </g>
   <g id="patch_89">
    <path d="M 619.851295 330.179125 
L 625.530492 330.179125 
L 625.530492 302.317792 
L 619.851295 302.317792 
z
" clip-path="url(#p62b8daad21)" style="fill: #059669; opacity: 0.85"/>
   </g>
   <g id="patch_90">
    <path d="M 626.532703 330.179125 
L 632.211901 330.179125 
L 632.211901 304.85064 
L 626.532703 304.85064 
z
" clip-path="url(#p62b8daad21)" style="fill: #059669; opacity: 0.85"/>
   </g>
   <g id="patch_91">
    <path d="M 633.214112 330.179125 
L 638.893309 330.179125 
L 638.893309 304.85064 
L 633.214112 304.85064 
z
" clip-path="url(#p62b8daad21)" style="fill: #059669; opacity: 0.85"/>
   </g>
   <g id="patch_92">
    <path d="M 639.89552 330.179125 
L 645.574717 330.179125 
L 645.574717 308.74733 
L 639.89552 308.74733 
z
" clip-path="url(#p62b8daad21)" style="fill: #059669; opacity: 0.85"/>
   </g>
   <g id="patch_93">
    <path d="M 646.576929 330.179125 
L 652.256126 330.179125 
L 652.256126 308.74733 
L 646.576929 308.74733 
z
" clip-path="url(#p62b8daad21)" style="fill: #059669; opacity: 0.85"/>
   </g>
   <g id="patch_94">
    <path d="M 653.258337 330.179125 
L 658.937534 330.179125 
L 658.937534 310.278173 
L 653.258337 310.278173 
z
" clip-path="url(#p62b8daad21)" style="fill: #059669; opacity: 0.85"/>
   </g>
   <g id="patch_95">
    <path d="M 659.939746 330.179125 
L 665.618943 330.179125 
L 665.618943 310.278173 
L 659.939746 310.278173 
z
" clip-path="url(#p62b8daad21)" style="fill: #059669; opacity: 0.85"/>
   </g>
   <g id="patch_96">
    <path d="M 666.621154 330.179125 
L 672.300351 330.179125 
L 672.300351 311.604903 
L 666.621154 311.604903 
z
" clip-path="url(#p62b8daad21)" style="fill: #059669; opacity: 0.85"/>
   </g>
   <g id="patch_97">
    <path d="M 673.302563 330.179125 
L 678.98176 330.179125 
L 678.98176 314.700606 
L 673.302563 314.700606 
z
" clip-path="url(#p62b8daad21)" style="fill: #059669; opacity: 0.85"/>
   </g>
   <g id="patch_98">
    <path d="M 679.983971 330.179125 
L 685.663168 330.179125 
L 685.663168 314.700606 
L 679.983971 314.700606 
z
" clip-path="url(#p62b8daad21)" style="fill: #059669; opacity: 0.85"/>
   </g>
   <g id="patch_99">
    <path d="M 686.665379 330.179125 
L 692.344577 330.179125 
L 692.344577 316.911823 
L 686.665379 316.911823 
z
" clip-path="url(#p62b8daad21)" style="fill: #059669; opacity: 0.85"/>
   </g>
   <g id="patch_100">
    <path d="M 693.346788 330.179125 
L 699.025985 330.179125 
L 699.025985 317.514883 
L 693.346788 317.514883 
z
" clip-path="url(#p62b8daad21)" style="fill: #059669; opacity: 0.85"/>
   </g>
   <g id="patch_101">
    <path d="M 700.028196 330.179125 
L 705.707393 330.179125 
L 705.707393 318.065502 
L 700.028196 318.065502 
z
" clip-path="url(#p62b8daad21)" style="fill: #059669; opacity: 0.85"/>
   </g>
   <g id="patch_102">
    <path d="M 706.709605 330.179125 
L 712.388802 330.179125 
L 712.388802 318.570236 
L 706.709605 318.570236 
z
" clip-path="url(#p62b8daad21)" style="fill: #059669; opacity: 0.85"/>
   </g>
   <g id="patch_103">
    <path d="M 713.391013 330.179125 
L 719.07021 330.179125 
L 719.07021 318.570236 
L 713.391013 318.570236 
z
" clip-path="url(#p62b8daad21)" style="fill: #059669; opacity: 0.85"/>
   </g>
   <g id="patch_104">
    <path d="M 720.072422 330.179125 
L 725.751619 330.179125 
L 725.751619 319.034592 
L 720.072422 319.034592 
z
" clip-path="url(#p62b8daad21)" style="fill: #059669; opacity: 0.85"/>
   </g>
   <g id="patch_105">
    <path d="M 726.75383 330.179125 
L 732.433027 330.179125 
L 732.433027 321.736297 
L 726.75383 321.736297 
z
" clip-path="url(#p62b8daad21)" style="fill: #059669; opacity: 0.85"/>
   </g>
   <g id="patch_106">
    <path d="M 733.435239 330.179125 
L 739.114436 330.179125 
L 739.114436 321.984615 
L 733.435239 321.984615 
z
" clip-path="url(#p62b8daad21)" style="fill: #059669; opacity: 0.85"/>
   </g>
   <g id="patch_107">
    <path d="M 740.116647 330.179125 
L 745.795844 330.179125 
L 745.795844 322.439866 
L 740.116647 322.439866 
z
" clip-path="url(#p62b8daad21)" style="fill: #059669; opacity: 0.85"/>
   </g>
   <g id="patch_108">
    <path d="M 746.798055 330.179125 
L 752.477253 330.179125 
L 752.477253 322.649035 
L 746.798055 322.649035 
z
" clip-path="url(#p62b8daad21)" style="fill: #059669; opacity: 0.85"/>
   </g>
   <g id="patch_109">
    <path d="M 753.479464 330.179125 
L 759.158661 330.179125 
L 759.158661 322.847195 
L 753.479464 322.847195 
z
" clip-path="url(#p62b8daad21)" style="fill: #059669; opacity: 0.85"/>
   </g>
   <g id="patch_110">
    <path d="M 760.160872 330.179125 
L 765.84007 330.179125 
L 765.84007 323.213792 
L 760.160872 323.213792 
z
" clip-path="url(#p62b8daad21)" style="fill: #059669; opacity: 0.85"/>
   </g>
   <g id="patch_111">
    <path d="M 766.842281 330.179125 
L 772.521478 330.179125 
L 772.521478 323.213792 
L 766.842281 323.213792 
z
" clip-path="url(#p62b8daad21)" style="fill: #059669; opacity: 0.85"/>
   </g>
   <g id="patch_112">
    <path d="M 773.523689 330.179125 
L 779.202886 330.179125 
L 779.202886 323.699745 
L 773.523689 323.699745 
z
" clip-path="url(#p62b8daad21)" style="fill: #059669; opacity: 0.85"/>
   </g>
   <g id="patch_113">
    <path d="M 780.205098 330.179125 
L 785.884295 330.179125 
L 785.884295 324.122313 
L 780.205098 324.122313 
z
" clip-path="url(#p62b8daad21)" style="fill: #059669; opacity: 0.85"/>
   </g>
   <g id="patch_114">
    <path d="M 786.886506 330.179125 
L 792.565703 330.179125 
L 792.565703 325.456865 
L 786.886506 325.456865 
z
" clip-path="url(#p62b8daad21)" style="fill: #059669; opacity: 0.85"/>
   </g>
   <g id="patch_115">
    <path d="M 793.567915 330.179125 
L 799.247112 330.179125 
L 799.247112 325.892766 
L 793.567915 325.892766 
z
" clip-path="url(#p62b8daad21)" style="fill: #059669; opacity: 0.85"/>
   </g>
   <g id="patch_116">
    <path d="M 800.249323 330.179125 
L 805.92852 330.179125 
L 805.92852 326.141251 
L 800.249323 326.141251 
z
" clip-path="url(#p62b8daad21)" style="fill: #059669; opacity: 0.85"/>
   </g>
   <g id="patch_117">
    <path d="M 806.930732 330.179125 
L 812.609929 330.179125 
L 812.609929 326.141251 
L 806.930732 326.141251 
z
" clip-path="url(#p62b8daad21)" style="fill: #059669; opacity: 0.85"/>
   </g>
   <g id="patch_118">
    <path d="M 813.61214 330.179125 
L 819.291337 330.179125 
L 819.291337 326.41408 
L 813.61214 326.41408 
z
" clip-path="url(#p62b8daad21)" style="fill: #059669; opacity: 0.85"/>
   </g>
   <g id="patch_119">
    <path d="M 820.293548 330.179125 
L 825.972746 330.179125 
L 825.972746 326.976673 
L 820.293548 326.976673 
z
" clip-path="url(#p62b8daad21)" style="fill: #059669; opacity: 0.85"/>
   </g>
   <g id="patch_120">
    <path d="M 826.974957 330.179125 
L 832.654154 330.179125 
L 832.654154 327.895409 
L 826.974957 327.895409 
z
" clip-path="url(#p62b8daad21)" style="fill: #059669; opacity: 0.85"/>
   </g>
   <g id="patch_121">
    <path d="M 833.656365 330.179125 
L 839.335563 330.179125 
L 839.335563 327.913976 
L 833.656365 327.913976 
z
" clip-path="url(#p62b8daad21)" style="fill: #059669; opacity: 0.85"/>
   </g>
   <g id="patch_122">
    <path d="M 840.337774 330.179125 
L 846.016971 330.179125 
L 846.016971 328.052306 
L 840.337774 328.052306 
z
" clip-path="url(#p62b8daad21)" style="fill: #059669; opacity: 0.85"/>
   </g>
   <g id="patch_123">
    <path d="M 847.019182 330.179125 
L 852.698379 330.179125 
L 852.698379 328.052306 
L 847.019182 328.052306 
z
" clip-path="url(#p62b8daad21)" style="fill: #059669; opacity: 0.85"/>
   </g>
   <g id="patch_124">
    <path d="M 853.700591 330.179125 
L 859.379788 330.179125 
L 859.379788 328.257654 
L 853.700591 328.257654 
z
" clip-path="url(#p62b8daad21)" style="fill: #059669; opacity: 0.85"/>
   </g>
   <g id="patch_125">
    <path d="M 860.381999 330.179125 
L 866.061196 330.179125 
L 866.061196 328.321703 
L 860.381999 328.321703 
z
" clip-path="url(#p62b8daad21)" style="fill: #059669; opacity: 0.85"/>
   </g>
   <g id="patch_126">
    <path d="M 867.063408 330.179125 
L 872.742605 330.179125 
L 872.742605 328.42684 
L 867.063408 328.42684 
z
" clip-path="url(#p62b8daad21)" style="fill: #059669; opacity: 0.85"/>
   </g>
   <g id="patch_127">
    <path d="M 873.744816 330.179125 
L 879.424013 330.179125 
L 879.424013 328.648283 
L 873.744816 328.648283 
z
" clip-path="url(#p62b8daad21)" style="fill: #059669; opacity: 0.85"/>
   </g>
   <g id="patch_128">
    <path d="M 880.426224 330.179125 
L 886.105422 330.179125 
L 886.105422 328.764844 
L 880.426224 328.764844 
z
" clip-path="url(#p62b8daad21)" style="fill: #059669; opacity: 0.85"/>
   </g>
   <g id="patch_129">
    <path d="M 887.107633 330.179125 
L 892.78683 330.179125 
L 892.78683 328.771987 
L 887.107633 328.771987 
z
" clip-path="url(#p62b8daad21)" style="fill: #059669; opacity: 0.85"/>
   </g>
   <g id="patch_130">
    <path d="M 893.789041 330.179125 
L 899.468239 330.179125 
L 899.468239 329.069112 
L 893.789041 329.069112 
z
" clip-path="url(#p62b8daad21)" style="fill: #059669; opacity: 0.85"/>
   </g>
   <g id="patch_131">
    <path d="M 900.47045 330.179125 
L 906.149647 330.179125 
L 906.149647 329.324483 
L 900.47045 329.324483 
z
" clip-path="url(#p62b8daad21)" style="fill: #059669; opacity: 0.85"/>
   </g>
   <g id="patch_132">
    <path d="M 907.151858 330.179125 
L 912.831055 330.179125 
L 912.831055 329.362077 
L 907.151858 329.362077 
z
" clip-path="url(#p62b8daad21)" style="fill: #059669; opacity: 0.85"/>
   </g>
   <g id="patch_133">
    <path d="M 913.833267 330.179125 
L 919.512464 330.179125 
L 919.512464 329.457329 
L 913.833267 329.457329 
z
" clip-path="url(#p62b8daad21)" style="fill: #059669; opacity: 0.85"/>
   </g>
   <g id="patch_134">
    <path d="M 920.514675 330.179125 
L 926.193872 330.179125 
L 926.193872 329.597469 
L 920.514675 329.597469 
z
" clip-path="url(#p62b8daad21)" style="fill: #059669; opacity: 0.85"/>
   </g>
   <g id="patch_135">
    <path d="M 927.196084 330.179125 
L 932.875281 330.179125 
L 932.875281 329.610526 
L 927.196084 329.610526 
z
" clip-path="url(#p62b8daad21)" style="fill: #059669; opacity: 0.85"/>
   </g>
   <g id="patch_136">
    <path d="M 933.877492 330.179125 
L 939.556689 330.179125 
L 939.556689 329.697928 
L 933.877492 329.697928 
z
" clip-path="url(#p62b8daad21)" style="fill: #059669; opacity: 0.85"/>
   </g>
   <g id="patch_137">
    <path d="M 940.558901 330.179125 
L 946.238098 330.179125 
L 946.238098 329.77239 
L 940.558901 329.77239 
z
" clip-path="url(#p62b8daad21)" style="fill: #059669; opacity: 0.85"/>
   </g>
   <g id="patch_138">
    <path d="M 947.240309 330.179125 
L 952.919506 330.179125 
L 952.919506 329.927214 
L 947.240309 329.927214 
z
" clip-path="url(#p62b8daad21)" style="fill: #059669; opacity: 0.85"/>
   </g>
   <g id="patch_139">
    <path d="M 953.921717 330.179125 
L 959.600915 330.179125 
L 959.600915 329.934082 
L 953.921717 329.934082 
z
" clip-path="url(#p62b8daad21)" style="fill: #059669; opacity: 0.85"/>
   </g>
   <g id="patch_140">
    <path d="M 960.603126 330.179125 
L 966.282323 330.179125 
L 966.282323 329.981667 
L 960.603126 329.981667 
z
" clip-path="url(#p62b8daad21)" style="fill: #059669; opacity: 0.85"/>
   </g>
   <g id="patch_141">
    <path d="M 967.284534 330.179125 
L 972.963732 330.179125 
L 972.963732 330.165197 
L 967.284534 330.165197 
z
" clip-path="url(#p62b8daad21)" style="fill: #059669; opacity: 0.85"/>
   </g>
   <g id="patch_142">
    <path d="M 973.965943 330.179125 
L 979.64514 330.179125 
L 979.64514 330.179125 
L 973.965943 330.179125 
z
" clip-path="url(#p62b8daad21)" style="fill: #059669; opacity: 0.85"/>
   </g>
   <g id="patch_143">
    <path d="M 980.647351 330.179125 
L 986.326548 330.179125 
L 986.326548 330.179125 
L 980.647351 330.179125 
z
" clip-path="url(#p62b8daad21)" style="fill: #059669; opacity: 0.85"/>
   </g>
   <g id="patch_144">
    <path d="M 987.32876 330.179125 
L 993.007957 330.179125 
L 993.007957 330.179125 
L 987.32876 330.179125 
z
" clip-path="url(#p62b8daad21)" style="fill: #059669; opacity: 0.85"/>
   </g>
   <g id="matplotlib.axis_1">
    <g id="text_1">
     <!-- Parties ranked by share (N=142) -->
     <g transform="translate(429.021875 342.537406) scale(0.11 -0.11)">
      <defs>
       <path id="DejaVuSans-50" d="M 1259 4147 
L 1259 2394 
L 2053 2394 
Q 2494 2394 2734 2622 
Q 2975 2850 2975 3272 
Q 2975 3691 2734 3919 
Q 2494 4147 2053 4147 
L 1259 4147 
z
M 628 4666 
L 2053 4666 
Q 2838 4666 3239 4311 
Q 3641 3956 3641 3272 
Q 3641 2581 3239 2228 
Q 2838 1875 2053 1875 
L 1259 1875 
L 1259 0 
L 628 0 
L 628 4666 
z
" transform="scale(0.015625)"/>
       <path id="DejaVuSans-61" d="M 2194 1759 
Q 1497 1759 1228 1600 
Q 959 1441 959 1056 
Q 959 750 1161 570 
Q 1363 391 1709 391 
Q 2188 391 2477 730 
Q 2766 1069 2766 1631 
L 2766 1759 
L 2194 1759 
z
M 3341 1997 
L 3341 0 
L 2766 0 
L 2766 531 
Q 2569 213 2275 61 
Q 1981 -91 1556 -91 
Q 1019 -91 701 211 
Q 384 513 384 1019 
Q 384 1609 779 1909 
Q 1175 2209 1959 2209 
L 2766 2209 
L 2766 2266 
Q 2766 2663 2505 2880 
Q 2244 3097 1772 3097 
Q 1472 3097 1187 3025 
Q 903 2953 641 2809 
L 641 3341 
Q 956 3463 1253 3523 
Q 1550 3584 1831 3584 
Q 2591 3584 2966 3190 
Q 3341 2797 3341 1997 
z
" transform="scale(0.015625)"/>
       <path id="DejaVuSans-72" d="M 2631 2963 
Q 2534 3019 2420 3045 
Q 2306 3072 2169 3072 
Q 1681 3072 1420 2755 
Q 1159 2438 1159 1844 
L 1159 0 
L 581 0 
L 581 3500 
L 1159 3500 
L 1159 2956 
Q 1341 3275 1631 3429 
Q 1922 3584 2338 3584 
Q 2397 3584 2469 3576 
Q 2541 3569 2628 3553 
L 2631 2963 
z
" transform="scale(0.015625)"/>
       <path id="DejaVuSans-74" d="M 1172 4494 
L 1172 3500 
L 2356 3500 
L 2356 3053 
L 1172 3053 
L 1172 1153 
Q 1172 725 1289 603 
Q 1406 481 1766 481 
L 2356 481 
L 2356 0 
L 1766 0 
Q 1100 0 847 248 
Q 594 497 594 1153 
L 594 3053 
L 172 3053 
L 172 3500 
L 594 3500 
L 594 4494 
L 1172 4494 
z
" transform="scale(0.015625)"/>
       <path id="DejaVuSans-69" d="M 603 3500 
L 1178 3500 
L 1178 0 
L 603 0 
L 603 3500 
z
M 603 4863 
L 1178 4863 
L 1178 4134 
L 603 4134 
L 603 4863 
z
" transform="scale(0.015625)"/>
       <path id="DejaVuSans-65" d="M 3597 1894 
L 3597 1613 
L 953 1613 
Q 991 1019 1311 708 
Q 1631 397 2203 397 
Q 2534 397 2845 478 
Q 3156 559 3463 722 
L 3463 178 
Q 3153 47 2828 -22 
Q 2503 -91 2169 -91 
Q 1331 -91 842 396 
Q 353 884 353 1716 
Q 353 2575 817 3079 
Q 1281 3584 2069 3584 
Q 2775 3584 3186 3129 
Q 3597 2675 3597 1894 
z
M 3022 2063 
Q 3016 2534 2758 2815 
Q 2500 3097 2075 3097 
Q 1594 3097 1305 2825 
Q 1016 2553 972 2059 
L 3022 2063 
z
" transform="scale(0.015625)"/>
       <path id="DejaVuSans-73" d="M 2834 3397 
L 2834 2853 
Q 2591 2978 2328 3040 
Q 2066 3103 1784 3103 
Q 1356 3103 1142 2972 
Q 928 2841 928 2578 
Q 928 2378 1081 2264 
Q 1234 2150 1697 2047 
L 1894 2003 
Q 2506 1872 2764 1633 
Q 3022 1394 3022 966 
Q 3022 478 2636 193 
Q 2250 -91 1575 -91 
Q 1294 -91 989 -36 
Q 684 19 347 128 
L 347 722 
Q 666 556 975 473 
Q 1284 391 1588 391 
Q 1994 391 2212 530 
Q 2431 669 2431 922 
Q 2431 1156 2273 1281 
Q 2116 1406 1581 1522 
L 1381 1569 
Q 847 1681 609 1914 
Q 372 2147 372 2553 
Q 372 3047 722 3315 
Q 1072 3584 1716 3584 
Q 2034 3584 2315 3537 
Q 2597 3491 2834 3397 
z
" transform="scale(0.015625)"/>
       <path id="DejaVuSans-20" transform="scale(0.015625)"/>
       <path id="DejaVuSans-6e" d="M 3513 2113 
L 3513 0 
L 2938 0 
L 2938 2094 
Q 2938 2591 2744 2837 
Q 2550 3084 2163 3084 
Q 1697 3084 1428 2787 
Q 1159 2491 1159 1978 
L 1159 0 
L 581 0 
L 581 3500 
L 1159 3500 
L 1159 2956 
Q 1366 3272 1645 3428 
Q 1925 3584 2291 3584 
Q 2894 3584 3203 3211 
Q 3513 2838 3513 2113 
z
" transform="scale(0.015625)"/>
       <path id="DejaVuSans-6b" d="M 581 4863 
L 1159 4863 
L 1159 1991 
L 2875 3500 
L 3609 3500 
L 1753 1863 
L 3688 0 
L 2938 0 
L 1159 1709 
L 1159 0 
L 581 0 
L 581 4863 
z
" transform="scale(0.015625)"/>
       <path id="DejaVuSans-64" d="M 2906 2969 
L 2906 4863 
L 3481 4863 
L 3481 0 
L 2906 0 
L 2906 525 
Q 2725 213 2448 61 
Q 2172 -91 1784 -91 
Q 1150 -91 751 415 
Q 353 922 353 1747 
Q 353 2572 751 3078 
Q 1150 3584 1784 3584 
Q 2172 3584 2448 3432 
Q 2725 3281 2906 2969 
z
M 947 1747 
Q 947 1113 1208 752 
Q 1469 391 1925 391 
Q 2381 391 2643 752 
Q 2906 1113 2906 1747 
Q 2906 2381 2643 2742 
Q 2381 3103 1925 3103 
Q 1469 3103 1208 2742 
Q 947 2381 947 1747 
z
" transform="scale(0.015625)"/>
       <path id="DejaVuSans-62" d="M 3116 1747 
Q 3116 2381 2855 2742 
Q 2594 3103 2138 3103 
Q 1681 3103 1420 2742 
Q 1159 2381 1159 1747 
Q 1159 1113 1420 752 
Q 1681 391 2138 391 
Q 2594 391 2855 752 
Q 3116 1113 3116 1747 
z
M 1159 2969 
Q 1341 3281 1617 3432 
Q 1894 3584 2278 3584 
Q 2916 3584 3314 3078 
Q 3713 2572 3713 1747 
Q 3713 922 3314 415 
Q 2916 -91 2278 -91 
Q 1894 -91 1617 61 
Q 1341 213 1159 525 
L 1159 0 
L 581 0 
L 581 4863 
L 1159 4863 
L 1159 2969 
z
" transform="scale(0.015625)"/>
       <path id="DejaVuSans-79" d="M 2059 -325 
Q 1816 -950 1584 -1140 
Q 1353 -1331 966 -1331 
L 506 -1331 
L 506 -850 
L 844 -850 
Q 1081 -850 1212 -737 
Q 1344 -625 1503 -206 
L 1606 56 
L 191 3500 
L 800 3500 
L 1894 763 
L 2988 3500 
L 3597 3500 
L 2059 -325 
z
" transform="scale(0.015625)"/>
       <path id="DejaVuSans-68" d="M 3513 2113 
L 3513 0 
L 2938 0 
L 2938 2094 
Q 2938 2591 2744 2837 
Q 2550 3084 2163 3084 
Q 1697 3084 1428 2787 
Q 1159 2491 1159 1978 
L 1159 0 
L 581 0 
L 581 4863 
L 1159 4863 
L 1159 2956 
Q 1366 3272 1645 3428 
Q 1925 3584 2291 3584 
Q 2894 3584 3203 3211 
Q 3513 2838 3513 2113 
z
" transform="scale(0.015625)"/>
       <path id="DejaVuSans-28" d="M 1984 4856 
Q 1566 4138 1362 3434 
Q 1159 2731 1159 2009 
Q 1159 1288 1364 580 
Q 1569 -128 1984 -844 
L 1484 -844 
Q 1016 -109 783 600 
Q 550 1309 550 2009 
Q 550 2706 781 3412 
Q 1013 4119 1484 4856 
L 1984 4856 
z
" transform="scale(0.015625)"/>
       <path id="DejaVuSans-4e" d="M 628 4666 
L 1478 4666 
L 3547 763 
L 3547 4666 
L 4159 4666 
L 4159 0 
L 3309 0 
L 1241 3903 
L 1241 0 
L 628 0 
L 628 4666 
z
" transform="scale(0.015625)"/>
       <path id="DejaVuSans-3d" d="M 678 2906 
L 4684 2906 
L 4684 2381 
L 678 2381 
L 678 2906 
z
M 678 1631 
L 4684 1631 
L 4684 1100 
L 678 1100 
L 678 1631 
z
" transform="scale(0.015625)"/>
       <path id="DejaVuSans-31" d="M 794 531 
L 1825 531 
L 1825 4091 
L 703 3866 
L 703 4441 
L 1819 4666 
L 2450 4666 
L 2450 531 
L 3481 531 
L 3481 0 
L 794 0 
L 794 531 
z
" transform="scale(0.015625)"/>
       <path id="DejaVuSans-34" d="M 2419 4116 
L 825 1625 
L 2419 1625 
L 2419 4116 
z
M 2253 4666 
L 3047 4666 
L 3047 1625 
L 3713 1625 
L 3713 1100 
L 3047 1100 
L 3047 0 
L 2419 0 
L 2419 1100 
L 313 1100 
L 313 1709 
L 2253 4666 
z
" transform="scale(0.015625)"/>
       <path id="DejaVuSans-32" d="M 1228 531 
L 3431 531 
L 3431 0 
L 469 0 
L 469 531 
Q 828 903 1448 1529 
Q 2069 2156 2228 2338 
Q 2531 2678 2651 2914 
Q 2772 3150 2772 3378 
Q 2772 3750 2511 3984 
Q 2250 4219 1831 4219 
Q 1534 4219 1204 4116 
Q 875 4013 500 3803 
L 500 4441 
Q 881 4594 1212 4672 
Q 1544 4750 1819 4750 
Q 2544 4750 2975 4387 
Q 3406 4025 3406 3419 
Q 3406 3131 3298 2873 
Q 3191 2616 2906 2266 
Q 2828 2175 2409 1742 
Q 1991 1309 1228 531 
z
" transform="scale(0.015625)"/>
       <path id="DejaVuSans-29" d="M 513 4856 
L 1013 4856 
Q 1481 4119 1714 3412 
Q 1947 2706 1947 2009 
Q 1947 1309 1714 600 
Q 1481 -109 1013 -844 
L 513 -844 
Q 928 -128 1133 580 
Q 1338 1288 1338 2009 
Q 1338 2731 1133 3434 
Q 928 4138 513 4856 
z
" transform="scale(0.015625)"/>
      </defs>
      <use xlink:href="#DejaVuSans-50"/>
      <use xlink:href="#DejaVuSans-61" transform="translate(55.802734 0)"/>
      <use xlink:href="#DejaVuSans-72" transform="translate(117.082031 0)"/>
      <use xlink:href="#DejaVuSans-74" transform="translate(158.195312 0)"/>
      <use xlink:href="#DejaVuSans-69" transform="translate(197.404297 0)"/>
      <use xlink:href="#DejaVuSans-65" transform="translate(225.1875 0)"/>
      <use xlink:href="#DejaVuSans-73" transform="translate(286.710938 0)"/>
      <use xlink:href="#DejaVuSans-20" transform="translate(338.810547 0)"/>
      <use xlink:href="#DejaVuSans-72" transform="translate(370.597656 0)"/>
      <use xlink:href="#DejaVuSans-61" transform="translate(411.710938 0)"/>
      <use xlink:href="#DejaVuSans-6e" transform="translate(472.990234 0)"/>
      <use xlink:href="#DejaVuSans-6b" transform="translate(536.369141 0)"/>
      <use xlink:href="#DejaVuSans-65" transform="translate(590.654297 0)"/>
      <use xlink:href="#DejaVuSans-64" transform="translate(652.177734 0)"/>
      <use xlink:href="#DejaVuSans-20" transform="translate(715.654297 0)"/>
      <use xlink:href="#DejaVuSans-62" transform="translate(747.441406 0)"/>
      <use xlink:href="#DejaVuSans-79" transform="translate(810.917969 0)"/>
      <use xlink:href="#DejaVuSans-20" transform="translate(870.097656 0)"/>
      <use xlink:href="#DejaVuSans-73" transform="translate(901.884766 0)"/>
      <use xlink:href="#DejaVuSans-68" transform="translate(953.984375 0)"/>
      <use xlink:href="#DejaVuSans-61" transform="translate(1017.363281 0)"/>
      <use xlink:href="#DejaVuSans-72" transform="translate(1078.642578 0)"/>
      <use xlink:href="#DejaVuSans-65" transform="translate(1117.505859 0)"/>
      <use xlink:href="#DejaVuSans-20" transform="translate(1179.029297 0)"/>
      <use xlink:href="#DejaVuSans-28" transform="translate(1210.816406 0)"/>
      <use xlink:href="#DejaVuSans-4e" transform="translate(1249.830078 0)"/>
      <use xlink:href="#DejaVuSans-3d" transform="translate(1324.634766 0)"/>
      <use xlink:href="#DejaVuSans-31" transform="translate(1408.423828 0)"/>
      <use xlink:href="#DejaVuSans-34" transform="translate(1472.046875 0)"/>
      <use xlink:href="#DejaVuSans-32" transform="translate(1535.669922 0)"/>
      <use xlink:href="#DejaVuSans-29" transform="translate(1599.292969 0)"/>
     </g>
    </g>
   </g>
   <g id="matplotlib.axis_2">
    <g id="ytick_1">
     <g id="line2d_1">
      <path d="M 44.749063 330.179125 
L 993.509063 330.179125 
" clip-path="url(#p62b8daad21)" style="fill: none; stroke: #b0b0b0; stroke-opacity: 0.3; stroke-width: 0.8; stroke-linecap: square"/>
     </g>
     <g id="line2d_2">
      <defs>
       <path id="mf40ac7f657" d="M 0 0 
L -3.5 0 
" style="stroke: #000000; stroke-width: 0.8"/>
      </defs>
      <g>
       <use xlink:href="#mf40ac7f657" x="44.749063" y="330.179125" style="stroke: #000000; stroke-width: 0.8"/>
      </g>
     </g>
     <g id="text_2">
      <!-- 0.0 -->
      <g transform="translate(21.845938 333.978344) scale(0.1 -0.1)">
       <defs>
        <path id="DejaVuSans-30" d="M 2034 4250 
Q 1547 4250 1301 3770 
Q 1056 3291 1056 2328 
Q 1056 1369 1301 889 
Q 1547 409 2034 409 
Q 2525 409 2770 889 
Q 3016 1369 3016 2328 
Q 3016 3291 2770 3770 
Q 2525 4250 2034 4250 
z
M 2034 4750 
Q 2819 4750 3233 4129 
Q 3647 3509 3647 2328 
Q 3647 1150 3233 529 
Q 2819 -91 2034 -91 
Q 1250 -91 836 529 
Q 422 1150 422 2328 
Q 422 3509 836 4129 
Q 1250 4750 2034 4750 
z
" transform="scale(0.015625)"/>
        <path id="DejaVuSans-2e" d="M 684 794 
L 1344 794 
L 1344 0 
L 684 0 
L 684 794 
z
" transform="scale(0.015625)"/>
       </defs>
       <use xlink:href="#DejaVuSans-30"/>
       <use xlink:href="#DejaVuSans-2e" transform="translate(63.623047 0)"/>
       <use xlink:href="#DejaVuSans-30" transform="translate(95.410156 0)"/>
      </g>
     </g>
    </g>
    <g id="ytick_2">
     <g id="line2d_3">
      <path d="M 44.749063 270.244 
L 993.509063 270.244 
" clip-path="url(#p62b8daad21)" style="fill: none; stroke: #b0b0b0; stroke-opacity: 0.3; stroke-width: 0.8; stroke-linecap: square"/>
     </g>
     <g id="line2d_4">
      <g>
       <use xlink:href="#mf40ac7f657" x="44.749063" y="270.244" style="stroke: #000000; stroke-width: 0.8"/>
      </g>
     </g>
     <g id="text_3">
      <!-- 0.5 -->
      <g transform="translate(21.845938 274.043219) scale(0.1 -0.1)">
       <defs>
        <path id="DejaVuSans-35" d="M 691 4666 
L 3169 4666 
L 3169 4134 
L 1269 4134 
L 1269 2991 
Q 1406 3038 1543 3061 
Q 1681 3084 1819 3084 
Q 2600 3084 3056 2656 
Q 3513 2228 3513 1497 
Q 3513 744 3044 326 
Q 2575 -91 1722 -91 
Q 1428 -91 1123 -41 
Q 819 9 494 109 
L 494 744 
Q 775 591 1075 516 
Q 1375 441 1709 441 
Q 2250 441 2565 725 
Q 2881 1009 2881 1497 
Q 2881 1984 2565 2268 
Q 2250 2553 1709 2553 
Q 1456 2553 1204 2497 
Q 953 2441 691 2322 
L 691 4666 
z
" transform="scale(0.015625)"/>
       </defs>
       <use xlink:href="#DejaVuSans-30"/>
       <use xlink:href="#DejaVuSans-2e" transform="translate(63.623047 0)"/>
       <use xlink:href="#DejaVuSans-35" transform="translate(95.410156 0)"/>
      </g>
     </g>
    </g>
    <g id="ytick_3">
     <g id="line2d_5">
      <path d="M 44.749063 210.308876 
L 993.509063 210.308876 
" clip-path="url(#p62b8daad21)" style="fill: none; stroke: #b0b0b0; stroke-opacity: 0.3; stroke-width: 0.8; stroke-linecap: square"/>
     </g>
     <g id="line2d_6">
      <g>
       <use xlink:href="#mf40ac7f657" x="44.749063" y="210.308876" style="stroke: #000000; stroke-width: 0.8"/>
      </g>
     </g>
     <g id="text_4">
      <!-- 1.0 -->
      <g transform="translate(21.845938 214.108095) scale(0.1 -0.1)">
       <use xlink:href="#DejaVuSans-31"/>
       <use xlink:href="#DejaVuSans-2e" transform="translate(63.623047 0)"/>
       <use xlink:href="#DejaVuSans-30" transform="translate(95.410156 0)"/>
      </g>
     </g>
    </g>
    <g id="ytick_4">
     <g id="line2d_7">
      <path d="M 44.749063 150.373751 
L 993.509063 150.373751 
" clip-path="url(#p62b8daad21)" style="fill: none; stroke: #b0b0b0; stroke-opacity: 0.3; stroke-width: 0.8; stroke-linecap: square"/>
     </g>
     <g id="line2d_8">
      <g>
       <use xlink:href="#mf40ac7f657" x="44.749063" y="150.373751" style="stroke: #000000; stroke-width: 0.8"/>
      </g>
     </g>
     <g id="text_5">
      <!-- 1.5 -->
      <g transform="translate(21.845938 154.17297) scale(0.1 -0.1)">
       <use xlink:href="#DejaVuSans-31"/>
       <use xlink:href="#DejaVuSans-2e" transform="translate(63.623047 0)"/>
       <use xlink:href="#DejaVuSans-35" transform="translate(95.410156 0)"/>
      </g>
     </g>
    </g>
    <g id="ytick_5">
     <g id="line2d_9">
      <path d="M 44.749063 90.438627 
L 993.509063 90.438627 
" clip-path="url(#p62b8daad21)" style="fill: none; stroke: #b0b0b0; stroke-opacity: 0.3; stroke-width: 0.8; stroke-linecap: square"/>
     </g>
     <g id="line2d_10">
      <g>
       <use xlink:href="#mf40ac7f657" x="44.749063" y="90.438627" style="stroke: #000000; stroke-width: 0.8"/>
      </g>
     </g>
     <g id="text_6">
      <!-- 2.0 -->
      <g transform="translate(21.845938 94.237846) scale(0.1 -0.1)">
       <use xlink:href="#DejaVuSans-32"/>
       <use xlink:href="#DejaVuSans-2e" transform="translate(63.623047 0)"/>
       <use xlink:href="#DejaVuSans-30" transform="translate(95.410156 0)"/>
      </g>
     </g>
    </g>
    <g id="text_7">
     <!-- IUSAF Share (%) -->
     <g transform="translate(15.558281 228.958141) rotate(-90) scale(0.11 -0.11)">
      <defs>
       <path id="DejaVuSans-49" d="M 628 4666 
L 1259 4666 
L 1259 0 
L 628 0 
L 628 4666 
z
" transform="scale(0.015625)"/>
       <path id="DejaVuSans-55" d="M 556 4666 
L 1191 4666 
L 1191 1831 
Q 1191 1081 1462 751 
Q 1734 422 2344 422 
Q 2950 422 3222 751 
Q 3494 1081 3494 1831 
L 3494 4666 
L 4128 4666 
L 4128 1753 
Q 4128 841 3676 375 
Q 3225 -91 2344 -91 
Q 1459 -91 1007 375 
Q 556 841 556 1753 
L 556 4666 
z
" transform="scale(0.015625)"/>
       <path id="DejaVuSans-53" d="M 3425 4513 
L 3425 3897 
Q 3066 4069 2747 4153 
Q 2428 4238 2131 4238 
Q 1616 4238 1336 4038 
Q 1056 3838 1056 3469 
Q 1056 3159 1242 3001 
Q 1428 2844 1947 2747 
L 2328 2669 
Q 3034 2534 3370 2195 
Q 3706 1856 3706 1288 
Q 3706 609 3251 259 
Q 2797 -91 1919 -91 
Q 1588 -91 1214 -16 
Q 841 59 441 206 
L 441 856 
Q 825 641 1194 531 
Q 1563 422 1919 422 
Q 2459 422 2753 634 
Q 3047 847 3047 1241 
Q 3047 1584 2836 1778 
Q 2625 1972 2144 2069 
L 1759 2144 
Q 1053 2284 737 2584 
Q 422 2884 422 3419 
Q 422 4038 858 4394 
Q 1294 4750 2059 4750 
Q 2388 4750 2728 4690 
Q 3069 4631 3425 4513 
z
" transform="scale(0.015625)"/>
       <path id="DejaVuSans-41" d="M 2188 4044 
L 1331 1722 
L 3047 1722 
L 2188 4044 
z
M 1831 4666 
L 2547 4666 
L 4325 0 
L 3669 0 
L 3244 1197 
L 1141 1197 
L 716 0 
L 50 0 
L 1831 4666 
z
" transform="scale(0.015625)"/>
       <path id="DejaVuSans-46" d="M 628 4666 
L 3309 4666 
L 3309 4134 
L 1259 4134 
L 1259 2759 
L 3109 2759 
L 3109 2228 
L 1259 2228 
L 1259 0 
L 628 0 
L 628 4666 
z
" transform="scale(0.015625)"/>
       <path id="DejaVuSans-25" d="M 4653 2053 
Q 4381 2053 4226 1822 
Q 4072 1591 4072 1178 
Q 4072 772 4226 539 
Q 4381 306 4653 306 
Q 4919 306 5073 539 
Q 5228 772 5228 1178 
Q 5228 1588 5073 1820 
Q 4919 2053 4653 2053 
z
M 4653 2450 
Q 5147 2450 5437 2106 
Q 5728 1763 5728 1178 
Q 5728 594 5436 251 
Q 5144 -91 4653 -91 
Q 4153 -91 3862 251 
Q 3572 594 3572 1178 
Q 3572 1766 3864 2108 
Q 4156 2450 4653 2450 
z
M 1428 4353 
Q 1159 4353 1004 4120 
Q 850 3888 850 3481 
Q 850 3069 1003 2837 
Q 1156 2606 1428 2606 
Q 1700 2606 1854 2837 
Q 2009 3069 2009 3481 
Q 2009 3884 1853 4118 
Q 1697 4353 1428 4353 
z
M 4250 4750 
L 4750 4750 
L 1831 -91 
L 1331 -91 
L 4250 4750 
z
M 1428 4750 
Q 1922 4750 2215 4408 
Q 2509 4066 2509 3481 
Q 2509 2891 2217 2550 
Q 1925 2209 1428 2209 
Q 931 2209 642 2551 
Q 353 2894 353 3481 
Q 353 4063 643 4406 
Q 934 4750 1428 4750 
z
" transform="scale(0.015625)"/>
      </defs>
      <use xlink:href="#DejaVuSans-49"/>
      <use xlink:href="#DejaVuSans-55" transform="translate(29.492188 0)"/>
      <use xlink:href="#DejaVuSans-53" transform="translate(102.685547 0)"/>
      <use xlink:href="#DejaVuSans-41" transform="translate(168.037109 0)"/>
      <use xlink:href="#DejaVuSans-46" transform="translate(236.445312 0)"/>
      <use xlink:href="#DejaVuSans-20" transform="translate(293.964844 0)"/>
      <use xlink:href="#DejaVuSans-53" transform="translate(325.751953 0)"/>
      <use xlink:href="#DejaVuSans-68" transform="translate(389.228516 0)"/>
      <use xlink:href="#DejaVuSans-61" transform="translate(452.607422 0)"/>
      <use xlink:href="#DejaVuSans-72" transform="translate(513.886719 0)"/>
      <use xlink:href="#DejaVuSans-65" transform="translate(552.75 0)"/>
      <use xlink:href="#DejaVuSans-20" transform="translate(614.273438 0)"/>
      <use xlink:href="#DejaVuSans-28" transform="translate(646.060547 0)"/>
      <use xlink:href="#DejaVuSans-25" transform="translate(685.074219 0)"/>
      <use xlink:href="#DejaVuSans-29" transform="translate(780.09375 0)"/>
     </g>
    </g>
   </g>
   <g id="patch_145">
    <path d="M 44.749063 330.179125 
L 44.749063 37.635125 
" style="fill: none; stroke: #000000; stroke-width: 0.8; stroke-linejoin: miter; stroke-linecap: square"/>
   </g>
   <g id="patch_146">
    <path d="M 993.509063 330.179125 
L 993.509063 37.635125 
" style="fill: none; stroke: #000000; stroke-width: 0.8; stroke-linejoin: miter; stroke-linecap: square"/>
   </g>
   <g id="patch_147">
    <path d="M 44.749063 330.179125 
L 993.509063 330.179125 
" style="fill: none; stroke: #000000; stroke-width: 0.8; stroke-linejoin: miter; stroke-linecap: square"/>
   </g>
   <g id="patch_148">
    <path d="M 44.749063 37.635125 
L 993.509063 37.635125 
" style="fill: none; stroke: #000000; stroke-width: 0.8; stroke-linejoin: miter; stroke-linecap: square"/>
   </g>
   <g id="text_8">
    <!-- Inverted UN Scale (IUSAF) Shares — Raw Inversion (2027) -->
    <g transform="translate(306.703984 17.077969) scale(0.13 -0.13)">
     <defs>
      <path id="DejaVuSans-Bold-49" d="M 588 4666 
L 1791 4666 
L 1791 0 
L 588 0 
L 588 4666 
z
" transform="scale(0.015625)"/>
      <path id="DejaVuSans-Bold-6e" d="M 4056 2131 
L 4056 0 
L 2931 0 
L 2931 347 
L 2931 1631 
Q 2931 2084 2911 2256 
Q 2891 2428 2841 2509 
Q 2775 2619 2662 2680 
Q 2550 2741 2406 2741 
Q 2056 2741 1856 2470 
Q 1656 2200 1656 1722 
L 1656 0 
L 538 0 
L 538 3500 
L 1656 3500 
L 1656 2988 
Q 1909 3294 2193 3439 
Q 2478 3584 2822 3584 
Q 3428 3584 3742 3212 
Q 4056 2841 4056 2131 
z
" transform="scale(0.015625)"/>
      <path id="DejaVuSans-Bold-76" d="M 97 3500 
L 1216 3500 
L 2088 1081 
L 2956 3500 
L 4078 3500 
L 2700 0 
L 1472 0 
L 97 3500 
z
" transform="scale(0.015625)"/>
      <path id="DejaVuSans-Bold-65" d="M 4031 1759 
L 4031 1441 
L 1416 1441 
Q 1456 1047 1700 850 
Q 1944 653 2381 653 
Q 2734 653 3104 758 
Q 3475 863 3866 1075 
L 3866 213 
Q 3469 63 3072 -14 
Q 2675 -91 2278 -91 
Q 1328 -91 801 392 
Q 275 875 275 1747 
Q 275 2603 792 3093 
Q 1309 3584 2216 3584 
Q 3041 3584 3536 3087 
Q 4031 2591 4031 1759 
z
M 2881 2131 
Q 2881 2450 2695 2645 
Q 2509 2841 2209 2841 
Q 1884 2841 1681 2658 
Q 1478 2475 1428 2131 
L 2881 2131 
z
" transform="scale(0.015625)"/>
      <path id="DejaVuSans-Bold-72" d="M 3138 2547 
Q 2991 2616 2845 2648 
Q 2700 2681 2553 2681 
Q 2122 2681 1889 2404 
Q 1656 2128 1656 1613 
L 1656 0 
L 538 0 
L 538 3500 
L 1656 3500 
L 1656 2925 
Q 1872 3269 2151 3426 
Q 2431 3584 2822 3584 
Q 2878 3584 2943 3579 
Q 3009 3575 3134 3559 
L 3138 2547 
z
" transform="scale(0.015625)"/>
      <path id="DejaVuSans-Bold-74" d="M 1759 4494 
L 1759 3500 
L 2913 3500 
L 2913 2700 
L 1759 2700 
L 1759 1216 
Q 1759 972 1856 886 
Q 1953 800 2241 800 
L 2816 800 
L 2816 0 
L 1856 0 
Q 1194 0 917 276 
Q 641 553 641 1216 
L 641 2700 
L 84 2700 
L 84 3500 
L 641 3500 
L 641 4494 
L 1759 4494 
z
" transform="scale(0.015625)"/>
      <path id="DejaVuSans-Bold-64" d="M 2919 2988 
L 2919 4863 
L 4044 4863 
L 4044 0 
L 2919 0 
L 2919 506 
Q 2688 197 2409 53 
Q 2131 -91 1766 -91 
Q 1119 -91 703 423 
Q 288 938 288 1747 
Q 288 2556 703 3070 
Q 1119 3584 1766 3584 
Q 2128 3584 2408 3439 
Q 2688 3294 2919 2988 
z
M 2181 722 
Q 2541 722 2730 984 
Q 2919 1247 2919 1747 
Q 2919 2247 2730 2509 
Q 2541 2772 2181 2772 
Q 1825 2772 1636 2509 
Q 1447 2247 1447 1747 
Q 1447 1247 1636 984 
Q 1825 722 2181 722 
z
" transform="scale(0.015625)"/>
      <path id="DejaVuSans-Bold-20" transform="scale(0.015625)"/>
      <path id="DejaVuSans-Bold-55" d="M 588 4666 
L 1791 4666 
L 1791 1869 
Q 1791 1291 1980 1042 
Q 2169 794 2597 794 
Q 3028 794 3217 1042 
Q 3406 1291 3406 1869 
L 3406 4666 
L 4609 4666 
L 4609 1869 
Q 4609 878 4112 393 
Q 3616 -91 2597 -91 
Q 1581 -91 1084 393 
Q 588 878 588 1869 
L 588 4666 
z
" transform="scale(0.015625)"/>
      <path id="DejaVuSans-Bold-4e" d="M 588 4666 
L 1931 4666 
L 3628 1466 
L 3628 4666 
L 4769 4666 
L 4769 0 
L 3425 0 
L 1728 3200 
L 1728 0 
L 588 0 
L 588 4666 
z
" transform="scale(0.015625)"/>
      <path id="DejaVuSans-Bold-53" d="M 3834 4519 
L 3834 3531 
Q 3450 3703 3084 3790 
Q 2719 3878 2394 3878 
Q 1963 3878 1756 3759 
Q 1550 3641 1550 3391 
Q 1550 3203 1689 3098 
Q 1828 2994 2194 2919 
L 2706 2816 
Q 3484 2659 3812 2340 
Q 4141 2022 4141 1434 
Q 4141 663 3683 286 
Q 3225 -91 2284 -91 
Q 1841 -91 1394 -6 
Q 947 78 500 244 
L 500 1259 
Q 947 1022 1364 901 
Q 1781 781 2169 781 
Q 2563 781 2772 912 
Q 2981 1044 2981 1288 
Q 2981 1506 2839 1625 
Q 2697 1744 2272 1838 
L 1806 1941 
Q 1106 2091 782 2419 
Q 459 2747 459 3303 
Q 459 4000 909 4375 
Q 1359 4750 2203 4750 
Q 2588 4750 2994 4692 
Q 3400 4634 3834 4519 
z
" transform="scale(0.015625)"/>
      <path id="DejaVuSans-Bold-63" d="M 3366 3391 
L 3366 2478 
Q 3138 2634 2908 2709 
Q 2678 2784 2431 2784 
Q 1963 2784 1702 2511 
Q 1441 2238 1441 1747 
Q 1441 1256 1702 982 
Q 1963 709 2431 709 
Q 2694 709 2930 787 
Q 3166 866 3366 1019 
L 3366 103 
Q 3103 6 2833 -42 
Q 2563 -91 2291 -91 
Q 1344 -91 809 395 
Q 275 881 275 1747 
Q 275 2613 809 3098 
Q 1344 3584 2291 3584 
Q 2566 3584 2833 3536 
Q 3100 3488 3366 3391 
z
" transform="scale(0.015625)"/>
      <path id="DejaVuSans-Bold-61" d="M 2106 1575 
Q 1756 1575 1579 1456 
Q 1403 1338 1403 1106 
Q 1403 894 1545 773 
Q 1688 653 1941 653 
Q 2256 653 2472 879 
Q 2688 1106 2688 1447 
L 2688 1575 
L 2106 1575 
z
M 3816 1997 
L 3816 0 
L 2688 0 
L 2688 519 
Q 2463 200 2181 54 
Q 1900 -91 1497 -91 
Q 953 -91 614 226 
Q 275 544 275 1050 
Q 275 1666 698 1953 
Q 1122 2241 2028 2241 
L 2688 2241 
L 2688 2328 
Q 2688 2594 2478 2717 
Q 2269 2841 1825 2841 
Q 1466 2841 1156 2769 
Q 847 2697 581 2553 
L 581 3406 
Q 941 3494 1303 3539 
Q 1666 3584 2028 3584 
Q 2975 3584 3395 3211 
Q 3816 2838 3816 1997 
z
" transform="scale(0.015625)"/>
      <path id="DejaVuSans-Bold-6c" d="M 538 4863 
L 1656 4863 
L 1656 0 
L 538 0 
L 538 4863 
z
" transform="scale(0.015625)"/>
      <path id="DejaVuSans-Bold-28" d="M 2413 -844 
L 1484 -844 
Q 1006 -72 778 623 
Q 550 1319 550 2003 
Q 550 2688 779 3389 
Q 1009 4091 1484 4856 
L 2413 4856 
Q 2013 4116 1813 3408 
Q 1613 2700 1613 2009 
Q 1613 1319 1811 609 
Q 2009 -100 2413 -844 
z
" transform="scale(0.015625)"/>
      <path id="DejaVuSans-Bold-41" d="M 3419 850 
L 1538 850 
L 1241 0 
L 31 0 
L 1759 4666 
L 3194 4666 
L 4922 0 
L 3713 0 
L 3419 850 
z
M 1838 1716 
L 3116 1716 
L 2478 3572 
L 1838 1716 
z
" transform="scale(0.015625)"/>
      <path id="DejaVuSans-Bold-46" d="M 588 4666 
L 3834 4666 
L 3834 3756 
L 1791 3756 
L 1791 2888 
L 3713 2888 
L 3713 1978 
L 1791 1978 
L 1791 0 
L 588 0 
L 588 4666 
z
" transform="scale(0.015625)"/>
      <path id="DejaVuSans-Bold-29" d="M 513 -844 
Q 913 -100 1113 609 
Q 1313 1319 1313 2009 
Q 1313 2700 1113 3408 
Q 913 4116 513 4856 
L 1441 4856 
Q 1916 4091 2145 3389 
Q 2375 2688 2375 2003 
Q 2375 1319 2147 623 
Q 1919 -72 1441 -844 
L 513 -844 
z
" transform="scale(0.015625)"/>
      <path id="DejaVuSans-Bold-68" d="M 4056 2131 
L 4056 0 
L 2931 0 
L 2931 347 
L 2931 1625 
Q 2931 2084 2911 2256 
Q 2891 2428 2841 2509 
Q 2775 2619 2662 2680 
Q 2550 2741 2406 2741 
Q 2056 2741 1856 2470 
Q 1656 2200 1656 1722 
L 1656 0 
L 538 0 
L 538 4863 
L 1656 4863 
L 1656 2988 
Q 1909 3294 2193 3439 
Q 2478 3584 2822 3584 
Q 3428 3584 3742 3212 
Q 4056 2841 4056 2131 
z
" transform="scale(0.015625)"/>
      <path id="DejaVuSans-Bold-73" d="M 3272 3391 
L 3272 2541 
Q 2913 2691 2578 2766 
Q 2244 2841 1947 2841 
Q 1628 2841 1473 2761 
Q 1319 2681 1319 2516 
Q 1319 2381 1436 2309 
Q 1553 2238 1856 2203 
L 2053 2175 
Q 2913 2066 3209 1816 
Q 3506 1566 3506 1031 
Q 3506 472 3093 190 
Q 2681 -91 1863 -91 
Q 1516 -91 1145 -36 
Q 775 19 384 128 
L 384 978 
Q 719 816 1070 734 
Q 1422 653 1784 653 
Q 2113 653 2278 743 
Q 2444 834 2444 1013 
Q 2444 1163 2330 1236 
Q 2216 1309 1875 1350 
L 1678 1375 
Q 931 1469 631 1722 
Q 331 1975 331 2491 
Q 331 3047 712 3315 
Q 1094 3584 1881 3584 
Q 2191 3584 2531 3537 
Q 2872 3491 3272 3391 
z
" transform="scale(0.015625)"/>
      <path id="DejaVuSans-Bold-2014" d="M 344 2156 
L 6056 2156 
L 6056 1350 
L 344 1350 
L 344 2156 
z
" transform="scale(0.015625)"/>
      <path id="DejaVuSans-Bold-52" d="M 2297 2597 
Q 2675 2597 2839 2737 
Q 3003 2878 3003 3200 
Q 3003 3519 2839 3656 
Q 2675 3794 2297 3794 
L 1791 3794 
L 1791 2597 
L 2297 2597 
z
M 1791 1766 
L 1791 0 
L 588 0 
L 588 4666 
L 2425 4666 
Q 3347 4666 3776 4356 
Q 4206 4047 4206 3378 
Q 4206 2916 3982 2619 
Q 3759 2322 3309 2181 
Q 3556 2125 3751 1926 
Q 3947 1728 4147 1325 
L 4800 0 
L 3519 0 
L 2950 1159 
Q 2778 1509 2601 1637 
Q 2425 1766 2131 1766 
L 1791 1766 
z
" transform="scale(0.015625)"/>
      <path id="DejaVuSans-Bold-77" d="M 225 3500 
L 1313 3500 
L 1900 1088 
L 2491 3500 
L 3425 3500 
L 4013 1113 
L 4603 3500 
L 5691 3500 
L 4769 0 
L 3547 0 
L 2956 2406 
L 2369 0 
L 1147 0 
L 225 3500 
z
" transform="scale(0.015625)"/>
      <path id="DejaVuSans-Bold-69" d="M 538 3500 
L 1656 3500 
L 1656 0 
L 538 0 
L 538 3500 
z
M 538 4863 
L 1656 4863 
L 1656 3950 
L 538 3950 
L 538 4863 
z
" transform="scale(0.015625)"/>
      <path id="DejaVuSans-Bold-6f" d="M 2203 2784 
Q 1831 2784 1636 2517 
Q 1441 2250 1441 1747 
Q 1441 1244 1636 976 
Q 1831 709 2203 709 
Q 2569 709 2762 976 
Q 2956 1244 2956 1747 
Q 2956 2250 2762 2517 
Q 2569 2784 2203 2784 
z
M 2203 3584 
Q 3106 3584 3614 3096 
Q 4122 2609 4122 1747 
Q 4122 884 3614 396 
Q 3106 -91 2203 -91 
Q 1297 -91 786 396 
Q 275 884 275 1747 
Q 275 2609 786 3096 
Q 1297 3584 2203 3584 
z
" transform="scale(0.015625)"/>
      <path id="DejaVuSans-Bold-32" d="M 1844 884 
L 3897 884 
L 3897 0 
L 506 0 
L 506 884 
L 2209 2388 
Q 2438 2594 2547 2791 
Q 2656 2988 2656 3200 
Q 2656 3528 2436 3728 
Q 2216 3928 1850 3928 
Q 1569 3928 1234 3808 
Q 900 3688 519 3450 
L 519 4475 
Q 925 4609 1322 4679 
Q 1719 4750 2100 4750 
Q 2938 4750 3402 4381 
Q 3866 4013 3866 3353 
Q 3866 2972 3669 2642 
Q 3472 2313 2841 1759 
L 1844 884 
z
" transform="scale(0.015625)"/>
      <path id="DejaVuSans-Bold-30" d="M 2944 2338 
Q 2944 3213 2780 3570 
Q 2616 3928 2228 3928 
Q 1841 3928 1675 3570 
Q 1509 3213 1509 2338 
Q 1509 1453 1675 1090 
Q 1841 728 2228 728 
Q 2613 728 2778 1090 
Q 2944 1453 2944 2338 
z
M 4147 2328 
Q 4147 1169 3647 539 
Q 3147 -91 2228 -91 
Q 1306 -91 806 539 
Q 306 1169 306 2328 
Q 306 3491 806 4120 
Q 1306 4750 2228 4750 
Q 3147 4750 3647 4120 
Q 4147 3491 4147 2328 
z
" transform="scale(0.015625)"/>
      <path id="DejaVuSans-Bold-37" d="M 428 4666 
L 3944 4666 
L 3944 3988 
L 2125 0 
L 953 0 
L 2675 3781 
L 428 3781 
L 428 4666 
z
" transform="scale(0.015625)"/>
     </defs>
     <use xlink:href="#DejaVuSans-Bold-49"/>
     <use xlink:href="#DejaVuSans-Bold-6e" transform="translate(37.207031 0)"/>
     <use xlink:href="#DejaVuSans-Bold-76" transform="translate(108.398438 0)"/>
     <use xlink:href="#DejaVuSans-Bold-65" transform="translate(173.583984 0)"/>
     <use xlink:href="#DejaVuSans-Bold-72" transform="translate(241.40625 0)"/>
     <use xlink:href="#DejaVuSans-Bold-74" transform="translate(290.722656 0)"/>
     <use xlink:href="#DejaVuSans-Bold-65" transform="translate(338.525391 0)"/>
     <use xlink:href="#DejaVuSans-Bold-64" transform="translate(406.347656 0)"/>
     <use xlink:href="#DejaVuSans-Bold-20" transform="translate(477.929688 0)"/>
     <use xlink:href="#DejaVuSans-Bold-55" transform="translate(512.744141 0)"/>
     <use xlink:href="#DejaVuSans-Bold-4e" transform="translate(593.945312 0)"/>
     <use xlink:href="#DejaVuSans-Bold-20" transform="translate(677.636719 0)"/>
     <use xlink:href="#DejaVuSans-Bold-53" transform="translate(712.451172 0)"/>
     <use xlink:href="#DejaVuSans-Bold-63" transform="translate(784.472656 0)"/>
     <use xlink:href="#DejaVuSans-Bold-61" transform="translate(843.75 0)"/>
     <use xlink:href="#DejaVuSans-Bold-6c" transform="translate(911.230469 0)"/>
     <use xlink:href="#DejaVuSans-Bold-65" transform="translate(945.507812 0)"/>
     <use xlink:href="#DejaVuSans-Bold-20" transform="translate(1013.330078 0)"/>
     <use xlink:href="#DejaVuSans-Bold-28" transform="translate(1048.144531 0)"/>
     <use xlink:href="#DejaVuSans-Bold-49" transform="translate(1093.847656 0)"/>
     <use xlink:href="#DejaVuSans-Bold-55" transform="translate(1131.054688 0)"/>
     <use xlink:href="#DejaVuSans-Bold-53" transform="translate(1212.255859 0)"/>
     <use xlink:href="#DejaVuSans-Bold-41" transform="translate(1284.277344 0)"/>
     <use xlink:href="#DejaVuSans-Bold-46" transform="translate(1361.669922 0)"/>
     <use xlink:href="#DejaVuSans-Bold-29" transform="translate(1429.980469 0)"/>
     <use xlink:href="#DejaVuSans-Bold-20" transform="translate(1475.683594 0)"/>
     <use xlink:href="#DejaVuSans-Bold-53" transform="translate(1510.498047 0)"/>
     <use xlink:href="#DejaVuSans-Bold-68" transform="translate(1582.519531 0)"/>
     <use xlink:href="#DejaVuSans-Bold-61" transform="translate(1653.710938 0)"/>
     <use xlink:href="#DejaVuSans-Bold-72" transform="translate(1721.191406 0)"/>
     <use xlink:href="#DejaVuSans-Bold-65" transform="translate(1770.507812 0)"/>
     <use xlink:href="#DejaVuSans-Bold-73" transform="translate(1838.330078 0)"/>
     <use xlink:href="#DejaVuSans-Bold-20" transform="translate(1897.851562 0)"/>
     <use xlink:href="#DejaVuSans-Bold-2014" transform="translate(1932.666016 0)"/>
     <use xlink:href="#DejaVuSans-Bold-20" transform="translate(2032.666016 0)"/>
     <use xlink:href="#DejaVuSans-Bold-52" transform="translate(2067.480469 0)"/>
     <use xlink:href="#DejaVuSans-Bold-61" transform="translate(2144.482422 0)"/>
     <use xlink:href="#DejaVuSans-Bold-77" transform="translate(2211.962891 0)"/>
     <use xlink:href="#DejaVuSans-Bold-20" transform="translate(2304.345703 0)"/>
     <use xlink:href="#DejaVuSans-Bold-49" transform="translate(2339.160156 0)"/>
     <use xlink:href="#DejaVuSans-Bold-6e" transform="translate(2376.367188 0)"/>
     <use xlink:href="#DejaVuSans-Bold-76" transform="translate(2447.558594 0)"/>
     <use xlink:href="#DejaVuSans-Bold-65" transform="translate(2512.744141 0)"/>
     <use xlink:href="#DejaVuSans-Bold-72" transform="translate(2580.566406 0)"/>
     <use xlink:href="#DejaVuSans-Bold-73" transform="translate(2629.882812 0)"/>
     <use xlink:href="#DejaVuSans-Bold-69" transform="translate(2689.404297 0)"/>
     <use xlink:href="#DejaVuSans-Bold-6f" transform="translate(2723.681641 0)"/>
     <use xlink:href="#DejaVuSans-Bold-6e" transform="translate(2792.382812 0)"/>
     <use xlink:href="#DejaVuSans-Bold-20" transform="translate(2863.574219 0)"/>
     <use xlink:href="#DejaVuSans-Bold-28" transform="translate(2898.388672 0)"/>
     <use xlink:href="#DejaVuSans-Bold-32" transform="translate(2944.091797 0)"/>
     <use xlink:href="#DejaVuSans-Bold-30" transform="translate(3013.671875 0)"/>
     <use xlink:href="#DejaVuSans-Bold-32" transform="translate(3083.251953 0)"/>
     <use xlink:href="#DejaVuSans-Bold-37" transform="translate(3152.832031 0)"/>
     <use xlink:href="#DejaVuSans-Bold-29" transform="translate(3222.412109 0)"/>
    </g>
    <!-- CBD Parties (High income excluded, SIDS preserved) -->
    <g transform="translate(325.670781 31.635125) scale(0.13 -0.13)">
     <defs>
      <path id="DejaVuSans-Bold-43" d="M 4288 256 
Q 3956 84 3597 -3 
Q 3238 -91 2847 -91 
Q 1681 -91 1000 561 
Q 319 1213 319 2328 
Q 319 3447 1000 4098 
Q 1681 4750 2847 4750 
Q 3238 4750 3597 4662 
Q 3956 4575 4288 4403 
L 4288 3438 
Q 3953 3666 3628 3772 
Q 3303 3878 2944 3878 
Q 2300 3878 1931 3465 
Q 1563 3053 1563 2328 
Q 1563 1606 1931 1193 
Q 2300 781 2944 781 
Q 3303 781 3628 887 
Q 3953 994 4288 1222 
L 4288 256 
z
" transform="scale(0.015625)"/>
      <path id="DejaVuSans-Bold-42" d="M 2456 2859 
Q 2741 2859 2887 2984 
Q 3034 3109 3034 3353 
Q 3034 3594 2887 3720 
Q 2741 3847 2456 3847 
L 1791 3847 
L 1791 2859 
L 2456 2859 
z
M 2497 819 
Q 2859 819 3042 972 
Q 3225 1125 3225 1434 
Q 3225 1738 3044 1889 
Q 2863 2041 2497 2041 
L 1791 2041 
L 1791 819 
L 2497 819 
z
M 3616 2497 
Q 4003 2384 4215 2081 
Q 4428 1778 4428 1338 
Q 4428 663 3972 331 
Q 3516 0 2584 0 
L 588 0 
L 588 4666 
L 2394 4666 
Q 3366 4666 3802 4372 
Q 4238 4078 4238 3431 
Q 4238 3091 4078 2852 
Q 3919 2613 3616 2497 
z
" transform="scale(0.015625)"/>
      <path id="DejaVuSans-Bold-44" d="M 1791 3756 
L 1791 909 
L 2222 909 
Q 2959 909 3348 1275 
Q 3738 1641 3738 2338 
Q 3738 3031 3350 3393 
Q 2963 3756 2222 3756 
L 1791 3756 
z
M 588 4666 
L 1856 4666 
Q 2919 4666 3439 4514 
Q 3959 4363 4331 4000 
Q 4659 3684 4818 3271 
Q 4978 2859 4978 2338 
Q 4978 1809 4818 1395 
Q 4659 981 4331 666 
Q 3956 303 3431 151 
Q 2906 0 1856 0 
L 588 0 
L 588 4666 
z
" transform="scale(0.015625)"/>
      <path id="DejaVuSans-Bold-50" d="M 588 4666 
L 2584 4666 
Q 3475 4666 3951 4270 
Q 4428 3875 4428 3144 
Q 4428 2409 3951 2014 
Q 3475 1619 2584 1619 
L 1791 1619 
L 1791 0 
L 588 0 
L 588 4666 
z
M 1791 3794 
L 1791 2491 
L 2456 2491 
Q 2806 2491 2997 2661 
Q 3188 2831 3188 3144 
Q 3188 3456 2997 3625 
Q 2806 3794 2456 3794 
L 1791 3794 
z
" transform="scale(0.015625)"/>
      <path id="DejaVuSans-Bold-48" d="M 588 4666 
L 1791 4666 
L 1791 2888 
L 3566 2888 
L 3566 4666 
L 4769 4666 
L 4769 0 
L 3566 0 
L 3566 1978 
L 1791 1978 
L 1791 0 
L 588 0 
L 588 4666 
z
" transform="scale(0.015625)"/>
      <path id="DejaVuSans-Bold-67" d="M 2919 594 
Q 2688 288 2409 144 
Q 2131 0 1766 0 
Q 1125 0 706 504 
Q 288 1009 288 1791 
Q 288 2575 706 3076 
Q 1125 3578 1766 3578 
Q 2131 3578 2409 3434 
Q 2688 3291 2919 2981 
L 2919 3500 
L 4044 3500 
L 4044 353 
Q 4044 -491 3511 -936 
Q 2978 -1381 1966 -1381 
Q 1638 -1381 1331 -1331 
Q 1025 -1281 716 -1178 
L 716 -306 
Q 1009 -475 1290 -558 
Q 1572 -641 1856 -641 
Q 2406 -641 2662 -400 
Q 2919 -159 2919 353 
L 2919 594 
z
M 2181 2772 
Q 1834 2772 1640 2515 
Q 1447 2259 1447 1791 
Q 1447 1309 1634 1061 
Q 1822 813 2181 813 
Q 2531 813 2725 1069 
Q 2919 1325 2919 1791 
Q 2919 2259 2725 2515 
Q 2531 2772 2181 2772 
z
" transform="scale(0.015625)"/>
      <path id="DejaVuSans-Bold-6d" d="M 3781 2919 
Q 3994 3244 4286 3414 
Q 4578 3584 4928 3584 
Q 5531 3584 5847 3212 
Q 6163 2841 6163 2131 
L 6163 0 
L 5038 0 
L 5038 1825 
Q 5041 1866 5042 1909 
Q 5044 1953 5044 2034 
Q 5044 2406 4934 2573 
Q 4825 2741 4581 2741 
Q 4263 2741 4089 2478 
Q 3916 2216 3909 1719 
L 3909 0 
L 2784 0 
L 2784 1825 
Q 2784 2406 2684 2573 
Q 2584 2741 2328 2741 
Q 2006 2741 1831 2477 
Q 1656 2213 1656 1722 
L 1656 0 
L 531 0 
L 531 3500 
L 1656 3500 
L 1656 2988 
Q 1863 3284 2130 3434 
Q 2397 3584 2719 3584 
Q 3081 3584 3359 3409 
Q 3638 3234 3781 2919 
z
" transform="scale(0.015625)"/>
      <path id="DejaVuSans-Bold-78" d="M 1422 1791 
L 159 3500 
L 1344 3500 
L 2059 2463 
L 2784 3500 
L 3969 3500 
L 2706 1797 
L 4031 0 
L 2847 0 
L 2059 1106 
L 1281 0 
L 97 0 
L 1422 1791 
z
" transform="scale(0.015625)"/>
      <path id="DejaVuSans-Bold-75" d="M 500 1363 
L 500 3500 
L 1625 3500 
L 1625 3150 
Q 1625 2866 1622 2436 
Q 1619 2006 1619 1863 
Q 1619 1441 1641 1255 
Q 1663 1069 1716 984 
Q 1784 875 1895 815 
Q 2006 756 2150 756 
Q 2500 756 2700 1025 
Q 2900 1294 2900 1772 
L 2900 3500 
L 4019 3500 
L 4019 0 
L 2900 0 
L 2900 506 
Q 2647 200 2364 54 
Q 2081 -91 1741 -91 
Q 1134 -91 817 281 
Q 500 653 500 1363 
z
" transform="scale(0.015625)"/>
      <path id="DejaVuSans-Bold-2c" d="M 653 1209 
L 1778 1209 
L 1778 256 
L 1006 -909 
L 341 -909 
L 653 256 
L 653 1209 
z
" transform="scale(0.015625)"/>
      <path id="DejaVuSans-Bold-70" d="M 1656 506 
L 1656 -1331 
L 538 -1331 
L 538 3500 
L 1656 3500 
L 1656 2988 
Q 1888 3294 2169 3439 
Q 2450 3584 2816 3584 
Q 3463 3584 3878 3070 
Q 4294 2556 4294 1747 
Q 4294 938 3878 423 
Q 3463 -91 2816 -91 
Q 2450 -91 2169 54 
Q 1888 200 1656 506 
z
M 2400 2772 
Q 2041 2772 1848 2508 
Q 1656 2244 1656 1747 
Q 1656 1250 1848 986 
Q 2041 722 2400 722 
Q 2759 722 2948 984 
Q 3138 1247 3138 1747 
Q 3138 2247 2948 2509 
Q 2759 2772 2400 2772 
z
" transform="scale(0.015625)"/>
     </defs>
     <use xlink:href="#DejaVuSans-Bold-43"/>
     <use xlink:href="#DejaVuSans-Bold-42" transform="translate(73.388672 0)"/>
     <use xlink:href="#DejaVuSans-Bold-44" transform="translate(149.609375 0)"/>
     <use xlink:href="#DejaVuSans-Bold-20" transform="translate(232.617188 0)"/>
     <use xlink:href="#DejaVuSans-Bold-50" transform="translate(267.431641 0)"/>
     <use xlink:href="#DejaVuSans-Bold-61" transform="translate(338.097656 0)"/>
     <use xlink:href="#DejaVuSans-Bold-72" transform="translate(405.578125 0)"/>
     <use xlink:href="#DejaVuSans-Bold-74" transform="translate(454.894531 0)"/>
     <use xlink:href="#DejaVuSans-Bold-69" transform="translate(502.697266 0)"/>
     <use xlink:href="#DejaVuSans-Bold-65" transform="translate(536.974609 0)"/>
     <use xlink:href="#DejaVuSans-Bold-73" transform="translate(604.796875 0)"/>
     <use xlink:href="#DejaVuSans-Bold-20" transform="translate(664.318359 0)"/>
     <use xlink:href="#DejaVuSans-Bold-28" transform="translate(699.132812 0)"/>
     <use xlink:href="#DejaVuSans-Bold-48" transform="translate(744.835938 0)"/>
     <use xlink:href="#DejaVuSans-Bold-69" transform="translate(828.527344 0)"/>
     <use xlink:href="#DejaVuSans-Bold-67" transform="translate(862.804688 0)"/>
     <use xlink:href="#DejaVuSans-Bold-68" transform="translate(934.386719 0)"/>
     <use xlink:href="#DejaVuSans-Bold-20" transform="translate(1005.578125 0)"/>
     <use xlink:href="#DejaVuSans-Bold-69" transform="translate(1040.392578 0)"/>
     <use xlink:href="#DejaVuSans-Bold-6e" transform="translate(1074.669922 0)"/>
     <use xlink:href="#DejaVuSans-Bold-63" transform="translate(1145.861328 0)"/>
     <use xlink:href="#DejaVuSans-Bold-6f" transform="translate(1205.138672 0)"/>
     <use xlink:href="#DejaVuSans-Bold-6d" transform="translate(1273.839844 0)"/>
     <use xlink:href="#DejaVuSans-Bold-65" transform="translate(1378.039062 0)"/>
     <use xlink:href="#DejaVuSans-Bold-20" transform="translate(1445.861328 0)"/>
     <use xlink:href="#DejaVuSans-Bold-65" transform="translate(1480.675781 0)"/>
     <use xlink:href="#DejaVuSans-Bold-78" transform="translate(1548.498047 0)"/>
     <use xlink:href="#DejaVuSans-Bold-63" transform="translate(1613 0)"/>
     <use xlink:href="#DejaVuSans-Bold-6c" transform="translate(1672.277344 0)"/>
     <use xlink:href="#DejaVuSans-Bold-75" transform="translate(1706.554688 0)"/>
     <use xlink:href="#DejaVuSans-Bold-64" transform="translate(1777.746094 0)"/>
     <use xlink:href="#DejaVuSans-Bold-65" transform="translate(1849.328125 0)"/>
     <use xlink:href="#DejaVuSans-Bold-64" transform="translate(1917.150391 0)"/>
     <use xlink:href="#DejaVuSans-Bold-2c" transform="translate(1988.732422 0)"/>
     <use xlink:href="#DejaVuSans-Bold-20" transform="translate(2026.720703 0)"/>
     <use xlink:href="#DejaVuSans-Bold-53" transform="translate(2061.535156 0)"/>
     <use xlink:href="#DejaVuSans-Bold-49" transform="translate(2133.556641 0)"/>
     <use xlink:href="#DejaVuSans-Bold-44" transform="translate(2170.763672 0)"/>
     <use xlink:href="#DejaVuSans-Bold-53" transform="translate(2253.771484 0)"/>
     <use xlink:href="#DejaVuSans-Bold-20" transform="translate(2325.792969 0)"/>
     <use xlink:href="#DejaVuSans-Bold-70" transform="translate(2360.607422 0)"/>
     <use xlink:href="#DejaVuSans-Bold-72" transform="translate(2432.189453 0)"/>
     <use xlink:href="#DejaVuSans-Bold-65" transform="translate(2481.505859 0)"/>
     <use xlink:href="#DejaVuSans-Bold-73" transform="translate(2549.328125 0)"/>
     <use xlink:href="#DejaVuSans-Bold-65" transform="translate(2608.849609 0)"/>
     <use xlink:href="#DejaVuSans-Bold-72" transform="translate(2676.671875 0)"/>
     <use xlink:href="#DejaVuSans-Bold-76" transform="translate(2725.988281 0)"/>
     <use xlink:href="#DejaVuSans-Bold-65" transform="translate(2791.173828 0)"/>
     <use xlink:href="#DejaVuSans-Bold-64" transform="translate(2858.996094 0)"/>
     <use xlink:href="#DejaVuSans-Bold-29" transform="translate(2930.578125 0)"/>
    </g>
   </g>
  </g>
 </g>
 <defs>
  <clipPath id="p62b8daad21">
   <rect x="44.749063" y="37.635125" width="948.76" height="292.544"/>
  </clipPath>
 </defs>
</svg>
