<?xml version="1.0" encoding="utf-8" standalone="no"?>
<!DOCTYPE svg PUBLIC "-//W3C//DTD SVG 1.1//EN"
  "http://www.w3.org/Graphics/SVG/1.1/DTD/svg11.dtd">
<svg xmlns:xlink="http://www.w3.org/1999/xlink" width="1000.275813pt" height="352.025062pt" viewBox="0 0 1000.275813 352.025062" xmlns="http://www.w3.org/2000/svg" version="1.1">
 <metadata>
  <rdf:RDF xmlns:dc="http://purl.org/dc/elements/1.1/" xmlns:cc="http://creativecommons.org/ns#" xmlns:rdf="http://www.w3.org/1999/02/22-rdf-syntax-ns#">
   <cc:Work>
    <dc:type rdf:resource="http://purl.org/dc/dcmitype/StillImage"/>
    <dc:date>2026-04-15T15:45:57.744344</dc:date>
    <dc:format>image/svg+xml</dc:format>
    <dc:creator>
     <cc:Agent>
      <dc:title>Matplotlib v3.10.8, https://matplotlib.org/</dc:title>
     </cc:Agent>
    </dc:creator>
   </cc:Work>
  </rdf:RDF>
 </metadata>
 <defs>
  <style type="text/css">*{stroke-linejoin: round; stroke-linecap: butt}</style>
 </defs>
 <g id="figure_1">
  <g id="patch_1">
   <path d="M 0 352.025062 
L 1000.275813 352.025062 
L 1000.275813 0 
L 0 0 
z
" style="fill: #ffffff"/>
  </g>
  <g id="axes_1">
   <g id="patch_2">
    <path d="M 51.111563 330.179125 
L 990.832267 330.179125 
L 990.832267 37.635125 
L 51.111563 37.635125 
z
" style="fill: #ffffff"/>
   </g>
   <g id="patch_3">
    <path d="M 51.607894 330.179125 
L 57.232983 330.179125 
L 57.232983 51.565792 
L 51.607894 51.565792 
z
" clip-path="url(#p51660788a4)" style="fill: #6366f1; opacity: 0.85"/>
   </g>
   <g id="patch_4">
    <path d="M 58.225645 330.179125 
L 63.850734 330.179125 
L 63.850734 310.526885 
L 58.225645 310.526885 
z
" clip-path="url(#p51660788a4)" style="fill: #6366f1; opacity: 0.85"/>
   </g>
   <g id="patch_5">
    <path d="M 64.843397 330.179125 
L 70.468485 330.179125 
L 70.468485 314.343124 
L 64.843397 314.343124 
z
" clip-path="url(#p51660788a4)" style="fill: #6366f1; opacity: 0.85"/>
   </g>
   <g id="patch_6">
    <path d="M 71.461148 330.179125 
L 77.086237 330.179125 
L 77.086237 314.774889 
L 71.461148 314.774889 
z
" clip-path="url(#p51660788a4)" style="fill: #6366f1; opacity: 0.85"/>
   </g>
   <g id="patch_7">
    <path d="M 78.0789 330.179125 
L 83.703988 330.179125 
L 83.703988 320.638526 
L 78.0789 320.638526 
z
" clip-path="url(#p51660788a4)" style="fill: #6366f1; opacity: 0.85"/>
   </g>
   <g id="patch_8">
    <path d="M 84.696651 330.179125 
L 90.32174 330.179125 
L 90.32174 322.114882 
L 84.696651 322.114882 
z
" clip-path="url(#p51660788a4)" style="fill: #6366f1; opacity: 0.85"/>
   </g>
   <g id="patch_9">
    <path d="M 91.314402 330.179125 
L 96.939491 330.179125 
L 96.939491 323.354463 
L 91.314402 323.354463 
z
" clip-path="url(#p51660788a4)" style="fill: #6366f1; opacity: 0.85"/>
   </g>
   <g id="patch_10">
    <path d="M 97.932154 330.179125 
L 103.557243 330.179125 
L 103.557243 323.50767 
L 97.932154 323.50767 
z
" clip-path="url(#p51660788a4)" style="fill: #6366f1; opacity: 0.85"/>
   </g>
   <g id="patch_11">
    <path d="M 104.549905 330.179125 
L 110.174994 330.179125 
L 110.174994 324.802963 
L 104.549905 324.802963 
z
" clip-path="url(#p51660788a4)" style="fill: #6366f1; opacity: 0.85"/>
   </g>
   <g id="patch_12">
    <path d="M 111.167657 330.179125 
L 116.792746 330.179125 
L 116.792746 325.429718 
L 111.167657 325.429718 
z
" clip-path="url(#p51660788a4)" style="fill: #6366f1; opacity: 0.85"/>
   </g>
   <g id="patch_13">
    <path d="M 117.785408 330.179125 
L 123.410497 330.179125 
L 123.410497 325.638636 
L 117.785408 325.638636 
z
" clip-path="url(#p51660788a4)" style="fill: #6366f1; opacity: 0.85"/>
   </g>
   <g id="patch_14">
    <path d="M 124.40316 330.179125 
L 130.028248 330.179125 
L 130.028248 326.683227 
L 124.40316 326.683227 
z
" clip-path="url(#p51660788a4)" style="fill: #6366f1; opacity: 0.85"/>
   </g>
   <g id="patch_15">
    <path d="M 131.020911 330.179125 
L 136.646 330.179125 
L 136.646 327.421405 
L 131.020911 327.421405 
z
" clip-path="url(#p51660788a4)" style="fill: #6366f1; opacity: 0.85"/>
   </g>
   <g id="patch_16">
    <path d="M 137.638663 330.179125 
L 143.263751 330.179125 
L 143.263751 327.435332 
L 137.638663 327.435332 
z
" clip-path="url(#p51660788a4)" style="fill: #6366f1; opacity: 0.85"/>
   </g>
   <g id="patch_17">
    <path d="M 144.256414 330.179125 
L 149.881503 330.179125 
L 149.881503 327.644251 
L 144.256414 327.644251 
z
" clip-path="url(#p51660788a4)" style="fill: #6366f1; opacity: 0.85"/>
   </g>
   <g id="patch_18">
    <path d="M 150.874165 330.179125 
L 156.499254 330.179125 
L 156.499254 327.964592 
L 150.874165 327.964592 
z
" clip-path="url(#p51660788a4)" style="fill: #6366f1; opacity: 0.85"/>
   </g>
   <g id="patch_19">
    <path d="M 157.491917 330.179125 
L 163.117006 330.179125 
L 163.117006 328.089943 
L 157.491917 328.089943 
z
" clip-path="url(#p51660788a4)" style="fill: #6366f1; opacity: 0.85"/>
   </g>
   <g id="patch_20">
    <path d="M 164.109668 330.179125 
L 169.734757 330.179125 
L 169.734757 328.159582 
L 164.109668 328.159582 
z
" clip-path="url(#p51660788a4)" style="fill: #6366f1; opacity: 0.85"/>
   </g>
   <g id="patch_21">
    <path d="M 170.72742 330.179125 
L 176.352508 330.179125 
L 176.352508 328.354573 
L 170.72742 328.354573 
z
" clip-path="url(#p51660788a4)" style="fill: #6366f1; opacity: 0.85"/>
   </g>
   <g id="patch_22">
    <path d="M 177.345171 330.179125 
L 182.97026 330.179125 
L 182.97026 328.354573 
L 177.345171 328.354573 
z
" clip-path="url(#p51660788a4)" style="fill: #6366f1; opacity: 0.85"/>
   </g>
   <g id="patch_23">
    <path d="M 183.962923 330.179125 
L 189.588011 330.179125 
L 189.588011 328.465996 
L 183.962923 328.465996 
z
" clip-path="url(#p51660788a4)" style="fill: #6366f1; opacity: 0.85"/>
   </g>
   <g id="patch_24">
    <path d="M 190.580674 330.179125 
L 196.205763 330.179125 
L 196.205763 328.479924 
L 190.580674 328.479924 
z
" clip-path="url(#p51660788a4)" style="fill: #6366f1; opacity: 0.85"/>
   </g>
   <g id="patch_25">
    <path d="M 197.198425 330.179125 
L 202.823514 330.179125 
L 202.823514 328.967399 
L 197.198425 328.967399 
z
" clip-path="url(#p51660788a4)" style="fill: #6366f1; opacity: 0.85"/>
   </g>
   <g id="patch_26">
    <path d="M 203.816177 330.179125 
L 209.441266 330.179125 
L 209.441266 329.148462 
L 203.816177 329.148462 
z
" clip-path="url(#p51660788a4)" style="fill: #6366f1; opacity: 0.85"/>
   </g>
   <g id="patch_27">
    <path d="M 210.433928 330.179125 
L 216.059017 330.179125 
L 216.059017 329.218101 
L 210.433928 329.218101 
z
" clip-path="url(#p51660788a4)" style="fill: #6366f1; opacity: 0.85"/>
   </g>
   <g id="patch_28">
    <path d="M 217.05168 330.179125 
L 222.676769 330.179125 
L 222.676769 329.218101 
L 217.05168 329.218101 
z
" clip-path="url(#p51660788a4)" style="fill: #6366f1; opacity: 0.85"/>
   </g>
   <g id="patch_29">
    <path d="M 223.669431 330.179125 
L 229.29452 330.179125 
L 229.29452 329.273813 
L 223.669431 329.273813 
z
" clip-path="url(#p51660788a4)" style="fill: #6366f1; opacity: 0.85"/>
   </g>
   <g id="patch_30">
    <path d="M 230.287183 330.179125 
L 235.912271 330.179125 
L 235.912271 329.35738 
L 230.287183 329.35738 
z
" clip-path="url(#p51660788a4)" style="fill: #6366f1; opacity: 0.85"/>
   </g>
   <g id="patch_31">
    <path d="M 236.904934 330.179125 
L 242.530023 330.179125 
L 242.530023 329.538442 
L 236.904934 329.538442 
z
" clip-path="url(#p51660788a4)" style="fill: #6366f1; opacity: 0.85"/>
   </g>
   <g id="patch_32">
    <path d="M 243.522686 330.179125 
L 249.147774 330.179125 
L 249.147774 329.580226 
L 243.522686 329.580226 
z
" clip-path="url(#p51660788a4)" style="fill: #6366f1; opacity: 0.85"/>
   </g>
   <g id="patch_33">
    <path d="M 250.140437 330.179125 
L 255.765526 330.179125 
L 255.765526 329.62201 
L 250.140437 329.62201 
z
" clip-path="url(#p51660788a4)" style="fill: #6366f1; opacity: 0.85"/>
   </g>
   <g id="patch_34">
    <path d="M 256.758188 330.179125 
L 262.383277 330.179125 
L 262.383277 329.62201 
L 256.758188 329.62201 
z
" clip-path="url(#p51660788a4)" style="fill: #6366f1; opacity: 0.85"/>
   </g>
   <g id="patch_35">
    <path d="M 263.37594 330.179125 
L 269.001029 330.179125 
L 269.001029 329.649866 
L 263.37594 329.649866 
z
" clip-path="url(#p51660788a4)" style="fill: #6366f1; opacity: 0.85"/>
   </g>
   <g id="patch_36">
    <path d="M 269.993691 330.179125 
L 275.61878 330.179125 
L 275.61878 329.663793 
L 269.993691 329.663793 
z
" clip-path="url(#p51660788a4)" style="fill: #6366f1; opacity: 0.85"/>
   </g>
   <g id="patch_37">
    <path d="M 276.611443 330.179125 
L 282.236531 330.179125 
L 282.236531 329.677721 
L 276.611443 329.677721 
z
" clip-path="url(#p51660788a4)" style="fill: #6366f1; opacity: 0.85"/>
   </g>
   <g id="patch_38">
    <path d="M 283.229194 330.179125 
L 288.854283 330.179125 
L 288.854283 329.705577 
L 283.229194 329.705577 
z
" clip-path="url(#p51660788a4)" style="fill: #6366f1; opacity: 0.85"/>
   </g>
   <g id="patch_39">
    <path d="M 289.846946 330.179125 
L 295.472034 330.179125 
L 295.472034 329.719505 
L 289.846946 329.719505 
z
" clip-path="url(#p51660788a4)" style="fill: #6366f1; opacity: 0.85"/>
   </g>
   <g id="patch_40">
    <path d="M 296.464697 330.179125 
L 302.089786 330.179125 
L 302.089786 329.830928 
L 296.464697 329.830928 
z
" clip-path="url(#p51660788a4)" style="fill: #6366f1; opacity: 0.85"/>
   </g>
   <g id="patch_41">
    <path d="M 303.082449 330.179125 
L 308.707537 330.179125 
L 308.707537 329.844856 
L 303.082449 329.844856 
z
" clip-path="url(#p51660788a4)" style="fill: #6366f1; opacity: 0.85"/>
   </g>
   <g id="patch_42">
    <path d="M 309.7002 330.179125 
L 315.325289 330.179125 
L 315.325289 329.844856 
L 309.7002 329.844856 
z
" clip-path="url(#p51660788a4)" style="fill: #6366f1; opacity: 0.85"/>
   </g>
   <g id="patch_43">
    <path d="M 316.317951 330.179125 
L 321.94304 330.179125 
L 321.94304 329.858784 
L 316.317951 329.858784 
z
" clip-path="url(#p51660788a4)" style="fill: #6366f1; opacity: 0.85"/>
   </g>
   <g id="patch_44">
    <path d="M 322.935703 330.179125 
L 328.560792 330.179125 
L 328.560792 329.872712 
L 322.935703 329.872712 
z
" clip-path="url(#p51660788a4)" style="fill: #6366f1; opacity: 0.85"/>
   </g>
   <g id="patch_45">
    <path d="M 329.553454 330.179125 
L 335.178543 330.179125 
L 335.178543 329.886639 
L 329.553454 329.886639 
z
" clip-path="url(#p51660788a4)" style="fill: #6366f1; opacity: 0.85"/>
   </g>
   <g id="patch_46">
    <path d="M 336.171206 330.179125 
L 341.796294 330.179125 
L 341.796294 329.928423 
L 336.171206 329.928423 
z
" clip-path="url(#p51660788a4)" style="fill: #6366f1; opacity: 0.85"/>
   </g>
   <g id="patch_47">
    <path d="M 342.788957 330.179125 
L 348.414046 330.179125 
L 348.414046 329.928423 
L 342.788957 329.928423 
z
" clip-path="url(#p51660788a4)" style="fill: #6366f1; opacity: 0.85"/>
   </g>
   <g id="patch_48">
    <path d="M 349.406709 330.179125 
L 355.031797 330.179125 
L 355.031797 329.970207 
L 349.406709 329.970207 
z
" clip-path="url(#p51660788a4)" style="fill: #6366f1; opacity: 0.85"/>
   </g>
   <g id="patch_49">
    <path d="M 356.02446 330.179125 
L 361.649549 330.179125 
L 361.649549 329.984135 
L 356.02446 329.984135 
z
" clip-path="url(#p51660788a4)" style="fill: #6366f1; opacity: 0.85"/>
   </g>
   <g id="patch_50">
    <path d="M 362.642211 330.179125 
L 368.2673 330.179125 
L 368.2673 329.984135 
L 362.642211 329.984135 
z
" clip-path="url(#p51660788a4)" style="fill: #6366f1; opacity: 0.85"/>
   </g>
   <g id="patch_51">
    <path d="M 369.259963 330.179125 
L 374.885052 330.179125 
L 374.885052 329.998063 
L 369.259963 329.998063 
z
" clip-path="url(#p51660788a4)" style="fill: #6366f1; opacity: 0.85"/>
   </g>
   <g id="patch_52">
    <path d="M 375.877714 330.179125 
L 381.502803 330.179125 
L 381.502803 329.998063 
L 375.877714 329.998063 
z
" clip-path="url(#p51660788a4)" style="fill: #6366f1; opacity: 0.85"/>
   </g>
   <g id="patch_53">
    <path d="M 382.495466 330.179125 
L 388.120554 330.179125 
L 388.120554 330.025918 
L 382.495466 330.025918 
z
" clip-path="url(#p51660788a4)" style="fill: #6366f1; opacity: 0.85"/>
   </g>
   <g id="patch_54">
    <path d="M 389.113217 330.179125 
L 394.738306 330.179125 
L 394.738306 330.025918 
L 389.113217 330.025918 
z
" clip-path="url(#p51660788a4)" style="fill: #6366f1; opacity: 0.85"/>
   </g>
   <g id="patch_55">
    <path d="M 395.730969 330.179125 
L 401.356057 330.179125 
L 401.356057 330.039846 
L 395.730969 330.039846 
z
" clip-path="url(#p51660788a4)" style="fill: #6366f1; opacity: 0.85"/>
   </g>
   <g id="patch_56">
    <path d="M 402.34872 330.179125 
L 407.973809 330.179125 
L 407.973809 330.039846 
L 402.34872 330.039846 
z
" clip-path="url(#p51660788a4)" style="fill: #6366f1; opacity: 0.85"/>
   </g>
   <g id="patch_57">
    <path d="M 408.966472 330.179125 
L 414.59156 330.179125 
L 414.59156 330.039846 
L 408.966472 330.039846 
z
" clip-path="url(#p51660788a4)" style="fill: #6366f1; opacity: 0.85"/>
   </g>
   <g id="patch_58">
    <path d="M 415.584223 330.179125 
L 421.209312 330.179125 
L 421.209312 330.039846 
L 415.584223 330.039846 
z
" clip-path="url(#p51660788a4)" style="fill: #6366f1; opacity: 0.85"/>
   </g>
   <g id="patch_59">
    <path d="M 422.201974 330.179125 
L 427.827063 330.179125 
L 427.827063 330.039846 
L 422.201974 330.039846 
z
" clip-path="url(#p51660788a4)" style="fill: #6366f1; opacity: 0.85"/>
   </g>
   <g id="patch_60">
    <path d="M 428.819726 330.179125 
L 434.444815 330.179125 
L 434.444815 330.039846 
L 428.819726 330.039846 
z
" clip-path="url(#p51660788a4)" style="fill: #6366f1; opacity: 0.85"/>
   </g>
   <g id="patch_61">
    <path d="M 435.437477 330.179125 
L 441.062566 330.179125 
L 441.062566 330.039846 
L 435.437477 330.039846 
z
" clip-path="url(#p51660788a4)" style="fill: #6366f1; opacity: 0.85"/>
   </g>
   <g id="patch_62">
    <path d="M 442.055229 330.179125 
L 447.680317 330.179125 
L 447.680317 330.039846 
L 442.055229 330.039846 
z
" clip-path="url(#p51660788a4)" style="fill: #6366f1; opacity: 0.85"/>
   </g>
   <g id="patch_63">
    <path d="M 448.67298 330.179125 
L 454.298069 330.179125 
L 454.298069 330.039846 
L 448.67298 330.039846 
z
" clip-path="url(#p51660788a4)" style="fill: #6366f1; opacity: 0.85"/>
   </g>
   <g id="patch_64">
    <path d="M 455.290732 330.179125 
L 460.91582 330.179125 
L 460.91582 330.039846 
L 455.290732 330.039846 
z
" clip-path="url(#p51660788a4)" style="fill: #6366f1; opacity: 0.85"/>
   </g>
   <g id="patch_65">
    <path d="M 461.908483 330.179125 
L 467.533572 330.179125 
L 467.533572 330.039846 
L 461.908483 330.039846 
z
" clip-path="url(#p51660788a4)" style="fill: #6366f1; opacity: 0.85"/>
   </g>
   <g id="patch_66">
    <path d="M 468.526234 330.179125 
L 474.151323 330.179125 
L 474.151323 330.053774 
L 468.526234 330.053774 
z
" clip-path="url(#p51660788a4)" style="fill: #6366f1; opacity: 0.85"/>
   </g>
   <g id="patch_67">
    <path d="M 475.143986 330.179125 
L 480.769075 330.179125 
L 480.769075 330.053774 
L 475.143986 330.053774 
z
" clip-path="url(#p51660788a4)" style="fill: #6366f1; opacity: 0.85"/>
   </g>
   <g id="patch_68">
    <path d="M 481.761737 330.179125 
L 487.386826 330.179125 
L 487.386826 330.067702 
L 481.761737 330.067702 
z
" clip-path="url(#p51660788a4)" style="fill: #6366f1; opacity: 0.85"/>
   </g>
   <g id="patch_69">
    <path d="M 488.379489 330.179125 
L 494.004578 330.179125 
L 494.004578 330.067702 
L 488.379489 330.067702 
z
" clip-path="url(#p51660788a4)" style="fill: #6366f1; opacity: 0.85"/>
   </g>
   <g id="patch_70">
    <path d="M 494.99724 330.179125 
L 500.622329 330.179125 
L 500.622329 330.067702 
L 494.99724 330.067702 
z
" clip-path="url(#p51660788a4)" style="fill: #6366f1; opacity: 0.85"/>
   </g>
   <g id="patch_71">
    <path d="M 501.614992 330.179125 
L 507.24008 330.179125 
L 507.24008 330.067702 
L 501.614992 330.067702 
z
" clip-path="url(#p51660788a4)" style="fill: #6366f1; opacity: 0.85"/>
   </g>
   <g id="patch_72">
    <path d="M 508.232743 330.179125 
L 513.857832 330.179125 
L 513.857832 330.08163 
L 508.232743 330.08163 
z
" clip-path="url(#p51660788a4)" style="fill: #6366f1; opacity: 0.85"/>
   </g>
   <g id="patch_73">
    <path d="M 514.850495 330.179125 
L 520.475583 330.179125 
L 520.475583 330.08163 
L 514.850495 330.08163 
z
" clip-path="url(#p51660788a4)" style="fill: #6366f1; opacity: 0.85"/>
   </g>
   <g id="patch_74">
    <path d="M 521.468246 330.179125 
L 527.093335 330.179125 
L 527.093335 330.08163 
L 521.468246 330.08163 
z
" clip-path="url(#p51660788a4)" style="fill: #6366f1; opacity: 0.85"/>
   </g>
   <g id="patch_75">
    <path d="M 528.085997 330.179125 
L 533.711086 330.179125 
L 533.711086 330.08163 
L 528.085997 330.08163 
z
" clip-path="url(#p51660788a4)" style="fill: #6366f1; opacity: 0.85"/>
   </g>
   <g id="patch_76">
    <path d="M 534.703749 330.179125 
L 540.328838 330.179125 
L 540.328838 330.08163 
L 534.703749 330.08163 
z
" clip-path="url(#p51660788a4)" style="fill: #6366f1; opacity: 0.85"/>
   </g>
   <g id="patch_77">
    <path d="M 541.3215 330.179125 
L 546.946589 330.179125 
L 546.946589 330.08163 
L 541.3215 330.08163 
z
" clip-path="url(#p51660788a4)" style="fill: #6366f1; opacity: 0.85"/>
   </g>
   <g id="patch_78">
    <path d="M 547.939252 330.179125 
L 553.56434 330.179125 
L 553.56434 330.095558 
L 547.939252 330.095558 
z
" clip-path="url(#p51660788a4)" style="fill: #6366f1; opacity: 0.85"/>
   </g>
   <g id="patch_79">
    <path d="M 554.557003 330.179125 
L 560.182092 330.179125 
L 560.182092 330.095558 
L 554.557003 330.095558 
z
" clip-path="url(#p51660788a4)" style="fill: #6366f1; opacity: 0.85"/>
   </g>
   <g id="patch_80">
    <path d="M 561.174755 330.179125 
L 566.799843 330.179125 
L 566.799843 330.095558 
L 561.174755 330.095558 
z
" clip-path="url(#p51660788a4)" style="fill: #6366f1; opacity: 0.85"/>
   </g>
   <g id="patch_81">
    <path d="M 567.792506 330.179125 
L 573.417595 330.179125 
L 573.417595 330.095558 
L 567.792506 330.095558 
z
" clip-path="url(#p51660788a4)" style="fill: #6366f1; opacity: 0.85"/>
   </g>
   <g id="patch_82">
    <path d="M 574.410257 330.179125 
L 580.035346 330.179125 
L 580.035346 330.095558 
L 574.410257 330.095558 
z
" clip-path="url(#p51660788a4)" style="fill: #6366f1; opacity: 0.85"/>
   </g>
   <g id="patch_83">
    <path d="M 581.028009 330.179125 
L 586.653098 330.179125 
L 586.653098 330.109486 
L 581.028009 330.109486 
z
" clip-path="url(#p51660788a4)" style="fill: #6366f1; opacity: 0.85"/>
   </g>
   <g id="patch_84">
    <path d="M 587.64576 330.179125 
L 593.270849 330.179125 
L 593.270849 330.109486 
L 587.64576 330.109486 
z
" clip-path="url(#p51660788a4)" style="fill: #6366f1; opacity: 0.85"/>
   </g>
   <g id="patch_85">
    <path d="M 594.263512 330.179125 
L 599.888601 330.179125 
L 599.888601 330.109486 
L 594.263512 330.109486 
z
" clip-path="url(#p51660788a4)" style="fill: #6366f1; opacity: 0.85"/>
   </g>
   <g id="patch_86">
    <path d="M 600.881263 330.179125 
L 606.506352 330.179125 
L 606.506352 330.109486 
L 600.881263 330.109486 
z
" clip-path="url(#p51660788a4)" style="fill: #6366f1; opacity: 0.85"/>
   </g>
   <g id="patch_87">
    <path d="M 607.499015 330.179125 
L 613.124103 330.179125 
L 613.124103 330.109486 
L 607.499015 330.109486 
z
" clip-path="url(#p51660788a4)" style="fill: #6366f1; opacity: 0.85"/>
   </g>
   <g id="patch_88">
    <path d="M 614.116766 330.179125 
L 619.741855 330.179125 
L 619.741855 330.109486 
L 614.116766 330.109486 
z
" clip-path="url(#p51660788a4)" style="fill: #6366f1; opacity: 0.85"/>
   </g>
   <g id="patch_89">
    <path d="M 620.734518 330.179125 
L 626.359606 330.179125 
L 626.359606 330.109486 
L 620.734518 330.109486 
z
" clip-path="url(#p51660788a4)" style="fill: #6366f1; opacity: 0.85"/>
   </g>
   <g id="patch_90">
    <path d="M 627.352269 330.179125 
L 632.977358 330.179125 
L 632.977358 330.109486 
L 627.352269 330.109486 
z
" clip-path="url(#p51660788a4)" style="fill: #6366f1; opacity: 0.85"/>
   </g>
   <g id="patch_91">
    <path d="M 633.97002 330.179125 
L 639.595109 330.179125 
L 639.595109 330.123413 
L 633.97002 330.123413 
z
" clip-path="url(#p51660788a4)" style="fill: #6366f1; opacity: 0.85"/>
   </g>
   <g id="patch_92">
    <path d="M 640.587772 330.179125 
L 646.212861 330.179125 
L 646.212861 330.123413 
L 640.587772 330.123413 
z
" clip-path="url(#p51660788a4)" style="fill: #6366f1; opacity: 0.85"/>
   </g>
   <g id="patch_93">
    <path d="M 647.205523 330.179125 
L 652.830612 330.179125 
L 652.830612 330.123413 
L 647.205523 330.123413 
z
" clip-path="url(#p51660788a4)" style="fill: #6366f1; opacity: 0.85"/>
   </g>
   <g id="patch_94">
    <path d="M 653.823275 330.179125 
L 659.448363 330.179125 
L 659.448363 330.123413 
L 653.823275 330.123413 
z
" clip-path="url(#p51660788a4)" style="fill: #6366f1; opacity: 0.85"/>
   </g>
   <g id="patch_95">
    <path d="M 660.441026 330.179125 
L 666.066115 330.179125 
L 666.066115 330.123413 
L 660.441026 330.123413 
z
" clip-path="url(#p51660788a4)" style="fill: #6366f1; opacity: 0.85"/>
   </g>
   <g id="patch_96">
    <path d="M 667.058778 330.179125 
L 672.683866 330.179125 
L 672.683866 330.123413 
L 667.058778 330.123413 
z
" clip-path="url(#p51660788a4)" style="fill: #6366f1; opacity: 0.85"/>
   </g>
   <g id="patch_97">
    <path d="M 673.676529 330.179125 
L 679.301618 330.179125 
L 679.301618 330.123413 
L 673.676529 330.123413 
z
" clip-path="url(#p51660788a4)" style="fill: #6366f1; opacity: 0.85"/>
   </g>
   <g id="patch_98">
    <path d="M 680.29428 330.179125 
L 685.919369 330.179125 
L 685.919369 330.137341 
L 680.29428 330.137341 
z
" clip-path="url(#p51660788a4)" style="fill: #6366f1; opacity: 0.85"/>
   </g>
   <g id="patch_99">
    <path d="M 686.912032 330.179125 
L 692.537121 330.179125 
L 692.537121 330.137341 
L 686.912032 330.137341 
z
" clip-path="url(#p51660788a4)" style="fill: #6366f1; opacity: 0.85"/>
   </g>
   <g id="patch_100">
    <path d="M 693.529783 330.179125 
L 699.154872 330.179125 
L 699.154872 330.137341 
L 693.529783 330.137341 
z
" clip-path="url(#p51660788a4)" style="fill: #6366f1; opacity: 0.85"/>
   </g>
   <g id="patch_101">
    <path d="M 700.147535 330.179125 
L 705.772624 330.179125 
L 705.772624 330.137341 
L 700.147535 330.137341 
z
" clip-path="url(#p51660788a4)" style="fill: #6366f1; opacity: 0.85"/>
   </g>
   <g id="patch_102">
    <path d="M 706.765286 330.179125 
L 712.390375 330.179125 
L 712.390375 330.137341 
L 706.765286 330.137341 
z
" clip-path="url(#p51660788a4)" style="fill: #6366f1; opacity: 0.85"/>
   </g>
   <g id="patch_103">
    <path d="M 713.383038 330.179125 
L 719.008126 330.179125 
L 719.008126 330.137341 
L 713.383038 330.137341 
z
" clip-path="url(#p51660788a4)" style="fill: #6366f1; opacity: 0.85"/>
   </g>
   <g id="patch_104">
    <path d="M 720.000789 330.179125 
L 725.625878 330.179125 
L 725.625878 330.137341 
L 720.000789 330.137341 
z
" clip-path="url(#p51660788a4)" style="fill: #6366f1; opacity: 0.85"/>
   </g>
   <g id="patch_105">
    <path d="M 726.618541 330.179125 
L 732.243629 330.179125 
L 732.243629 330.151269 
L 726.618541 330.151269 
z
" clip-path="url(#p51660788a4)" style="fill: #6366f1; opacity: 0.85"/>
   </g>
   <g id="patch_106">
    <path d="M 733.236292 330.179125 
L 738.861381 330.179125 
L 738.861381 330.151269 
L 733.236292 330.151269 
z
" clip-path="url(#p51660788a4)" style="fill: #6366f1; opacity: 0.85"/>
   </g>
   <g id="patch_107">
    <path d="M 739.854043 330.179125 
L 745.479132 330.179125 
L 745.479132 330.151269 
L 739.854043 330.151269 
z
" clip-path="url(#p51660788a4)" style="fill: #6366f1; opacity: 0.85"/>
   </g>
   <g id="patch_108">
    <path d="M 746.471795 330.179125 
L 752.096884 330.179125 
L 752.096884 330.151269 
L 746.471795 330.151269 
z
" clip-path="url(#p51660788a4)" style="fill: #6366f1; opacity: 0.85"/>
   </g>
   <g id="patch_109">
    <path d="M 753.089546 330.179125 
L 758.714635 330.179125 
L 758.714635 330.151269 
L 753.089546 330.151269 
z
" clip-path="url(#p51660788a4)" style="fill: #6366f1; opacity: 0.85"/>
   </g>
   <g id="patch_110">
    <path d="M 759.707298 330.179125 
L 765.332386 330.179125 
L 765.332386 330.151269 
L 759.707298 330.151269 
z
" clip-path="url(#p51660788a4)" style="fill: #6366f1; opacity: 0.85"/>
   </g>
   <g id="patch_111">
    <path d="M 766.325049 330.179125 
L 771.950138 330.179125 
L 771.950138 330.151269 
L 766.325049 330.151269 
z
" clip-path="url(#p51660788a4)" style="fill: #6366f1; opacity: 0.85"/>
   </g>
   <g id="patch_112">
    <path d="M 772.942801 330.179125 
L 778.567889 330.179125 
L 778.567889 330.151269 
L 772.942801 330.151269 
z
" clip-path="url(#p51660788a4)" style="fill: #6366f1; opacity: 0.85"/>
   </g>
   <g id="patch_113">
    <path d="M 779.560552 330.179125 
L 785.185641 330.179125 
L 785.185641 330.151269 
L 779.560552 330.151269 
z
" clip-path="url(#p51660788a4)" style="fill: #6366f1; opacity: 0.85"/>
   </g>
   <g id="patch_114">
    <path d="M 786.178303 330.179125 
L 791.803392 330.179125 
L 791.803392 330.165197 
L 786.178303 330.165197 
z
" clip-path="url(#p51660788a4)" style="fill: #6366f1; opacity: 0.85"/>
   </g>
   <g id="patch_115">
    <path d="M 792.796055 330.179125 
L 798.421144 330.179125 
L 798.421144 330.165197 
L 792.796055 330.165197 
z
" clip-path="url(#p51660788a4)" style="fill: #6366f1; opacity: 0.85"/>
   </g>
   <g id="patch_116">
    <path d="M 799.413806 330.179125 
L 805.038895 330.179125 
L 805.038895 330.165197 
L 799.413806 330.165197 
z
" clip-path="url(#p51660788a4)" style="fill: #6366f1; opacity: 0.85"/>
   </g>
   <g id="patch_117">
    <path d="M 806.031558 330.179125 
L 811.656647 330.179125 
L 811.656647 330.165197 
L 806.031558 330.165197 
z
" clip-path="url(#p51660788a4)" style="fill: #6366f1; opacity: 0.85"/>
   </g>
   <g id="patch_118">
    <path d="M 812.649309 330.179125 
L 818.274398 330.179125 
L 818.274398 330.165197 
L 812.649309 330.165197 
z
" clip-path="url(#p51660788a4)" style="fill: #6366f1; opacity: 0.85"/>
   </g>
   <g id="patch_119">
    <path d="M 819.267061 330.179125 
L 824.892149 330.179125 
L 824.892149 330.165197 
L 819.267061 330.165197 
z
" clip-path="url(#p51660788a4)" style="fill: #6366f1; opacity: 0.85"/>
   </g>
   <g id="patch_120">
    <path d="M 825.884812 330.179125 
L 831.509901 330.179125 
L 831.509901 330.165197 
L 825.884812 330.165197 
z
" clip-path="url(#p51660788a4)" style="fill: #6366f1; opacity: 0.85"/>
   </g>
   <g id="patch_121">
    <path d="M 832.502564 330.179125 
L 838.127652 330.179125 
L 838.127652 330.165197 
L 832.502564 330.165197 
z
" clip-path="url(#p51660788a4)" style="fill: #6366f1; opacity: 0.85"/>
   </g>
   <g id="patch_122">
    <path d="M 839.120315 330.179125 
L 844.745404 330.179125 
L 844.745404 330.165197 
L 839.120315 330.165197 
z
" clip-path="url(#p51660788a4)" style="fill: #6366f1; opacity: 0.85"/>
   </g>
   <g id="patch_123">
    <path d="M 845.738066 330.179125 
L 851.363155 330.179125 
L 851.363155 330.165197 
L 845.738066 330.165197 
z
" clip-path="url(#p51660788a4)" style="fill: #6366f1; opacity: 0.85"/>
   </g>
   <g id="patch_124">
    <path d="M 852.355818 330.179125 
L 857.980907 330.179125 
L 857.980907 330.165197 
L 852.355818 330.165197 
z
" clip-path="url(#p51660788a4)" style="fill: #6366f1; opacity: 0.85"/>
   </g>
   <g id="patch_125">
    <path d="M 858.973569 330.179125 
L 864.598658 330.179125 
L 864.598658 330.165197 
L 858.973569 330.165197 
z
" clip-path="url(#p51660788a4)" style="fill: #6366f1; opacity: 0.85"/>
   </g>
   <g id="patch_126">
    <path d="M 865.591321 330.179125 
L 871.216409 330.179125 
L 871.216409 330.165197 
L 865.591321 330.165197 
z
" clip-path="url(#p51660788a4)" style="fill: #6366f1; opacity: 0.85"/>
   </g>
   <g id="patch_127">
    <path d="M 872.209072 330.179125 
L 877.834161 330.179125 
L 877.834161 330.165197 
L 872.209072 330.165197 
z
" clip-path="url(#p51660788a4)" style="fill: #6366f1; opacity: 0.85"/>
   </g>
   <g id="patch_128">
    <path d="M 878.826824 330.179125 
L 884.451912 330.179125 
L 884.451912 330.165197 
L 878.826824 330.165197 
z
" clip-path="url(#p51660788a4)" style="fill: #6366f1; opacity: 0.85"/>
   </g>
   <g id="patch_129">
    <path d="M 885.444575 330.179125 
L 891.069664 330.179125 
L 891.069664 330.165197 
L 885.444575 330.165197 
z
" clip-path="url(#p51660788a4)" style="fill: #6366f1; opacity: 0.85"/>
   </g>
   <g id="patch_130">
    <path d="M 892.062327 330.179125 
L 897.687415 330.179125 
L 897.687415 330.165197 
L 892.062327 330.165197 
z
" clip-path="url(#p51660788a4)" style="fill: #6366f1; opacity: 0.85"/>
   </g>
   <g id="patch_131">
    <path d="M 898.680078 330.179125 
L 904.305167 330.179125 
L 904.305167 330.165197 
L 898.680078 330.165197 
z
" clip-path="url(#p51660788a4)" style="fill: #6366f1; opacity: 0.85"/>
   </g>
   <g id="patch_132">
    <path d="M 905.297829 330.179125 
L 910.922918 330.179125 
L 910.922918 330.165197 
L 905.297829 330.165197 
z
" clip-path="url(#p51660788a4)" style="fill: #6366f1; opacity: 0.85"/>
   </g>
   <g id="patch_133">
    <path d="M 911.915581 330.179125 
L 917.54067 330.179125 
L 917.54067 330.165197 
L 911.915581 330.165197 
z
" clip-path="url(#p51660788a4)" style="fill: #6366f1; opacity: 0.85"/>
   </g>
   <g id="patch_134">
    <path d="M 918.533332 330.179125 
L 924.158421 330.179125 
L 924.158421 330.165197 
L 918.533332 330.165197 
z
" clip-path="url(#p51660788a4)" style="fill: #6366f1; opacity: 0.85"/>
   </g>
   <g id="patch_135">
    <path d="M 925.151084 330.179125 
L 930.776172 330.179125 
L 930.776172 330.165197 
L 925.151084 330.165197 
z
" clip-path="url(#p51660788a4)" style="fill: #6366f1; opacity: 0.85"/>
   </g>
   <g id="patch_136">
    <path d="M 931.768835 330.179125 
L 937.393924 330.179125 
L 937.393924 330.165197 
L 931.768835 330.165197 
z
" clip-path="url(#p51660788a4)" style="fill: #6366f1; opacity: 0.85"/>
   </g>
   <g id="patch_137">
    <path d="M 938.386587 330.179125 
L 944.011675 330.179125 
L 944.011675 330.165197 
L 938.386587 330.165197 
z
" clip-path="url(#p51660788a4)" style="fill: #6366f1; opacity: 0.85"/>
   </g>
   <g id="patch_138">
    <path d="M 945.004338 330.179125 
L 950.629427 330.179125 
L 950.629427 330.165197 
L 945.004338 330.165197 
z
" clip-path="url(#p51660788a4)" style="fill: #6366f1; opacity: 0.85"/>
   </g>
   <g id="patch_139">
    <path d="M 951.622089 330.179125 
L 957.247178 330.179125 
L 957.247178 330.165197 
L 951.622089 330.165197 
z
" clip-path="url(#p51660788a4)" style="fill: #6366f1; opacity: 0.85"/>
   </g>
   <g id="patch_140">
    <path d="M 958.239841 330.179125 
L 963.86493 330.179125 
L 963.86493 330.165197 
L 958.239841 330.165197 
z
" clip-path="url(#p51660788a4)" style="fill: #6366f1; opacity: 0.85"/>
   </g>
   <g id="patch_141">
    <path d="M 964.857592 330.179125 
L 970.482681 330.179125 
L 970.482681 330.165197 
L 964.857592 330.165197 
z
" clip-path="url(#p51660788a4)" style="fill: #6366f1; opacity: 0.85"/>
   </g>
   <g id="patch_142">
    <path d="M 971.475344 330.179125 
L 977.100432 330.179125 
L 977.100432 330.179125 
L 971.475344 330.179125 
z
" clip-path="url(#p51660788a4)" style="fill: #6366f1; opacity: 0.85"/>
   </g>
   <g id="patch_143">
    <path d="M 978.093095 330.179125 
L 983.718184 330.179125 
L 983.718184 330.179125 
L 978.093095 330.179125 
z
" clip-path="url(#p51660788a4)" style="fill: #6366f1; opacity: 0.85"/>
   </g>
   <g id="patch_144">
    <path d="M 984.710847 330.179125 
L 990.335935 330.179125 
L 990.335935 330.179125 
L 984.710847 330.179125 
z
" clip-path="url(#p51660788a4)" style="fill: #6366f1; opacity: 0.85"/>
   </g>
   <g id="matplotlib.axis_1">
    <g id="text_1">
     <!-- Parties ranked by UN Scale share (N=142) -->
     <g transform="translate(404.430352 342.537406) scale(0.11 -0.11)">
      <defs>
       <path id="DejaVuSans-50" d="M 1259 4147 
L 1259 2394 
L 2053 2394 
Q 2494 2394 2734 2622 
Q 2975 2850 2975 3272 
Q 2975 3691 2734 3919 
Q 2494 4147 2053 4147 
L 1259 4147 
z
M 628 4666 
L 2053 4666 
Q 2838 4666 3239 4311 
Q 3641 3956 3641 3272 
Q 3641 2581 3239 2228 
Q 2838 1875 2053 1875 
L 1259 1875 
L 1259 0 
L 628 0 
L 628 4666 
z
" transform="scale(0.015625)"/>
       <path id="DejaVuSans-61" d="M 2194 1759 
Q 1497 1759 1228 1600 
Q 959 1441 959 1056 
Q 959 750 1161 570 
Q 1363 391 1709 391 
Q 2188 391 2477 730 
Q 2766 1069 2766 1631 
L 2766 1759 
L 2194 1759 
z
M 3341 1997 
L 3341 0 
L 2766 0 
L 2766 531 
Q 2569 213 2275 61 
Q 1981 -91 1556 -91 
Q 1019 -91 701 211 
Q 384 513 384 1019 
Q 384 1609 779 1909 
Q 1175 2209 1959 2209 
L 2766 2209 
L 2766 2266 
Q 2766 2663 2505 2880 
Q 2244 3097 1772 3097 
Q 1472 3097 1187 3025 
Q 903 2953 641 2809 
L 641 3341 
Q 956 3463 1253 3523 
Q 1550 3584 1831 3584 
Q 2591 3584 2966 3190 
Q 3341 2797 3341 1997 
z
" transform="scale(0.015625)"/>
       <path id="DejaVuSans-72" d="M 2631 2963 
Q 2534 3019 2420 3045 
Q 2306 3072 2169 3072 
Q 1681 3072 1420 2755 
Q 1159 2438 1159 1844 
L 1159 0 
L 581 0 
L 581 3500 
L 1159 3500 
L 1159 2956 
Q 1341 3275 1631 3429 
Q 1922 3584 2338 3584 
Q 2397 3584 2469 3576 
Q 2541 3569 2628 3553 
L 2631 2963 
z
" transform="scale(0.015625)"/>
       <path id="DejaVuSans-74" d="M 1172 4494 
L 1172 3500 
L 2356 3500 
L 2356 3053 
L 1172 3053 
L 1172 1153 
Q 1172 725 1289 603 
Q 1406 481 1766 481 
L 2356 481 
L 2356 0 
L 1766 0 
Q 1100 0 847 248 
Q 594 497 594 1153 
L 594 3053 
L 172 3053 
L 172 3500 
L 594 3500 
L 594 4494 
L 1172 4494 
z
" transform="scale(0.015625)"/>
       <path id="DejaVuSans-69" d="M 603 3500 
L 1178 3500 
L 1178 0 
L 603 0 
L 603 3500 
z
M 603 4863 
L 1178 4863 
L 1178 4134 
L 603 4134 
L 603 4863 
z
" transform="scale(0.015625)"/>
       <path id="DejaVuSans-65" d="M 3597 1894 
L 3597 1613 
L 953 1613 
Q 991 1019 1311 708 
Q 1631 397 2203 397 
Q 2534 397 2845 478 
Q 3156 559 3463 722 
L 3463 178 
Q 3153 47 2828 -22 
Q 2503 -91 2169 -91 
Q 1331 -91 842 396 
Q 353 884 353 1716 
Q 353 2575 817 3079 
Q 1281 3584 2069 3584 
Q 2775 3584 3186 3129 
Q 3597 2675 3597 1894 
z
M 3022 2063 
Q 3016 2534 2758 2815 
Q 2500 3097 2075 3097 
Q 1594 3097 1305 2825 
Q 1016 2553 972 2059 
L 3022 2063 
z
" transform="scale(0.015625)"/>
       <path id="DejaVuSans-73" d="M 2834 3397 
L 2834 2853 
Q 2591 2978 2328 3040 
Q 2066 3103 1784 3103 
Q 1356 3103 1142 2972 
Q 928 2841 928 2578 
Q 928 2378 1081 2264 
Q 1234 2150 1697 2047 
L 1894 2003 
Q 2506 1872 2764 1633 
Q 3022 1394 3022 966 
Q 3022 478 2636 193 
Q 2250 -91 1575 -91 
Q 1294 -91 989 -36 
Q 684 19 347 128 
L 347 722 
Q 666 556 975 473 
Q 1284 391 1588 391 
Q 1994 391 2212 530 
Q 2431 669 2431 922 
Q 2431 1156 2273 1281 
Q 2116 1406 1581 1522 
L 1381 1569 
Q 847 1681 609 1914 
Q 372 2147 372 2553 
Q 372 3047 722 3315 
Q 1072 3584 1716 3584 
Q 2034 3584 2315 3537 
Q 2597 3491 2834 3397 
z
" transform="scale(0.015625)"/>
       <path id="DejaVuSans-20" transform="scale(0.015625)"/>
       <path id="DejaVuSans-6e" d="M 3513 2113 
L 3513 0 
L 2938 0 
L 2938 2094 
Q 2938 2591 2744 2837 
Q 2550 3084 2163 3084 
Q 1697 3084 1428 2787 
Q 1159 2491 1159 1978 
L 1159 0 
L 581 0 
L 581 3500 
L 1159 3500 
L 1159 2956 
Q 1366 3272 1645 3428 
Q 1925 3584 2291 3584 
Q 2894 3584 3203 3211 
Q 3513 2838 3513 2113 
z
" transform="scale(0.015625)"/>
       <path id="DejaVuSans-6b" d="M 581 4863 
L 1159 4863 
L 1159 1991 
L 2875 3500 
L 3609 3500 
L 1753 1863 
L 3688 0 
L 2938 0 
L 1159 1709 
L 1159 0 
L 581 0 
L 581 4863 
z
" transform="scale(0.015625)"/>
       <path id="DejaVuSans-64" d="M 2906 2969 
L 2906 4863 
L 3481 4863 
L 3481 0 
L 2906 0 
L 2906 525 
Q 2725 213 2448 61 
Q 2172 -91 1784 -91 
Q 1150 -91 751 415 
Q 353 922 353 1747 
Q 353 2572 751 3078 
Q 1150 3584 1784 3584 
Q 2172 3584 2448 3432 
Q 2725 3281 2906 2969 
z
M 947 1747 
Q 947 1113 1208 752 
Q 1469 391 1925 391 
Q 2381 391 2643 752 
Q 2906 1113 2906 1747 
Q 2906 2381 2643 2742 
Q 2381 3103 1925 3103 
Q 1469 3103 1208 2742 
Q 947 2381 947 1747 
z
" transform="scale(0.015625)"/>
       <path id="DejaVuSans-62" d="M 3116 1747 
Q 3116 2381 2855 2742 
Q 2594 3103 2138 3103 
Q 1681 3103 1420 2742 
Q 1159 2381 1159 1747 
Q 1159 1113 1420 752 
Q 1681 391 2138 391 
Q 2594 391 2855 752 
Q 3116 1113 3116 1747 
z
M 1159 2969 
Q 1341 3281 1617 3432 
Q 1894 3584 2278 3584 
Q 2916 3584 3314 3078 
Q 3713 2572 3713 1747 
Q 3713 922 3314 415 
Q 2916 -91 2278 -91 
Q 1894 -91 1617 61 
Q 1341 213 1159 525 
L 1159 0 
L 581 0 
L 581 4863 
L 1159 4863 
L 1159 2969 
z
" transform="scale(0.015625)"/>
       <path id="DejaVuSans-79" d="M 2059 -325 
Q 1816 -950 1584 -1140 
Q 1353 -1331 966 -1331 
L 506 -1331 
L 506 -850 
L 844 -850 
Q 1081 -850 1212 -737 
Q 1344 -625 1503 -206 
L 1606 56 
L 191 3500 
L 800 3500 
L 1894 763 
L 2988 3500 
L 3597 3500 
L 2059 -325 
z
" transform="scale(0.015625)"/>
       <path id="DejaVuSans-55" d="M 556 4666 
L 1191 4666 
L 1191 1831 
Q 1191 1081 1462 751 
Q 1734 422 2344 422 
Q 2950 422 3222 751 
Q 3494 1081 3494 1831 
L 3494 4666 
L 4128 4666 
L 4128 1753 
Q 4128 841 3676 375 
Q 3225 -91 2344 -91 
Q 1459 -91 1007 375 
Q 556 841 556 1753 
L 556 4666 
z
" transform="scale(0.015625)"/>
       <path id="DejaVuSans-4e" d="M 628 4666 
L 1478 4666 
L 3547 763 
L 3547 4666 
L 4159 4666 
L 4159 0 
L 3309 0 
L 1241 3903 
L 1241 0 
L 628 0 
L 628 4666 
z
" transform="scale(0.015625)"/>
       <path id="DejaVuSans-53" d="M 3425 4513 
L 3425 3897 
Q 3066 4069 2747 4153 
Q 2428 4238 2131 4238 
Q 1616 4238 1336 4038 
Q 1056 3838 1056 3469 
Q 1056 3159 1242 3001 
Q 1428 2844 1947 2747 
L 2328 2669 
Q 3034 2534 3370 2195 
Q 3706 1856 3706 1288 
Q 3706 609 3251 259 
Q 2797 -91 1919 -91 
Q 1588 -91 1214 -16 
Q 841 59 441 206 
L 441 856 
Q 825 641 1194 531 
Q 1563 422 1919 422 
Q 2459 422 2753 634 
Q 3047 847 3047 1241 
Q 3047 1584 2836 1778 
Q 2625 1972 2144 2069 
L 1759 2144 
Q 1053 2284 737 2584 
Q 422 2884 422 3419 
Q 422 4038 858 4394 
Q 1294 4750 2059 4750 
Q 2388 4750 2728 4690 
Q 3069 4631 3425 4513 
z
" transform="scale(0.015625)"/>
       <path id="DejaVuSans-63" d="M 3122 3366 
L 3122 2828 
Q 2878 2963 2633 3030 
Q 2388 3097 2138 3097 
Q 1578 3097 1268 2742 
Q 959 2388 959 1747 
Q 959 1106 1268 751 
Q 1578 397 2138 397 
Q 2388 397 2633 464 
Q 2878 531 3122 666 
L 3122 134 
Q 2881 22 2623 -34 
Q 2366 -91 2075 -91 
Q 1284 -91 818 406 
Q 353 903 353 1747 
Q 353 2603 823 3093 
Q 1294 3584 2113 3584 
Q 2378 3584 2631 3529 
Q 2884 3475 3122 3366 
z
" transform="scale(0.015625)"/>
       <path id="DejaVuSans-6c" d="M 603 4863 
L 1178 4863 
L 1178 0 
L 603 0 
L 603 4863 
z
" transform="scale(0.015625)"/>
       <path id="DejaVuSans-68" d="M 3513 2113 
L 3513 0 
L 2938 0 
L 2938 2094 
Q 2938 2591 2744 2837 
Q 2550 3084 2163 3084 
Q 1697 3084 1428 2787 
Q 1159 2491 1159 1978 
L 1159 0 
L 581 0 
L 581 4863 
L 1159 4863 
L 1159 2956 
Q 1366 3272 1645 3428 
Q 1925 3584 2291 3584 
Q 2894 3584 3203 3211 
Q 3513 2838 3513 2113 
z
" transform="scale(0.015625)"/>
       <path id="DejaVuSans-28" d="M 1984 4856 
Q 1566 4138 1362 3434 
Q 1159 2731 1159 2009 
Q 1159 1288 1364 580 
Q 1569 -128 1984 -844 
L 1484 -844 
Q 1016 -109 783 600 
Q 550 1309 550 2009 
Q 550 2706 781 3412 
Q 1013 4119 1484 4856 
L 1984 4856 
z
" transform="scale(0.015625)"/>
       <path id="DejaVuSans-3d" d="M 678 2906 
L 4684 2906 
L 4684 2381 
L 678 2381 
L 678 2906 
z
M 678 1631 
L 4684 1631 
L 4684 1100 
L 678 1100 
L 678 1631 
z
" transform="scale(0.015625)"/>
       <path id="DejaVuSans-31" d="M 794 531 
L 1825 531 
L 1825 4091 
L 703 3866 
L 703 4441 
L 1819 4666 
L 2450 4666 
L 2450 531 
L 3481 531 
L 3481 0 
L 794 0 
L 794 531 
z
" transform="scale(0.015625)"/>
       <path id="DejaVuSans-34" d="M 2419 4116 
L 825 1625 
L 2419 1625 
L 2419 4116 
z
M 2253 4666 
L 3047 4666 
L 3047 1625 
L 3713 1625 
L 3713 1100 
L 3047 1100 
L 3047 0 
L 2419 0 
L 2419 1100 
L 313 1100 
L 313 1709 
L 2253 4666 
z
" transform="scale(0.015625)"/>
       <path id="DejaVuSans-32" d="M 1228 531 
L 3431 531 
L 3431 0 
L 469 0 
L 469 531 
Q 828 903 1448 1529 
Q 2069 2156 2228 2338 
Q 2531 2678 2651 2914 
Q 2772 3150 2772 3378 
Q 2772 3750 2511 3984 
Q 2250 4219 1831 4219 
Q 1534 4219 1204 4116 
Q 875 4013 500 3803 
L 500 4441 
Q 881 4594 1212 4672 
Q 1544 4750 1819 4750 
Q 2544 4750 2975 4387 
Q 3406 4025 3406 3419 
Q 3406 3131 3298 2873 
Q 3191 2616 2906 2266 
Q 2828 2175 2409 1742 
Q 1991 1309 1228 531 
z
" transform="scale(0.015625)"/>
       <path id="DejaVuSans-29" d="M 513 4856 
L 1013 4856 
Q 1481 4119 1714 3412 
Q 1947 2706 1947 2009 
Q 1947 1309 1714 600 
Q 1481 -109 1013 -844 
L 513 -844 
Q 928 -128 1133 580 
Q 1338 1288 1338 2009 
Q 1338 2731 1133 3434 
Q 928 4138 513 4856 
z
" transform="scale(0.015625)"/>
      </defs>
      <use xlink:href="#DejaVuSans-50"/>
      <use xlink:href="#DejaVuSans-61" transform="translate(55.802734 0)"/>
      <use xlink:href="#DejaVuSans-72" transform="translate(117.082031 0)"/>
      <use xlink:href="#DejaVuSans-74" transform="translate(158.195312 0)"/>
      <use xlink:href="#DejaVuSans-69" transform="translate(197.404297 0)"/>
      <use xlink:href="#DejaVuSans-65" transform="translate(225.1875 0)"/>
      <use xlink:href="#DejaVuSans-73" transform="translate(286.710938 0)"/>
      <use xlink:href="#DejaVuSans-20" transform="translate(338.810547 0)"/>
      <use xlink:href="#DejaVuSans-72" transform="translate(370.597656 0)"/>
      <use xlink:href="#DejaVuSans-61" transform="translate(411.710938 0)"/>
      <use xlink:href="#DejaVuSans-6e" transform="translate(472.990234 0)"/>
      <use xlink:href="#DejaVuSans-6b" transform="translate(536.369141 0)"/>
      <use xlink:href="#DejaVuSans-65" transform="translate(590.654297 0)"/>
      <use xlink:href="#DejaVuSans-64" transform="translate(652.177734 0)"/>
      <use xlink:href="#DejaVuSans-20" transform="translate(715.654297 0)"/>
      <use xlink:href="#DejaVuSans-62" transform="translate(747.441406 0)"/>
      <use xlink:href="#DejaVuSans-79" transform="translate(810.917969 0)"/>
      <use xlink:href="#DejaVuSans-20" transform="translate(870.097656 0)"/>
      <use xlink:href="#DejaVuSans-55" transform="translate(901.884766 0)"/>
      <use xlink:href="#DejaVuSans-4e" transform="translate(975.078125 0)"/>
      <use xlink:href="#DejaVuSans-20" transform="translate(1049.882812 0)"/>
      <use xlink:href="#DejaVuSans-53" transform="translate(1081.669922 0)"/>
      <use xlink:href="#DejaVuSans-63" transform="translate(1145.146484 0)"/>
      <use xlink:href="#DejaVuSans-61" transform="translate(1200.126953 0)"/>
      <use xlink:href="#DejaVuSans-6c" transform="translate(1261.40625 0)"/>
      <use xlink:href="#DejaVuSans-65" transform="translate(1289.189453 0)"/>
      <use xlink:href="#DejaVuSans-20" transform="translate(1350.712891 0)"/>
      <use xlink:href="#DejaVuSans-73" transform="translate(1382.5 0)"/>
      <use xlink:href="#DejaVuSans-68" transform="translate(1434.599609 0)"/>
      <use xlink:href="#DejaVuSans-61" transform="translate(1497.978516 0)"/>
      <use xlink:href="#DejaVuSans-72" transform="translate(1559.257812 0)"/>
      <use xlink:href="#DejaVuSans-65" transform="translate(1598.121094 0)"/>
      <use xlink:href="#DejaVuSans-20" transform="translate(1659.644531 0)"/>
      <use xlink:href="#DejaVuSans-28" transform="translate(1691.431641 0)"/>
      <use xlink:href="#DejaVuSans-4e" transform="translate(1730.445312 0)"/>
      <use xlink:href="#DejaVuSans-3d" transform="translate(1805.25 0)"/>
      <use xlink:href="#DejaVuSans-31" transform="translate(1889.039062 0)"/>
      <use xlink:href="#DejaVuSans-34" transform="translate(1952.662109 0)"/>
      <use xlink:href="#DejaVuSans-32" transform="translate(2016.285156 0)"/>
      <use xlink:href="#DejaVuSans-29" transform="translate(2079.908203 0)"/>
     </g>
    </g>
   </g>
   <g id="matplotlib.axis_2">
    <g id="ytick_1">
     <g id="line2d_1">
      <path d="M 51.111563 330.179125 
L 990.832267 330.179125 
" clip-path="url(#p51660788a4)" style="fill: none; stroke: #b0b0b0; stroke-opacity: 0.3; stroke-width: 0.8; stroke-linecap: square"/>
     </g>
     <g id="line2d_2">
      <defs>
       <path id="m9bca7e2e71" d="M 0 0 
L -3.5 0 
" style="stroke: #000000; stroke-width: 0.8"/>
      </defs>
      <g>
       <use xlink:href="#m9bca7e2e71" x="51.111563" y="330.179125" style="stroke: #000000; stroke-width: 0.8"/>
      </g>
     </g>
     <g id="text_2">
      <!-- 0.0 -->
      <g transform="translate(28.208438 333.978344) scale(0.1 -0.1)">
       <defs>
        <path id="DejaVuSans-30" d="M 2034 4250 
Q 1547 4250 1301 3770 
Q 1056 3291 1056 2328 
Q 1056 1369 1301 889 
Q 1547 409 2034 409 
Q 2525 409 2770 889 
Q 3016 1369 3016 2328 
Q 3016 3291 2770 3770 
Q 2525 4250 2034 4250 
z
M 2034 4750 
Q 2819 4750 3233 4129 
Q 3647 3509 3647 2328 
Q 3647 1150 3233 529 
Q 2819 -91 2034 -91 
Q 1250 -91 836 529 
Q 422 1150 422 2328 
Q 422 3509 836 4129 
Q 1250 4750 2034 4750 
z
" transform="scale(0.015625)"/>
        <path id="DejaVuSans-2e" d="M 684 794 
L 1344 794 
L 1344 0 
L 684 0 
L 684 794 
z
" transform="scale(0.015625)"/>
       </defs>
       <use xlink:href="#DejaVuSans-30"/>
       <use xlink:href="#DejaVuSans-2e" transform="translate(63.623047 0)"/>
       <use xlink:href="#DejaVuSans-30" transform="translate(95.410156 0)"/>
      </g>
     </g>
    </g>
    <g id="ytick_2">
     <g id="line2d_3">
      <path d="M 51.111563 295.359422 
L 990.832267 295.359422 
" clip-path="url(#p51660788a4)" style="fill: none; stroke: #b0b0b0; stroke-opacity: 0.3; stroke-width: 0.8; stroke-linecap: square"/>
     </g>
     <g id="line2d_4">
      <g>
       <use xlink:href="#m9bca7e2e71" x="51.111563" y="295.359422" style="stroke: #000000; stroke-width: 0.8"/>
      </g>
     </g>
     <g id="text_3">
      <!-- 2.5 -->
      <g transform="translate(28.208438 299.158641) scale(0.1 -0.1)">
       <defs>
        <path id="DejaVuSans-35" d="M 691 4666 
L 3169 4666 
L 3169 4134 
L 1269 4134 
L 1269 2991 
Q 1406 3038 1543 3061 
Q 1681 3084 1819 3084 
Q 2600 3084 3056 2656 
Q 3513 2228 3513 1497 
Q 3513 744 3044 326 
Q 2575 -91 1722 -91 
Q 1428 -91 1123 -41 
Q 819 9 494 109 
L 494 744 
Q 775 591 1075 516 
Q 1375 441 1709 441 
Q 2250 441 2565 725 
Q 2881 1009 2881 1497 
Q 2881 1984 2565 2268 
Q 2250 2553 1709 2553 
Q 1456 2553 1204 2497 
Q 953 2441 691 2322 
L 691 4666 
z
" transform="scale(0.015625)"/>
       </defs>
       <use xlink:href="#DejaVuSans-32"/>
       <use xlink:href="#DejaVuSans-2e" transform="translate(63.623047 0)"/>
       <use xlink:href="#DejaVuSans-35" transform="translate(95.410156 0)"/>
      </g>
     </g>
    </g>
    <g id="ytick_3">
     <g id="line2d_5">
      <path d="M 51.111563 260.53972 
L 990.832267 260.53972 
" clip-path="url(#p51660788a4)" style="fill: none; stroke: #b0b0b0; stroke-opacity: 0.3; stroke-width: 0.8; stroke-linecap: square"/>
     </g>
     <g id="line2d_6">
      <g>
       <use xlink:href="#m9bca7e2e71" x="51.111563" y="260.53972" style="stroke: #000000; stroke-width: 0.8"/>
      </g>
     </g>
     <g id="text_4">
      <!-- 5.0 -->
      <g transform="translate(28.208438 264.338938) scale(0.1 -0.1)">
       <use xlink:href="#DejaVuSans-35"/>
       <use xlink:href="#DejaVuSans-2e" transform="translate(63.623047 0)"/>
       <use xlink:href="#DejaVuSans-30" transform="translate(95.410156 0)"/>
      </g>
     </g>
    </g>
    <g id="ytick_4">
     <g id="line2d_7">
      <path d="M 51.111563 225.720017 
L 990.832267 225.720017 
" clip-path="url(#p51660788a4)" style="fill: none; stroke: #b0b0b0; stroke-opacity: 0.3; stroke-width: 0.8; stroke-linecap: square"/>
     </g>
     <g id="line2d_8">
      <g>
       <use xlink:href="#m9bca7e2e71" x="51.111563" y="225.720017" style="stroke: #000000; stroke-width: 0.8"/>
      </g>
     </g>
     <g id="text_5">
      <!-- 7.5 -->
      <g transform="translate(28.208438 229.519236) scale(0.1 -0.1)">
       <defs>
        <path id="DejaVuSans-37" d="M 525 4666 
L 3525 4666 
L 3525 4397 
L 1831 0 
L 1172 0 
L 2766 4134 
L 525 4134 
L 525 4666 
z
" transform="scale(0.015625)"/>
       </defs>
       <use xlink:href="#DejaVuSans-37"/>
       <use xlink:href="#DejaVuSans-2e" transform="translate(63.623047 0)"/>
       <use xlink:href="#DejaVuSans-35" transform="translate(95.410156 0)"/>
      </g>
     </g>
    </g>
    <g id="ytick_5">
     <g id="line2d_9">
      <path d="M 51.111563 190.900314 
L 990.832267 190.900314 
" clip-path="url(#p51660788a4)" style="fill: none; stroke: #b0b0b0; stroke-opacity: 0.3; stroke-width: 0.8; stroke-linecap: square"/>
     </g>
     <g id="line2d_10">
      <g>
       <use xlink:href="#m9bca7e2e71" x="51.111563" y="190.900314" style="stroke: #000000; stroke-width: 0.8"/>
      </g>
     </g>
     <g id="text_6">
      <!-- 10.0 -->
      <g transform="translate(21.845938 194.699533) scale(0.1 -0.1)">
       <use xlink:href="#DejaVuSans-31"/>
       <use xlink:href="#DejaVuSans-30" transform="translate(63.623047 0)"/>
       <use xlink:href="#DejaVuSans-2e" transform="translate(127.246094 0)"/>
       <use xlink:href="#DejaVuSans-30" transform="translate(159.033203 0)"/>
      </g>
     </g>
    </g>
    <g id="ytick_6">
     <g id="line2d_11">
      <path d="M 51.111563 156.080611 
L 990.832267 156.080611 
" clip-path="url(#p51660788a4)" style="fill: none; stroke: #b0b0b0; stroke-opacity: 0.3; stroke-width: 0.8; stroke-linecap: square"/>
     </g>
     <g id="line2d_12">
      <g>
       <use xlink:href="#m9bca7e2e71" x="51.111563" y="156.080611" style="stroke: #000000; stroke-width: 0.8"/>
      </g>
     </g>
     <g id="text_7">
      <!-- 12.5 -->
      <g transform="translate(21.845938 159.87983) scale(0.1 -0.1)">
       <use xlink:href="#DejaVuSans-31"/>
       <use xlink:href="#DejaVuSans-32" transform="translate(63.623047 0)"/>
       <use xlink:href="#DejaVuSans-2e" transform="translate(127.246094 0)"/>
       <use xlink:href="#DejaVuSans-35" transform="translate(159.033203 0)"/>
      </g>
     </g>
    </g>
    <g id="ytick_7">
     <g id="line2d_13">
      <path d="M 51.111563 121.260909 
L 990.832267 121.260909 
" clip-path="url(#p51660788a4)" style="fill: none; stroke: #b0b0b0; stroke-opacity: 0.3; stroke-width: 0.8; stroke-linecap: square"/>
     </g>
     <g id="line2d_14">
      <g>
       <use xlink:href="#m9bca7e2e71" x="51.111563" y="121.260909" style="stroke: #000000; stroke-width: 0.8"/>
      </g>
     </g>
     <g id="text_8">
      <!-- 15.0 -->
      <g transform="translate(21.845938 125.060127) scale(0.1 -0.1)">
       <use xlink:href="#DejaVuSans-31"/>
       <use xlink:href="#DejaVuSans-35" transform="translate(63.623047 0)"/>
       <use xlink:href="#DejaVuSans-2e" transform="translate(127.246094 0)"/>
       <use xlink:href="#DejaVuSans-30" transform="translate(159.033203 0)"/>
      </g>
     </g>
    </g>
    <g id="ytick_8">
     <g id="line2d_15">
      <path d="M 51.111563 86.441206 
L 990.832267 86.441206 
" clip-path="url(#p51660788a4)" style="fill: none; stroke: #b0b0b0; stroke-opacity: 0.3; stroke-width: 0.8; stroke-linecap: square"/>
     </g>
     <g id="line2d_16">
      <g>
       <use xlink:href="#m9bca7e2e71" x="51.111563" y="86.441206" style="stroke: #000000; stroke-width: 0.8"/>
      </g>
     </g>
     <g id="text_9">
      <!-- 17.5 -->
      <g transform="translate(21.845938 90.240425) scale(0.1 -0.1)">
       <use xlink:href="#DejaVuSans-31"/>
       <use xlink:href="#DejaVuSans-37" transform="translate(63.623047 0)"/>
       <use xlink:href="#DejaVuSans-2e" transform="translate(127.246094 0)"/>
       <use xlink:href="#DejaVuSans-35" transform="translate(159.033203 0)"/>
      </g>
     </g>
    </g>
    <g id="ytick_9">
     <g id="line2d_17">
      <path d="M 51.111563 51.621503 
L 990.832267 51.621503 
" clip-path="url(#p51660788a4)" style="fill: none; stroke: #b0b0b0; stroke-opacity: 0.3; stroke-width: 0.8; stroke-linecap: square"/>
     </g>
     <g id="line2d_18">
      <g>
       <use xlink:href="#m9bca7e2e71" x="51.111563" y="51.621503" style="stroke: #000000; stroke-width: 0.8"/>
      </g>
     </g>
     <g id="text_10">
      <!-- 20.0 -->
      <g transform="translate(21.845938 55.420722) scale(0.1 -0.1)">
       <use xlink:href="#DejaVuSans-32"/>
       <use xlink:href="#DejaVuSans-30" transform="translate(63.623047 0)"/>
       <use xlink:href="#DejaVuSans-2e" transform="translate(127.246094 0)"/>
       <use xlink:href="#DejaVuSans-30" transform="translate(159.033203 0)"/>
      </g>
     </g>
    </g>
    <g id="text_11">
     <!-- UN Scale of Assessment Share (%) -->
     <g transform="translate(15.558281 279.264234) rotate(-90) scale(0.11 -0.11)">
      <defs>
       <path id="DejaVuSans-6f" d="M 1959 3097 
Q 1497 3097 1228 2736 
Q 959 2375 959 1747 
Q 959 1119 1226 758 
Q 1494 397 1959 397 
Q 2419 397 2687 759 
Q 2956 1122 2956 1747 
Q 2956 2369 2687 2733 
Q 2419 3097 1959 3097 
z
M 1959 3584 
Q 2709 3584 3137 3096 
Q 3566 2609 3566 1747 
Q 3566 888 3137 398 
Q 2709 -91 1959 -91 
Q 1206 -91 779 398 
Q 353 888 353 1747 
Q 353 2609 779 3096 
Q 1206 3584 1959 3584 
z
" transform="scale(0.015625)"/>
       <path id="DejaVuSans-66" d="M 2375 4863 
L 2375 4384 
L 1825 4384 
Q 1516 4384 1395 4259 
Q 1275 4134 1275 3809 
L 1275 3500 
L 2222 3500 
L 2222 3053 
L 1275 3053 
L 1275 0 
L 697 0 
L 697 3053 
L 147 3053 
L 147 3500 
L 697 3500 
L 697 3744 
Q 697 4328 969 4595 
Q 1241 4863 1831 4863 
L 2375 4863 
z
" transform="scale(0.015625)"/>
       <path id="DejaVuSans-41" d="M 2188 4044 
L 1331 1722 
L 3047 1722 
L 2188 4044 
z
M 1831 4666 
L 2547 4666 
L 4325 0 
L 3669 0 
L 3244 1197 
L 1141 1197 
L 716 0 
L 50 0 
L 1831 4666 
z
" transform="scale(0.015625)"/>
       <path id="DejaVuSans-6d" d="M 3328 2828 
Q 3544 3216 3844 3400 
Q 4144 3584 4550 3584 
Q 5097 3584 5394 3201 
Q 5691 2819 5691 2113 
L 5691 0 
L 5113 0 
L 5113 2094 
Q 5113 2597 4934 2840 
Q 4756 3084 4391 3084 
Q 3944 3084 3684 2787 
Q 3425 2491 3425 1978 
L 3425 0 
L 2847 0 
L 2847 2094 
Q 2847 2600 2669 2842 
Q 2491 3084 2119 3084 
Q 1678 3084 1418 2786 
Q 1159 2488 1159 1978 
L 1159 0 
L 581 0 
L 581 3500 
L 1159 3500 
L 1159 2956 
Q 1356 3278 1631 3431 
Q 1906 3584 2284 3584 
Q 2666 3584 2933 3390 
Q 3200 3197 3328 2828 
z
" transform="scale(0.015625)"/>
       <path id="DejaVuSans-25" d="M 4653 2053 
Q 4381 2053 4226 1822 
Q 4072 1591 4072 1178 
Q 4072 772 4226 539 
Q 4381 306 4653 306 
Q 4919 306 5073 539 
Q 5228 772 5228 1178 
Q 5228 1588 5073 1820 
Q 4919 2053 4653 2053 
z
M 4653 2450 
Q 5147 2450 5437 2106 
Q 5728 1763 5728 1178 
Q 5728 594 5436 251 
Q 5144 -91 4653 -91 
Q 4153 -91 3862 251 
Q 3572 594 3572 1178 
Q 3572 1766 3864 2108 
Q 4156 2450 4653 2450 
z
M 1428 4353 
Q 1159 4353 1004 4120 
Q 850 3888 850 3481 
Q 850 3069 1003 2837 
Q 1156 2606 1428 2606 
Q 1700 2606 1854 2837 
Q 2009 3069 2009 3481 
Q 2009 3884 1853 4118 
Q 1697 4353 1428 4353 
z
M 4250 4750 
L 4750 4750 
L 1831 -91 
L 1331 -91 
L 4250 4750 
z
M 1428 4750 
Q 1922 4750 2215 4408 
Q 2509 4066 2509 3481 
Q 2509 2891 2217 2550 
Q 1925 2209 1428 2209 
Q 931 2209 642 2551 
Q 353 2894 353 3481 
Q 353 4063 643 4406 
Q 934 4750 1428 4750 
z
" transform="scale(0.015625)"/>
      </defs>
      <use xlink:href="#DejaVuSans-55"/>
      <use xlink:href="#DejaVuSans-4e" transform="translate(73.193359 0)"/>
      <use xlink:href="#DejaVuSans-20" transform="translate(147.998047 0)"/>
      <use xlink:href="#DejaVuSans-53" transform="translate(179.785156 0)"/>
      <use xlink:href="#DejaVuSans-63" transform="translate(243.261719 0)"/>
      <use xlink:href="#DejaVuSans-61" transform="translate(298.242188 0)"/>
      <use xlink:href="#DejaVuSans-6c" transform="translate(359.521484 0)"/>
      <use xlink:href="#DejaVuSans-65" transform="translate(387.304688 0)"/>
      <use xlink:href="#DejaVuSans-20" transform="translate(448.828125 0)"/>
      <use xlink:href="#DejaVuSans-6f" transform="translate(480.615234 0)"/>
      <use xlink:href="#DejaVuSans-66" transform="translate(541.796875 0)"/>
      <use xlink:href="#DejaVuSans-20" transform="translate(577.001953 0)"/>
      <use xlink:href="#DejaVuSans-41" transform="translate(608.789062 0)"/>
      <use xlink:href="#DejaVuSans-73" transform="translate(677.197266 0)"/>
      <use xlink:href="#DejaVuSans-73" transform="translate(729.296875 0)"/>
      <use xlink:href="#DejaVuSans-65" transform="translate(781.396484 0)"/>
      <use xlink:href="#DejaVuSans-73" transform="translate(842.919922 0)"/>
      <use xlink:href="#DejaVuSans-73" transform="translate(895.019531 0)"/>
      <use xlink:href="#DejaVuSans-6d" transform="translate(947.119141 0)"/>
      <use xlink:href="#DejaVuSans-65" transform="translate(1044.53125 0)"/>
      <use xlink:href="#DejaVuSans-6e" transform="translate(1106.054688 0)"/>
      <use xlink:href="#DejaVuSans-74" transform="translate(1169.433594 0)"/>
      <use xlink:href="#DejaVuSans-20" transform="translate(1208.642578 0)"/>
      <use xlink:href="#DejaVuSans-53" transform="translate(1240.429688 0)"/>
      <use xlink:href="#DejaVuSans-68" transform="translate(1303.90625 0)"/>
      <use xlink:href="#DejaVuSans-61" transform="translate(1367.285156 0)"/>
      <use xlink:href="#DejaVuSans-72" transform="translate(1428.564453 0)"/>
      <use xlink:href="#DejaVuSans-65" transform="translate(1467.427734 0)"/>
      <use xlink:href="#DejaVuSans-20" transform="translate(1528.951172 0)"/>
      <use xlink:href="#DejaVuSans-28" transform="translate(1560.738281 0)"/>
      <use xlink:href="#DejaVuSans-25" transform="translate(1599.751953 0)"/>
      <use xlink:href="#DejaVuSans-29" transform="translate(1694.771484 0)"/>
     </g>
    </g>
   </g>
   <g id="patch_145">
    <path d="M 51.111563 330.179125 
L 51.111563 37.635125 
" style="fill: none; stroke: #000000; stroke-width: 0.8; stroke-linejoin: miter; stroke-linecap: square"/>
   </g>
   <g id="patch_146">
    <path d="M 990.832267 330.179125 
L 990.832267 37.635125 
" style="fill: none; stroke: #000000; stroke-width: 0.8; stroke-linejoin: miter; stroke-linecap: square"/>
   </g>
   <g id="patch_147">
    <path d="M 51.111563 330.179125 
L 990.832267 330.179125 
" style="fill: none; stroke: #000000; stroke-width: 0.8; stroke-linejoin: miter; stroke-linecap: square"/>
   </g>
   <g id="patch_148">
    <path d="M 51.111563 37.635125 
L 990.832267 37.635125 
" style="fill: none; stroke: #000000; stroke-width: 0.8; stroke-linejoin: miter; stroke-linecap: square"/>
   </g>
   <g id="text_12">
    <!-- 20.00% -->
    <g style="fill: #555555" transform="translate(69.420438 41.565792) scale(0.08 -0.08)">
     <use xlink:href="#DejaVuSans-32"/>
     <use xlink:href="#DejaVuSans-30" transform="translate(63.623047 0)"/>
     <use xlink:href="#DejaVuSans-2e" transform="translate(127.246094 0)"/>
     <use xlink:href="#DejaVuSans-30" transform="translate(159.033203 0)"/>
     <use xlink:href="#DejaVuSans-30" transform="translate(222.65625 0)"/>
     <use xlink:href="#DejaVuSans-25" transform="translate(286.279297 0)"/>
    </g>
   </g>
   <g id="text_13">
    <!-- 0% -->
    <g style="fill: #999999" transform="translate(981.970969 325.179125) scale(0.07 -0.07)">
     <use xlink:href="#DejaVuSans-30"/>
     <use xlink:href="#DejaVuSans-25" transform="translate(63.623047 0)"/>
    </g>
   </g>
   <g id="text_14">
    <!-- UN Scale of Assessment Shares (2027) -->
    <g transform="translate(379.050508 17.077969) scale(0.13 -0.13)">
     <defs>
      <path id="DejaVuSans-Bold-55" d="M 588 4666 
L 1791 4666 
L 1791 1869 
Q 1791 1291 1980 1042 
Q 2169 794 2597 794 
Q 3028 794 3217 1042 
Q 3406 1291 3406 1869 
L 3406 4666 
L 4609 4666 
L 4609 1869 
Q 4609 878 4112 393 
Q 3616 -91 2597 -91 
Q 1581 -91 1084 393 
Q 588 878 588 1869 
L 588 4666 
z
" transform="scale(0.015625)"/>
      <path id="DejaVuSans-Bold-4e" d="M 588 4666 
L 1931 4666 
L 3628 1466 
L 3628 4666 
L 4769 4666 
L 4769 0 
L 3425 0 
L 1728 3200 
L 1728 0 
L 588 0 
L 588 4666 
z
" transform="scale(0.015625)"/>
      <path id="DejaVuSans-Bold-20" transform="scale(0.015625)"/>
      <path id="DejaVuSans-Bold-53" d="M 3834 4519 
L 3834 3531 
Q 3450 3703 3084 3790 
Q 2719 3878 2394 3878 
Q 1963 3878 1756 3759 
Q 1550 3641 1550 3391 
Q 1550 3203 1689 3098 
Q 1828 2994 2194 2919 
L 2706 2816 
Q 3484 2659 3812 2340 
Q 4141 2022 4141 1434 
Q 4141 663 3683 286 
Q 3225 -91 2284 -91 
Q 1841 -91 1394 -6 
Q 947 78 500 244 
L 500 1259 
Q 947 1022 1364 901 
Q 1781 781 2169 781 
Q 2563 781 2772 912 
Q 2981 1044 2981 1288 
Q 2981 1506 2839 1625 
Q 2697 1744 2272 1838 
L 1806 1941 
Q 1106 2091 782 2419 
Q 459 2747 459 3303 
Q 459 4000 909 4375 
Q 1359 4750 2203 4750 
Q 2588 4750 2994 4692 
Q 3400 4634 3834 4519 
z
" transform="scale(0.015625)"/>
      <path id="DejaVuSans-Bold-63" d="M 3366 3391 
L 3366 2478 
Q 3138 2634 2908 2709 
Q 2678 2784 2431 2784 
Q 1963 2784 1702 2511 
Q 1441 2238 1441 1747 
Q 1441 1256 1702 982 
Q 1963 709 2431 709 
Q 2694 709 2930 787 
Q 3166 866 3366 1019 
L 3366 103 
Q 3103 6 2833 -42 
Q 2563 -91 2291 -91 
Q 1344 -91 809 395 
Q 275 881 275 1747 
Q 275 2613 809 3098 
Q 1344 3584 2291 3584 
Q 2566 3584 2833 3536 
Q 3100 3488 3366 3391 
z
" transform="scale(0.015625)"/>
      <path id="DejaVuSans-Bold-61" d="M 2106 1575 
Q 1756 1575 1579 1456 
Q 1403 1338 1403 1106 
Q 1403 894 1545 773 
Q 1688 653 1941 653 
Q 2256 653 2472 879 
Q 2688 1106 2688 1447 
L 2688 1575 
L 2106 1575 
z
M 3816 1997 
L 3816 0 
L 2688 0 
L 2688 519 
Q 2463 200 2181 54 
Q 1900 -91 1497 -91 
Q 953 -91 614 226 
Q 275 544 275 1050 
Q 275 1666 698 1953 
Q 1122 2241 2028 2241 
L 2688 2241 
L 2688 2328 
Q 2688 2594 2478 2717 
Q 2269 2841 1825 2841 
Q 1466 2841 1156 2769 
Q 847 2697 581 2553 
L 581 3406 
Q 941 3494 1303 3539 
Q 1666 3584 2028 3584 
Q 2975 3584 3395 3211 
Q 3816 2838 3816 1997 
z
" transform="scale(0.015625)"/>
      <path id="DejaVuSans-Bold-6c" d="M 538 4863 
L 1656 4863 
L 1656 0 
L 538 0 
L 538 4863 
z
" transform="scale(0.015625)"/>
      <path id="DejaVuSans-Bold-65" d="M 4031 1759 
L 4031 1441 
L 1416 1441 
Q 1456 1047 1700 850 
Q 1944 653 2381 653 
Q 2734 653 3104 758 
Q 3475 863 3866 1075 
L 3866 213 
Q 3469 63 3072 -14 
Q 2675 -91 2278 -91 
Q 1328 -91 801 392 
Q 275 875 275 1747 
Q 275 2603 792 3093 
Q 1309 3584 2216 3584 
Q 3041 3584 3536 3087 
Q 4031 2591 4031 1759 
z
M 2881 2131 
Q 2881 2450 2695 2645 
Q 2509 2841 2209 2841 
Q 1884 2841 1681 2658 
Q 1478 2475 1428 2131 
L 2881 2131 
z
" transform="scale(0.015625)"/>
      <path id="DejaVuSans-Bold-6f" d="M 2203 2784 
Q 1831 2784 1636 2517 
Q 1441 2250 1441 1747 
Q 1441 1244 1636 976 
Q 1831 709 2203 709 
Q 2569 709 2762 976 
Q 2956 1244 2956 1747 
Q 2956 2250 2762 2517 
Q 2569 2784 2203 2784 
z
M 2203 3584 
Q 3106 3584 3614 3096 
Q 4122 2609 4122 1747 
Q 4122 884 3614 396 
Q 3106 -91 2203 -91 
Q 1297 -91 786 396 
Q 275 884 275 1747 
Q 275 2609 786 3096 
Q 1297 3584 2203 3584 
z
" transform="scale(0.015625)"/>
      <path id="DejaVuSans-Bold-66" d="M 2841 4863 
L 2841 4128 
L 2222 4128 
Q 1984 4128 1890 4042 
Q 1797 3956 1797 3744 
L 1797 3500 
L 2753 3500 
L 2753 2700 
L 1797 2700 
L 1797 0 
L 678 0 
L 678 2700 
L 122 2700 
L 122 3500 
L 678 3500 
L 678 3744 
Q 678 4316 997 4589 
Q 1316 4863 1984 4863 
L 2841 4863 
z
" transform="scale(0.015625)"/>
      <path id="DejaVuSans-Bold-41" d="M 3419 850 
L 1538 850 
L 1241 0 
L 31 0 
L 1759 4666 
L 3194 4666 
L 4922 0 
L 3713 0 
L 3419 850 
z
M 1838 1716 
L 3116 1716 
L 2478 3572 
L 1838 1716 
z
" transform="scale(0.015625)"/>
      <path id="DejaVuSans-Bold-73" d="M 3272 3391 
L 3272 2541 
Q 2913 2691 2578 2766 
Q 2244 2841 1947 2841 
Q 1628 2841 1473 2761 
Q 1319 2681 1319 2516 
Q 1319 2381 1436 2309 
Q 1553 2238 1856 2203 
L 2053 2175 
Q 2913 2066 3209 1816 
Q 3506 1566 3506 1031 
Q 3506 472 3093 190 
Q 2681 -91 1863 -91 
Q 1516 -91 1145 -36 
Q 775 19 384 128 
L 384 978 
Q 719 816 1070 734 
Q 1422 653 1784 653 
Q 2113 653 2278 743 
Q 2444 834 2444 1013 
Q 2444 1163 2330 1236 
Q 2216 1309 1875 1350 
L 1678 1375 
Q 931 1469 631 1722 
Q 331 1975 331 2491 
Q 331 3047 712 3315 
Q 1094 3584 1881 3584 
Q 2191 3584 2531 3537 
Q 2872 3491 3272 3391 
z
" transform="scale(0.015625)"/>
      <path id="DejaVuSans-Bold-6d" d="M 3781 2919 
Q 3994 3244 4286 3414 
Q 4578 3584 4928 3584 
Q 5531 3584 5847 3212 
Q 6163 2841 6163 2131 
L 6163 0 
L 5038 0 
L 5038 1825 
Q 5041 1866 5042 1909 
Q 5044 1953 5044 2034 
Q 5044 2406 4934 2573 
Q 4825 2741 4581 2741 
Q 4263 2741 4089 2478 
Q 3916 2216 3909 1719 
L 3909 0 
L 2784 0 
L 2784 1825 
Q 2784 2406 2684 2573 
Q 2584 2741 2328 2741 
Q 2006 2741 1831 2477 
Q 1656 2213 1656 1722 
L 1656 0 
L 531 0 
L 531 3500 
L 1656 3500 
L 1656 2988 
Q 1863 3284 2130 3434 
Q 2397 3584 2719 3584 
Q 3081 3584 3359 3409 
Q 3638 3234 3781 2919 
z
" transform="scale(0.015625)"/>
      <path id="DejaVuSans-Bold-6e" d="M 4056 2131 
L 4056 0 
L 2931 0 
L 2931 347 
L 2931 1631 
Q 2931 2084 2911 2256 
Q 2891 2428 2841 2509 
Q 2775 2619 2662 2680 
Q 2550 2741 2406 2741 
Q 2056 2741 1856 2470 
Q 1656 2200 1656 1722 
L 1656 0 
L 538 0 
L 538 3500 
L 1656 3500 
L 1656 2988 
Q 1909 3294 2193 3439 
Q 2478 3584 2822 3584 
Q 3428 3584 3742 3212 
Q 4056 2841 4056 2131 
z
" transform="scale(0.015625)"/>
      <path id="DejaVuSans-Bold-74" d="M 1759 4494 
L 1759 3500 
L 2913 3500 
L 2913 2700 
L 1759 2700 
L 1759 1216 
Q 1759 972 1856 886 
Q 1953 800 2241 800 
L 2816 800 
L 2816 0 
L 1856 0 
Q 1194 0 917 276 
Q 641 553 641 1216 
L 641 2700 
L 84 2700 
L 84 3500 
L 641 3500 
L 641 4494 
L 1759 4494 
z
" transform="scale(0.015625)"/>
      <path id="DejaVuSans-Bold-68" d="M 4056 2131 
L 4056 0 
L 2931 0 
L 2931 347 
L 2931 1625 
Q 2931 2084 2911 2256 
Q 2891 2428 2841 2509 
Q 2775 2619 2662 2680 
Q 2550 2741 2406 2741 
Q 2056 2741 1856 2470 
Q 1656 2200 1656 1722 
L 1656 0 
L 538 0 
L 538 4863 
L 1656 4863 
L 1656 2988 
Q 1909 3294 2193 3439 
Q 2478 3584 2822 3584 
Q 3428 3584 3742 3212 
Q 4056 2841 4056 2131 
z
" transform="scale(0.015625)"/>
      <path id="DejaVuSans-Bold-72" d="M 3138 2547 
Q 2991 2616 2845 2648 
Q 2700 2681 2553 2681 
Q 2122 2681 1889 2404 
Q 1656 2128 1656 1613 
L 1656 0 
L 538 0 
L 538 3500 
L 1656 3500 
L 1656 2925 
Q 1872 3269 2151 3426 
Q 2431 3584 2822 3584 
Q 2878 3584 2943 3579 
Q 3009 3575 3134 3559 
L 3138 2547 
z
" transform="scale(0.015625)"/>
      <path id="DejaVuSans-Bold-28" d="M 2413 -844 
L 1484 -844 
Q 1006 -72 778 623 
Q 550 1319 550 2003 
Q 550 2688 779 3389 
Q 1009 4091 1484 4856 
L 2413 4856 
Q 2013 4116 1813 3408 
Q 1613 2700 1613 2009 
Q 1613 1319 1811 609 
Q 2009 -100 2413 -844 
z
" transform="scale(0.015625)"/>
      <path id="DejaVuSans-Bold-32" d="M 1844 884 
L 3897 884 
L 3897 0 
L 506 0 
L 506 884 
L 2209 2388 
Q 2438 2594 2547 2791 
Q 2656 2988 2656 3200 
Q 2656 3528 2436 3728 
Q 2216 3928 1850 3928 
Q 1569 3928 1234 3808 
Q 900 3688 519 3450 
L 519 4475 
Q 925 4609 1322 4679 
Q 1719 4750 2100 4750 
Q 2938 4750 3402 4381 
Q 3866 4013 3866 3353 
Q 3866 2972 3669 2642 
Q 3472 2313 2841 1759 
L 1844 884 
z
" transform="scale(0.015625)"/>
      <path id="DejaVuSans-Bold-30" d="M 2944 2338 
Q 2944 3213 2780 3570 
Q 2616 3928 2228 3928 
Q 1841 3928 1675 3570 
Q 1509 3213 1509 2338 
Q 1509 1453 1675 1090 
Q 1841 728 2228 728 
Q 2613 728 2778 1090 
Q 2944 1453 2944 2338 
z
M 4147 2328 
Q 4147 1169 3647 539 
Q 3147 -91 2228 -91 
Q 1306 -91 806 539 
Q 306 1169 306 2328 
Q 306 3491 806 4120 
Q 1306 4750 2228 4750 
Q 3147 4750 3647 4120 
Q 4147 3491 4147 2328 
z
" transform="scale(0.015625)"/>
      <path id="DejaVuSans-Bold-37" d="M 428 4666 
L 3944 4666 
L 3944 3988 
L 2125 0 
L 953 0 
L 2675 3781 
L 428 3781 
L 428 4666 
z
" transform="scale(0.015625)"/>
      <path id="DejaVuSans-Bold-29" d="M 513 -844 
Q 913 -100 1113 609 
Q 1313 1319 1313 2009 
Q 1313 2700 1113 3408 
Q 913 4116 513 4856 
L 1441 4856 
Q 1916 4091 2145 3389 
Q 2375 2688 2375 2003 
Q 2375 1319 2147 623 
Q 1919 -72 1441 -844 
L 513 -844 
z
" transform="scale(0.015625)"/>
     </defs>
     <use xlink:href="#DejaVuSans-Bold-55"/>
     <use xlink:href="#DejaVuSans-Bold-4e" transform="translate(81.201172 0)"/>
     <use xlink:href="#DejaVuSans-Bold-20" transform="translate(164.892578 0)"/>
     <use xlink:href="#DejaVuSans-Bold-53" transform="translate(199.707031 0)"/>
     <use xlink:href="#DejaVuSans-Bold-63" transform="translate(271.728516 0)"/>
     <use xlink:href="#DejaVuSans-Bold-61" transform="translate(331.005859 0)"/>
     <use xlink:href="#DejaVuSans-Bold-6c" transform="translate(398.486328 0)"/>
     <use xlink:href="#DejaVuSans-Bold-65" transform="translate(432.763672 0)"/>
     <use xlink:href="#DejaVuSans-Bold-20" transform="translate(500.585938 0)"/>
     <use xlink:href="#DejaVuSans-Bold-6f" transform="translate(535.400391 0)"/>
     <use xlink:href="#DejaVuSans-Bold-66" transform="translate(604.101562 0)"/>
     <use xlink:href="#DejaVuSans-Bold-20" transform="translate(647.607422 0)"/>
     <use xlink:href="#DejaVuSans-Bold-41" transform="translate(682.421875 0)"/>
     <use xlink:href="#DejaVuSans-Bold-73" transform="translate(759.814453 0)"/>
     <use xlink:href="#DejaVuSans-Bold-73" transform="translate(819.335938 0)"/>
     <use xlink:href="#DejaVuSans-Bold-65" transform="translate(878.857422 0)"/>
     <use xlink:href="#DejaVuSans-Bold-73" transform="translate(946.679688 0)"/>
     <use xlink:href="#DejaVuSans-Bold-73" transform="translate(1006.201172 0)"/>
     <use xlink:href="#DejaVuSans-Bold-6d" transform="translate(1065.722656 0)"/>
     <use xlink:href="#DejaVuSans-Bold-65" transform="translate(1169.921875 0)"/>
     <use xlink:href="#DejaVuSans-Bold-6e" transform="translate(1237.744141 0)"/>
     <use xlink:href="#DejaVuSans-Bold-74" transform="translate(1308.935547 0)"/>
     <use xlink:href="#DejaVuSans-Bold-20" transform="translate(1356.738281 0)"/>
     <use xlink:href="#DejaVuSans-Bold-53" transform="translate(1391.552734 0)"/>
     <use xlink:href="#DejaVuSans-Bold-68" transform="translate(1463.574219 0)"/>
     <use xlink:href="#DejaVuSans-Bold-61" transform="translate(1534.765625 0)"/>
     <use xlink:href="#DejaVuSans-Bold-72" transform="translate(1602.246094 0)"/>
     <use xlink:href="#DejaVuSans-Bold-65" transform="translate(1651.5625 0)"/>
     <use xlink:href="#DejaVuSans-Bold-73" transform="translate(1719.384766 0)"/>
     <use xlink:href="#DejaVuSans-Bold-20" transform="translate(1778.90625 0)"/>
     <use xlink:href="#DejaVuSans-Bold-28" transform="translate(1813.720703 0)"/>
     <use xlink:href="#DejaVuSans-Bold-32" transform="translate(1859.423828 0)"/>
     <use xlink:href="#DejaVuSans-Bold-30" transform="translate(1929.003906 0)"/>
     <use xlink:href="#DejaVuSans-Bold-32" transform="translate(1998.583984 0)"/>
     <use xlink:href="#DejaVuSans-Bold-37" transform="translate(2068.164062 0)"/>
     <use xlink:href="#DejaVuSans-Bold-29" transform="translate(2137.744141 0)"/>
    </g>
    <!-- CBD Parties ranked highest to lowest (High income excluded, SIDS preserved) -->
    <g transform="translate(233.854727 31.635125) scale(0.13 -0.13)">
     <defs>
      <path id="DejaVuSans-Bold-43" d="M 4288 256 
Q 3956 84 3597 -3 
Q 3238 -91 2847 -91 
Q 1681 -91 1000 561 
Q 319 1213 319 2328 
Q 319 3447 1000 4098 
Q 1681 4750 2847 4750 
Q 3238 4750 3597 4662 
Q 3956 4575 4288 4403 
L 4288 3438 
Q 3953 3666 3628 3772 
Q 3303 3878 2944 3878 
Q 2300 3878 1931 3465 
Q 1563 3053 1563 2328 
Q 1563 1606 1931 1193 
Q 2300 781 2944 781 
Q 3303 781 3628 887 
Q 3953 994 4288 1222 
L 4288 256 
z
" transform="scale(0.015625)"/>
      <path id="DejaVuSans-Bold-42" d="M 2456 2859 
Q 2741 2859 2887 2984 
Q 3034 3109 3034 3353 
Q 3034 3594 2887 3720 
Q 2741 3847 2456 3847 
L 1791 3847 
L 1791 2859 
L 2456 2859 
z
M 2497 819 
Q 2859 819 3042 972 
Q 3225 1125 3225 1434 
Q 3225 1738 3044 1889 
Q 2863 2041 2497 2041 
L 1791 2041 
L 1791 819 
L 2497 819 
z
M 3616 2497 
Q 4003 2384 4215 2081 
Q 4428 1778 4428 1338 
Q 4428 663 3972 331 
Q 3516 0 2584 0 
L 588 0 
L 588 4666 
L 2394 4666 
Q 3366 4666 3802 4372 
Q 4238 4078 4238 3431 
Q 4238 3091 4078 2852 
Q 3919 2613 3616 2497 
z
" transform="scale(0.015625)"/>
      <path id="DejaVuSans-Bold-44" d="M 1791 3756 
L 1791 909 
L 2222 909 
Q 2959 909 3348 1275 
Q 3738 1641 3738 2338 
Q 3738 3031 3350 3393 
Q 2963 3756 2222 3756 
L 1791 3756 
z
M 588 4666 
L 1856 4666 
Q 2919 4666 3439 4514 
Q 3959 4363 4331 4000 
Q 4659 3684 4818 3271 
Q 4978 2859 4978 2338 
Q 4978 1809 4818 1395 
Q 4659 981 4331 666 
Q 3956 303 3431 151 
Q 2906 0 1856 0 
L 588 0 
L 588 4666 
z
" transform="scale(0.015625)"/>
      <path id="DejaVuSans-Bold-50" d="M 588 4666 
L 2584 4666 
Q 3475 4666 3951 4270 
Q 4428 3875 4428 3144 
Q 4428 2409 3951 2014 
Q 3475 1619 2584 1619 
L 1791 1619 
L 1791 0 
L 588 0 
L 588 4666 
z
M 1791 3794 
L 1791 2491 
L 2456 2491 
Q 2806 2491 2997 2661 
Q 3188 2831 3188 3144 
Q 3188 3456 2997 3625 
Q 2806 3794 2456 3794 
L 1791 3794 
z
" transform="scale(0.015625)"/>
      <path id="DejaVuSans-Bold-69" d="M 538 3500 
L 1656 3500 
L 1656 0 
L 538 0 
L 538 3500 
z
M 538 4863 
L 1656 4863 
L 1656 3950 
L 538 3950 
L 538 4863 
z
" transform="scale(0.015625)"/>
      <path id="DejaVuSans-Bold-6b" d="M 538 4863 
L 1656 4863 
L 1656 2216 
L 2944 3500 
L 4244 3500 
L 2534 1894 
L 4378 0 
L 3022 0 
L 1656 1459 
L 1656 0 
L 538 0 
L 538 4863 
z
" transform="scale(0.015625)"/>
      <path id="DejaVuSans-Bold-64" d="M 2919 2988 
L 2919 4863 
L 4044 4863 
L 4044 0 
L 2919 0 
L 2919 506 
Q 2688 197 2409 53 
Q 2131 -91 1766 -91 
Q 1119 -91 703 423 
Q 288 938 288 1747 
Q 288 2556 703 3070 
Q 1119 3584 1766 3584 
Q 2128 3584 2408 3439 
Q 2688 3294 2919 2988 
z
M 2181 722 
Q 2541 722 2730 984 
Q 2919 1247 2919 1747 
Q 2919 2247 2730 2509 
Q 2541 2772 2181 2772 
Q 1825 2772 1636 2509 
Q 1447 2247 1447 1747 
Q 1447 1247 1636 984 
Q 1825 722 2181 722 
z
" transform="scale(0.015625)"/>
      <path id="DejaVuSans-Bold-67" d="M 2919 594 
Q 2688 288 2409 144 
Q 2131 0 1766 0 
Q 1125 0 706 504 
Q 288 1009 288 1791 
Q 288 2575 706 3076 
Q 1125 3578 1766 3578 
Q 2131 3578 2409 3434 
Q 2688 3291 2919 2981 
L 2919 3500 
L 4044 3500 
L 4044 353 
Q 4044 -491 3511 -936 
Q 2978 -1381 1966 -1381 
Q 1638 -1381 1331 -1331 
Q 1025 -1281 716 -1178 
L 716 -306 
Q 1009 -475 1290 -558 
Q 1572 -641 1856 -641 
Q 2406 -641 2662 -400 
Q 2919 -159 2919 353 
L 2919 594 
z
M 2181 2772 
Q 1834 2772 1640 2515 
Q 1447 2259 1447 1791 
Q 1447 1309 1634 1061 
Q 1822 813 2181 813 
Q 2531 813 2725 1069 
Q 2919 1325 2919 1791 
Q 2919 2259 2725 2515 
Q 2531 2772 2181 2772 
z
" transform="scale(0.015625)"/>
      <path id="DejaVuSans-Bold-77" d="M 225 3500 
L 1313 3500 
L 1900 1088 
L 2491 3500 
L 3425 3500 
L 4013 1113 
L 4603 3500 
L 5691 3500 
L 4769 0 
L 3547 0 
L 2956 2406 
L 2369 0 
L 1147 0 
L 225 3500 
z
" transform="scale(0.015625)"/>
      <path id="DejaVuSans-Bold-48" d="M 588 4666 
L 1791 4666 
L 1791 2888 
L 3566 2888 
L 3566 4666 
L 4769 4666 
L 4769 0 
L 3566 0 
L 3566 1978 
L 1791 1978 
L 1791 0 
L 588 0 
L 588 4666 
z
" transform="scale(0.015625)"/>
      <path id="DejaVuSans-Bold-78" d="M 1422 1791 
L 159 3500 
L 1344 3500 
L 2059 2463 
L 2784 3500 
L 3969 3500 
L 2706 1797 
L 4031 0 
L 2847 0 
L 2059 1106 
L 1281 0 
L 97 0 
L 1422 1791 
z
" transform="scale(0.015625)"/>
      <path id="DejaVuSans-Bold-75" d="M 500 1363 
L 500 3500 
L 1625 3500 
L 1625 3150 
Q 1625 2866 1622 2436 
Q 1619 2006 1619 1863 
Q 1619 1441 1641 1255 
Q 1663 1069 1716 984 
Q 1784 875 1895 815 
Q 2006 756 2150 756 
Q 2500 756 2700 1025 
Q 2900 1294 2900 1772 
L 2900 3500 
L 4019 3500 
L 4019 0 
L 2900 0 
L 2900 506 
Q 2647 200 2364 54 
Q 2081 -91 1741 -91 
Q 1134 -91 817 281 
Q 500 653 500 1363 
z
" transform="scale(0.015625)"/>
      <path id="DejaVuSans-Bold-2c" d="M 653 1209 
L 1778 1209 
L 1778 256 
L 1006 -909 
L 341 -909 
L 653 256 
L 653 1209 
z
" transform="scale(0.015625)"/>
      <path id="DejaVuSans-Bold-49" d="M 588 4666 
L 1791 4666 
L 1791 0 
L 588 0 
L 588 4666 
z
" transform="scale(0.015625)"/>
      <path id="DejaVuSans-Bold-70" d="M 1656 506 
L 1656 -1331 
L 538 -1331 
L 538 3500 
L 1656 3500 
L 1656 2988 
Q 1888 3294 2169 3439 
Q 2450 3584 2816 3584 
Q 3463 3584 3878 3070 
Q 4294 2556 4294 1747 
Q 4294 938 3878 423 
Q 3463 -91 2816 -91 
Q 2450 -91 2169 54 
Q 1888 200 1656 506 
z
M 2400 2772 
Q 2041 2772 1848 2508 
Q 1656 2244 1656 1747 
Q 1656 1250 1848 986 
Q 2041 722 2400 722 
Q 2759 722 2948 984 
Q 3138 1247 3138 1747 
Q 3138 2247 2948 2509 
Q 2759 2772 2400 2772 
z
" transform="scale(0.015625)"/>
      <path id="DejaVuSans-Bold-76" d="M 97 3500 
L 1216 3500 
L 2088 1081 
L 2956 3500 
L 4078 3500 
L 2700 0 
L 1472 0 
L 97 3500 
z
" transform="scale(0.015625)"/>
     </defs>
     <use xlink:href="#DejaVuSans-Bold-43"/>
     <use xlink:href="#DejaVuSans-Bold-42" transform="translate(73.388672 0)"/>
     <use xlink:href="#DejaVuSans-Bold-44" transform="translate(149.609375 0)"/>
     <use xlink:href="#DejaVuSans-Bold-20" transform="translate(232.617188 0)"/>
     <use xlink:href="#DejaVuSans-Bold-50" transform="translate(267.431641 0)"/>
     <use xlink:href="#DejaVuSans-Bold-61" transform="translate(338.097656 0)"/>
     <use xlink:href="#DejaVuSans-Bold-72" transform="translate(405.578125 0)"/>
     <use xlink:href="#DejaVuSans-Bold-74" transform="translate(454.894531 0)"/>
     <use xlink:href="#DejaVuSans-Bold-69" transform="translate(502.697266 0)"/>
     <use xlink:href="#DejaVuSans-Bold-65" transform="translate(536.974609 0)"/>
     <use xlink:href="#DejaVuSans-Bold-73" transform="translate(604.796875 0)"/>
     <use xlink:href="#DejaVuSans-Bold-20" transform="translate(664.318359 0)"/>
     <use xlink:href="#DejaVuSans-Bold-72" transform="translate(699.132812 0)"/>
     <use xlink:href="#DejaVuSans-Bold-61" transform="translate(748.449219 0)"/>
     <use xlink:href="#DejaVuSans-Bold-6e" transform="translate(815.929688 0)"/>
     <use xlink:href="#DejaVuSans-Bold-6b" transform="translate(887.121094 0)"/>
     <use xlink:href="#DejaVuSans-Bold-65" transform="translate(951 0)"/>
     <use xlink:href="#DejaVuSans-Bold-64" transform="translate(1018.822266 0)"/>
     <use xlink:href="#DejaVuSans-Bold-20" transform="translate(1090.404297 0)"/>
     <use xlink:href="#DejaVuSans-Bold-68" transform="translate(1125.21875 0)"/>
     <use xlink:href="#DejaVuSans-Bold-69" transform="translate(1196.410156 0)"/>
     <use xlink:href="#DejaVuSans-Bold-67" transform="translate(1230.6875 0)"/>
     <use xlink:href="#DejaVuSans-Bold-68" transform="translate(1302.269531 0)"/>
     <use xlink:href="#DejaVuSans-Bold-65" transform="translate(1373.460938 0)"/>
     <use xlink:href="#DejaVuSans-Bold-73" transform="translate(1441.283203 0)"/>
     <use xlink:href="#DejaVuSans-Bold-74" transform="translate(1500.804688 0)"/>
     <use xlink:href="#DejaVuSans-Bold-20" transform="translate(1548.607422 0)"/>
     <use xlink:href="#DejaVuSans-Bold-74" transform="translate(1583.421875 0)"/>
     <use xlink:href="#DejaVuSans-Bold-6f" transform="translate(1631.224609 0)"/>
     <use xlink:href="#DejaVuSans-Bold-20" transform="translate(1699.925781 0)"/>
     <use xlink:href="#DejaVuSans-Bold-6c" transform="translate(1734.740234 0)"/>
     <use xlink:href="#DejaVuSans-Bold-6f" transform="translate(1769.017578 0)"/>
     <use xlink:href="#DejaVuSans-Bold-77" transform="translate(1837.71875 0)"/>
     <use xlink:href="#DejaVuSans-Bold-65" transform="translate(1930.101562 0)"/>
     <use xlink:href="#DejaVuSans-Bold-73" transform="translate(1997.923828 0)"/>
     <use xlink:href="#DejaVuSans-Bold-74" transform="translate(2057.445312 0)"/>
     <use xlink:href="#DejaVuSans-Bold-20" transform="translate(2105.248047 0)"/>
     <use xlink:href="#DejaVuSans-Bold-28" transform="translate(2140.0625 0)"/>
     <use xlink:href="#DejaVuSans-Bold-48" transform="translate(2185.765625 0)"/>
     <use xlink:href="#DejaVuSans-Bold-69" transform="translate(2269.457031 0)"/>
     <use xlink:href="#DejaVuSans-Bold-67" transform="translate(2303.734375 0)"/>
     <use xlink:href="#DejaVuSans-Bold-68" transform="translate(2375.316406 0)"/>
     <use xlink:href="#DejaVuSans-Bold-20" transform="translate(2446.507812 0)"/>
     <use xlink:href="#DejaVuSans-Bold-69" transform="translate(2481.322266 0)"/>
     <use xlink:href="#DejaVuSans-Bold-6e" transform="translate(2515.599609 0)"/>
     <use xlink:href="#DejaVuSans-Bold-63" transform="translate(2586.791016 0)"/>
     <use xlink:href="#DejaVuSans-Bold-6f" transform="translate(2646.068359 0)"/>
     <use xlink:href="#DejaVuSans-Bold-6d" transform="translate(2714.769531 0)"/>
     <use xlink:href="#DejaVuSans-Bold-65" transform="translate(2818.96875 0)"/>
     <use xlink:href="#DejaVuSans-Bold-20" transform="translate(2886.791016 0)"/>
     <use xlink:href="#DejaVuSans-Bold-65" transform="translate(2921.605469 0)"/>
     <use xlink:href="#DejaVuSans-Bold-78" transform="translate(2989.427734 0)"/>
     <use xlink:href="#DejaVuSans-Bold-63" transform="translate(3053.929688 0)"/>
     <use xlink:href="#DejaVuSans-Bold-6c" transform="translate(3113.207031 0)"/>
     <use xlink:href="#DejaVuSans-Bold-75" transform="translate(3147.484375 0)"/>
     <use xlink:href="#DejaVuSans-Bold-64" transform="translate(3218.675781 0)"/>
     <use xlink:href="#DejaVuSans-Bold-65" transform="translate(3290.257812 0)"/>
     <use xlink:href="#DejaVuSans-Bold-64" transform="translate(3358.080078 0)"/>
     <use xlink:href="#DejaVuSans-Bold-2c" transform="translate(3429.662109 0)"/>
     <use xlink:href="#DejaVuSans-Bold-20" transform="translate(3467.650391 0)"/>
     <use xlink:href="#DejaVuSans-Bold-53" transform="translate(3502.464844 0)"/>
     <use xlink:href="#DejaVuSans-Bold-49" transform="translate(3574.486328 0)"/>
     <use xlink:href="#DejaVuSans-Bold-44" transform="translate(3611.693359 0)"/>
     <use xlink:href="#DejaVuSans-Bold-53" transform="translate(3694.701172 0)"/>
     <use xlink:href="#DejaVuSans-Bold-20" transform="translate(3766.722656 0)"/>
     <use xlink:href="#DejaVuSans-Bold-70" transform="translate(3801.537109 0)"/>
     <use xlink:href="#DejaVuSans-Bold-72" transform="translate(3873.119141 0)"/>
     <use xlink:href="#DejaVuSans-Bold-65" transform="translate(3922.435547 0)"/>
     <use xlink:href="#DejaVuSans-Bold-73" transform="translate(3990.257812 0)"/>
     <use xlink:href="#DejaVuSans-Bold-65" transform="translate(4049.779297 0)"/>
     <use xlink:href="#DejaVuSans-Bold-72" transform="translate(4117.601562 0)"/>
     <use xlink:href="#DejaVuSans-Bold-76" transform="translate(4166.917969 0)"/>
     <use xlink:href="#DejaVuSans-Bold-65" transform="translate(4232.103516 0)"/>
     <use xlink:href="#DejaVuSans-Bold-64" transform="translate(4299.925781 0)"/>
     <use xlink:href="#DejaVuSans-Bold-29" transform="translate(4371.507812 0)"/>
    </g>
   </g>
  </g>
 </g>
 <defs>
  <clipPath id="p51660788a4">
   <rect x="51.111563" y="37.635125" width="939.720704" height="292.544"/>
  </clipPath>
 </defs>
</svg>
